<svg width="185" height="73" viewBox="0 0 185 73" fill="none" xmlns="http://www.w3.org/2000/svg">
<g clip-path="url(#clip0_146:37)">
<path d="M2.64946 21.5452C4.59415 23.3505 6.41223 25.2894 8.09064 27.348C21.7114 46.4397 41.2711 56.0035 63.0714 61.2153C70.8928 62.872 78.9707 62.872 86.7921 61.2153C108.493 57.0951 128.807 47.515 145.845 33.3657C150.918 29.0368 155.239 23.8856 158.63 18.1245C156.638 18.8946 154.611 19.5752 152.655 20.4169C146.894 22.8885 141.239 25.6645 135.354 27.8136C132.64 28.626 129.795 28.8937 126.979 28.6017C126.329 28.4398 125.731 28.1152 125.24 27.658C124.749 27.2009 124.38 26.626 124.169 25.9868C124.164 25.3308 124.324 24.6841 124.635 24.1076C124.946 23.5311 125.398 23.0438 125.947 22.6915C141.115 17.9633 154.131 9.00844 167.859 1.43262C172.66 -1.21801 175.7 -0.483716 177.745 4.24445C182.805 16.1548 185.231 29.031 184.858 41.9802C184.858 42.428 184.164 42.8399 183.08 44.0398C172.517 40.046 175.807 28.6554 170.632 19.4856C169.68 21.3507 168.599 23.1461 167.396 24.8585C145.062 52.5828 115.438 67.0717 81.0131 72.5163C75.6443 73.2447 70.1948 73.1117 64.8674 72.1223C45.5566 69.0888 27.6135 60.2275 13.4073 46.7084C8.74856 42.2489 5.4234 36.3208 1.97376 30.7508C0.64014 28.5838 0.622357 25.5928 0 22.978L2.64946 21.5452Z" fill="white"/>
</g>
<defs>
<clipPath id="clip0_146:37">
<rect width="185" height="73" fill="white"/>
</clipPath>
</defs>
</svg>
