<svg width="40" height="50" viewBox="0 0 40 50" fill="none" xmlns="http://www.w3.org/2000/svg">
<path d="M5.77733 32.1693C2.33993 33.7968 0.287781 37.0389 0.287781 40.8421V49.2188C0.287781 49.6502 0.637585 50 1.06903 50H38.9309C39.3624 50 39.7122 49.6502 39.7122 49.2188V40.842C39.7122 37.0388 37.66 33.7966 34.2226 32.1692L24.9899 27.798L24.7537 24.3457C25.5069 23.852 26.1791 23.2447 26.7459 22.5481H27.9489C29.6991 22.5481 31.123 21.1242 31.123 19.3739V18.8614C32.322 18.0607 33.1055 16.7515 33.1055 15.2736C33.1055 13.7958 32.322 12.4865 31.123 11.6858V11.123C31.123 4.98975 26.1333 0 20 0C13.8667 0 8.87694 4.98975 8.87694 11.123V11.6812C7.63954 12.5013 6.89442 13.8266 6.89442 15.2738C6.89442 17.7056 9.01405 19.6839 11.6194 19.6839C11.6485 19.6839 11.6773 19.6819 11.7064 19.6814C12.3193 21.6232 13.5968 23.2726 15.2707 24.3619L15.0072 27.7995L5.77733 32.1693ZM24.3961 29.2457L27.0423 30.4985L25.262 34.6212L21.2425 31.609L24.3961 29.2457ZM18.6358 39.243H21.3641L21.9335 48.4375H18.0665L18.6358 39.243ZM22.5508 34.5419L21.5309 37.6805H18.469L17.4257 34.4693L19.9397 32.5854L22.5508 34.5419ZM14.6175 34.6212L12.8576 30.5459L15.53 29.2807L18.6369 31.609L14.6175 34.6212ZM1.85028 40.842C1.85028 37.6581 3.56825 34.9439 6.44598 33.5814L11.4447 31.2148L13.5759 36.1502C13.6707 36.3699 13.8609 36.534 14.0923 36.5955C14.1585 36.6132 14.226 36.6218 14.2931 36.6218C14.4602 36.6218 14.625 36.5681 14.7616 36.4657L16.1045 35.4594L17.1125 38.5617L16.501 48.4375H1.85028V40.842ZM38.1497 40.842V48.4375H23.499L22.8875 38.5617L23.872 35.5319L25.1181 36.4657C25.2547 36.5681 25.4194 36.6218 25.5866 36.6218C25.6537 36.6218 25.7212 36.6132 25.7874 36.5955C26.0186 36.534 26.2089 36.3699 26.3038 36.1502L28.4555 31.1675L33.5542 33.5814C36.4317 34.9438 38.1497 37.6581 38.1497 40.842ZM27.9488 20.9857H27.7611C27.9722 20.569 28.1509 20.1331 28.2934 19.6814C28.3225 19.6819 28.3514 19.6839 28.3805 19.6839C28.7844 19.6839 29.1764 19.6361 29.5509 19.5468C29.4644 20.3545 28.7792 20.9857 27.9488 20.9857ZM28.6319 18.1115C28.6729 17.7697 28.6946 17.4221 28.6946 17.0694V12.4403C30.2916 12.5828 31.5431 13.799 31.5431 15.2738C31.5431 16.7677 30.2586 17.9957 28.6319 18.1115ZM20 1.5625C25.2314 1.5625 29.4941 5.78623 29.559 11.0025C29.2727 10.9337 28.9759 10.8902 28.6715 10.8729C28.3471 6.37217 24.5819 2.80938 20 2.80938C15.4182 2.80938 11.6531 6.37197 11.3285 10.8725C11.0287 10.8898 10.7313 10.935 10.441 11.0045C10.5048 5.78721 14.7679 1.5625 20 1.5625ZM26.7708 9.26709C25.5273 8.82344 24.3606 8.37295 23.4897 7.31201C23.3419 7.13193 23.1215 7.02725 22.8886 7.02646C22.8877 7.02646 22.8867 7.02646 22.8858 7.02646C22.6539 7.02646 22.4339 7.12959 22.2854 7.30781C20.3119 9.67852 17.5326 10.0247 14.5902 10.3912C14.0426 10.4595 13.4829 10.5306 12.9253 10.6147C13.3646 7.10049 16.3686 4.37188 20 4.37188C23.1514 4.37188 25.8301 6.42715 26.7708 9.26709ZM8.45692 15.2737C8.45692 14.2148 9.10448 13.2491 10.1469 12.7534C10.5107 12.5805 10.8995 12.4766 11.3055 12.441V17.0694C11.3055 17.4221 11.3271 17.7697 11.3682 18.1115C9.74139 17.9957 8.45692 16.7677 8.45692 15.2737ZM12.8679 17.0694V12.2045C13.5003 12.1023 14.1499 12.0206 14.7833 11.9417C17.6458 11.5852 20.5977 11.2175 22.8957 8.95078C23.968 9.9293 25.2187 10.3738 26.4348 10.8061C26.6597 10.886 26.8893 10.9681 27.1162 11.0529C27.1256 11.2022 27.1319 11.3523 27.1319 11.504V17.0694C27.1319 18.515 26.6984 19.8607 25.9562 20.9857H20.7477C20.3163 20.9857 19.9665 21.3355 19.9665 21.767C19.9665 22.1984 20.3163 22.5482 20.7477 22.5482H24.5601C23.3229 23.5798 21.7329 24.2016 19.9999 24.2016C16.0673 24.2016 12.8679 21.0021 12.8679 17.0694ZM20 25.7641C21.1453 25.7641 22.2393 25.541 23.2417 25.1368L23.4384 28.011L19.9398 30.6328L16.5517 28.0938L16.7777 25.1447C17.7748 25.5439 18.8621 25.7641 20 25.7641ZM33.2345 39.692C33.6659 39.692 34.0157 40.0418 34.0157 40.4732C34.0157 40.9047 33.6659 41.2545 33.2345 41.2545H27.7657C27.3343 41.2545 26.9845 40.9047 26.9845 40.4732C26.9845 40.0418 27.3343 39.692 27.7657 39.692H33.2345Z" fill="white"/>
</svg>
