<svg width="30" height="30" viewBox="0 0 30 30" fill="none" xmlns="http://www.w3.org/2000/svg">
<g clip-path="url(#clip0_280:489)">
<path d="M15.0003 29.9993C23.0976 29.9993 29.6618 23.2837 29.6618 14.9996C29.6618 6.71556 23.0976 0 15.0003 0C6.90303 0 0.338867 6.71556 0.338867 14.9996C0.338867 23.2837 6.90303 29.9993 15.0003 29.9993Z" fill="url(#paint0_radial_280:489)"/>
<path opacity="0.18" d="M29.6615 15.0033C29.6615 23.2868 23.0968 30 15 30V0C23.0968 0 29.6615 6.71617 29.6615 15.0033Z" fill="#0A0A0A"/>
<path d="M24.1492 10.6389C24.0654 7.9049 22.1298 5.88109 19.4576 5.78258C17.9736 5.72818 16.4877 5.70147 14.9998 5.70245C13.5266 5.70245 12.0539 5.72916 10.5817 5.78258C8.12631 5.86932 6.40978 7.55719 5.96943 10.0383C5.89592 10.4793 5.8452 10.9204 5.78418 11.3615V18.6356C5.818 18.8716 5.86798 19.1061 5.88342 19.3428C6.06206 22.0819 7.90945 24.1109 10.5817 24.2131C12.0519 24.2704 13.5246 24.2986 14.9998 24.2976C16.4862 24.2976 17.9724 24.2702 19.4584 24.2153C22.1306 24.1168 24.0654 22.0922 24.1492 19.3575C24.2375 16.4547 24.2375 13.5485 24.1492 10.6389ZM22.5298 19.0466C22.4798 21.2108 21.1778 22.5017 19.0599 22.5848C17.7088 22.6362 16.3546 22.5943 15.002 22.5943C13.667 22.5943 12.3313 22.6355 10.9985 22.5848C8.89673 22.5054 7.5904 21.2387 7.53306 19.098C7.46004 16.3663 7.46004 13.6333 7.53306 10.8991C7.5904 8.75913 8.89673 7.46235 10.9977 7.41678C12.3318 7.38835 13.6665 7.37389 15.002 7.3734C16.3561 7.3734 17.7095 7.38786 19.0621 7.41678C21.1786 7.46309 22.482 8.78633 22.532 10.9506C22.5913 13.6485 22.5905 16.3472 22.5298 19.0466Z" fill="white"/>
<path d="M14.9995 10.1956C12.4059 10.1956 10.3027 12.3466 10.3027 15.0004C10.3027 17.6543 12.4059 19.8053 14.9995 19.8053C17.593 19.8053 19.6962 17.6543 19.6962 15.0004C19.6962 12.3466 17.593 10.1956 14.9995 10.1956ZM14.9995 18.1505C13.2984 18.1505 11.92 16.7405 11.92 15.0004C11.92 13.2604 13.2984 11.8497 14.9995 11.8497C16.7006 11.8497 18.079 13.2604 18.079 15.0004C18.079 16.7405 16.7006 18.1505 14.9995 18.1505Z" fill="white"/>
<path d="M21.0871 9.97577C21.082 10.1956 21.0122 10.4091 20.8864 10.5894C20.7605 10.7697 20.5843 10.909 20.3797 10.9896C20.1752 11.0702 19.9513 11.0887 19.7363 11.0427C19.5213 10.9968 19.3246 10.8884 19.1709 10.7311C19.0172 10.5739 18.9133 10.3748 18.8722 10.1587C18.8311 9.94272 18.8547 9.71939 18.94 9.5167C19.0253 9.31402 19.1685 9.141 19.3516 9.01932C19.5348 8.89764 19.7498 8.8327 19.9697 8.83264C20.1181 8.83427 20.2648 8.86514 20.4013 8.92348C20.5378 8.98183 20.6615 9.0665 20.7652 9.17266C20.869 9.27882 20.9508 9.40439 21.0061 9.54219C21.0613 9.68 21.0888 9.82733 21.0871 9.97577Z" fill="white"/>
<path d="M19.6967 15.0034C19.6967 17.6572 17.5935 19.8082 15 19.8082V18.1505C16.7011 18.1505 18.0795 16.7405 18.0795 15.0004C18.0795 13.2604 16.7011 11.8497 15 11.8497V10.1956C17.5935 10.1956 19.6967 12.3466 19.6967 15.0034Z" fill="#D6D7D8"/>
<path d="M19.9704 11.1188C19.7432 11.124 19.5197 11.0615 19.3282 10.9391C19.1368 10.8168 18.9862 10.6401 18.8956 10.4318C18.805 10.2234 18.7785 9.99276 18.8196 9.7693C18.8607 9.54584 18.9674 9.33969 19.1262 9.17716C19.285 9.01463 19.4886 8.9031 19.711 8.85681C19.9334 8.81051 20.1646 8.83155 20.375 8.91724C20.5855 9.00293 20.7656 9.14938 20.8924 9.33789C21.0192 9.52641 21.087 9.74844 21.0871 9.97565C21.0888 10.124 21.0613 10.2713 21.0061 10.4091C20.951 10.5468 20.8692 10.6724 20.7655 10.7785C20.6618 10.8847 20.5382 10.9693 20.4018 11.0277C20.2654 11.0861 20.1188 11.117 19.9704 11.1188Z" fill="#D6D7D8"/>
<path d="M24.1497 19.3575C24.0659 22.0922 22.131 24.1167 19.4588 24.2152C17.9744 24.2696 16.4882 24.2971 15.0003 24.2976V22.5943C16.3529 22.5943 17.707 22.6362 19.0582 22.5847C21.1761 22.5038 22.478 21.2107 22.528 19.0465C22.5888 16.351 22.5888 13.6524 22.528 10.9505C22.478 8.78627 21.1746 7.46303 19.0582 7.41672C17.7055 7.3883 16.3522 7.37384 14.998 7.37335V5.70239C16.4845 5.70239 17.9704 5.7291 19.4559 5.78252C22.1281 5.88103 24.0637 7.90485 24.1475 10.6388C24.2372 13.5436 24.2379 16.4498 24.1497 19.3575Z" fill="#D6D7D8"/>
</g>
<defs>
<radialGradient id="paint0_radial_280:489" cx="0" cy="0" r="1" gradientUnits="userSpaceOnUse" gradientTransform="translate(6.33919 3.7763) scale(32.2856 33.0194)">
<stop stop-color="#FAE100"/>
<stop offset="0.05" stop-color="#FADC04"/>
<stop offset="0.12" stop-color="#FBCE0E"/>
<stop offset="0.18" stop-color="#FCB720"/>
<stop offset="0.25" stop-color="#FE9838"/>
<stop offset="0.31" stop-color="#FF7950"/>
<stop offset="0.49" stop-color="#FF1C74"/>
<stop offset="1" stop-color="#6C1CD1"/>
</radialGradient>
<clipPath id="clip0_280:489">
<rect width="30" height="30" fill="white"/>
</clipPath>
</defs>
</svg>
