<?xml version="1.0" encoding="utf-8"?>
<!-- Generator: Adobe Illustrator 23.0.5, SVG Export Plug-In . SVG Version: 6.00 Build 0)  -->
<svg version="1.1" id="Слой_1" xmlns="http://www.w3.org/2000/svg" xmlns:xlink="http://www.w3.org/1999/xlink" x="0px" y="0px"
	 viewBox="0 0 30 30" enable-background="new 0 0 30 30" xml:space="preserve">
<g>
	<defs>
		<rect id="SVGID_1_" width="30" height="30"/>
	</defs>
	<clipPath id="SVGID_2_">
		<use xlink:href="#SVGID_1_"  overflow="visible"/>
	</clipPath>
	<g clip-path="url(#SVGID_2_)">
		
			<radialGradient id="SVGID_3_" cx="-232.5663" cy="264.7315" r="1" gradientTransform="matrix(32.2856 0 0 -33.0194 7514.8823 8745.0537)" gradientUnits="userSpaceOnUse">
			<stop  offset="0" style="stop-color:#FAE100"/>
			<stop  offset="5.000000e-02" style="stop-color:#FADC04"/>
			<stop  offset="0.12" style="stop-color:#FBCE0E"/>
			<stop  offset="0.18" style="stop-color:#FCB720"/>
			<stop  offset="0.25" style="stop-color:#FE9838"/>
			<stop  offset="0.31" style="stop-color:#FF7950"/>
			<stop  offset="0.49" style="stop-color:#FF1C74"/>
			<stop  offset="1" style="stop-color:#6C1CD1"/>
		</radialGradient>
		<path fill="url(#SVGID_3_)" d="M15,30c8.1,0,14.7-6.7,14.7-15c0-8.3-6.6-15-14.7-15C6.9,0,0.3,6.7,0.3,15C0.3,23.3,6.9,30,15,30z"
			/>
		<path opacity="0.18" fill="#0A0A0A" enable-background="new    " d="M29.7,15c0,8.3-6.6,15-14.7,15V0C23.1,0,29.7,6.7,29.7,15z"/>
		<path fill="#FFFFFF" d="M24.1,10.6c-0.1-2.7-2-4.8-4.7-4.9c-1.5-0.1-3-0.1-4.5-0.1c-1.5,0-2.9,0-4.4,0.1C8.1,5.9,6.4,7.6,6,10
			c-0.1,0.4-0.1,0.9-0.2,1.3v7.3c0,0.2,0.1,0.5,0.1,0.7c0.2,2.7,2,4.8,4.7,4.9c1.5,0.1,2.9,0.1,4.4,0.1c1.5,0,3,0,4.5-0.1
			c2.7-0.1,4.6-2.1,4.7-4.9C24.2,16.5,24.2,13.5,24.1,10.6z M22.5,19c0,2.2-1.4,3.5-3.5,3.5c-1.4,0.1-2.7,0-4.1,0c-1.3,0-2.7,0-4,0
			c-2.1-0.1-3.4-1.3-3.5-3.5c-0.1-2.7-0.1-5.5,0-8.2C7.6,8.8,8.9,7.5,11,7.4c1.3,0,2.7,0,4,0c1.4,0,2.7,0,4.1,0
			c2.1,0,3.4,1.4,3.5,3.5C22.6,13.6,22.6,16.3,22.5,19z"/>
		<path fill="#FFFFFF" d="M15,10.2c-2.6,0-4.7,2.2-4.7,4.8s2.1,4.8,4.7,4.8c2.6,0,4.7-2.2,4.7-4.8S17.6,10.2,15,10.2z M15,18.2
			c-1.7,0-3.1-1.4-3.1-3.2c0-1.7,1.4-3.2,3.1-3.2c1.7,0,3.1,1.4,3.1,3.2C18.1,16.7,16.7,18.2,15,18.2z"/>
		<path fill="#FFFFFF" d="M21.1,10c0,0.2-0.1,0.4-0.2,0.6c-0.1,0.2-0.3,0.3-0.5,0.4c-0.2,0.1-0.4,0.1-0.6,0.1
			c-0.2,0-0.4-0.2-0.6-0.3s-0.3-0.4-0.3-0.6c0-0.2,0-0.4,0.1-0.6C19,9.3,19.2,9.1,19.4,9c0.2-0.1,0.4-0.2,0.6-0.2
			c0.1,0,0.3,0,0.4,0.1s0.3,0.1,0.4,0.2C20.9,9.3,21,9.4,21,9.5C21.1,9.7,21.1,9.8,21.1,10z"/>
		<path fill="#D6D7D8" d="M19.7,15c0,2.7-2.1,4.8-4.7,4.8v-1.7c1.7,0,3.1-1.4,3.1-3.2c0-1.7-1.4-3.2-3.1-3.2v-1.7
			C17.6,10.2,19.7,12.3,19.7,15z"/>
		<path fill="#D6D7D8" d="M20,11.1c-0.2,0-0.5-0.1-0.6-0.2c-0.2-0.1-0.3-0.3-0.4-0.5c-0.1-0.2-0.1-0.4-0.1-0.7
			c0-0.2,0.1-0.4,0.3-0.6c0.2-0.2,0.4-0.3,0.6-0.3c0.2,0,0.5,0,0.7,0.1c0.2,0.1,0.4,0.2,0.5,0.4c0.1,0.2,0.2,0.4,0.2,0.6
			c0,0.1,0,0.3-0.1,0.4c-0.1,0.1-0.1,0.3-0.2,0.4c-0.1,0.1-0.2,0.2-0.4,0.2S20.1,11.1,20,11.1z"/>
		<path fill="#D6D7D8" d="M24.1,19.4c-0.1,2.7-2,4.8-4.7,4.9c-1.5,0.1-3,0.1-4.5,0.1v-1.7c1.4,0,2.7,0,4.1,0
			c2.1-0.1,3.4-1.4,3.5-3.5c0.1-2.7,0.1-5.4,0-8.1c-0.1-2.2-1.4-3.5-3.5-3.5c-1.4,0-2.7,0-4.1,0V5.7c1.5,0,3,0,4.5,0.1
			c2.7,0.1,4.6,2.1,4.7,4.9C24.2,13.5,24.2,16.5,24.1,19.4z"/>
	</g>
</g>
</svg>
