<svg width="40" height="40" viewBox="0 0 40 40" fill="none" xmlns="http://www.w3.org/2000/svg">
<path d="M32.9589 12.5978C32.8786 11.6349 32.4774 10.7523 31.8355 10.1103C31.1936 9.46841 30.351 9.0672 29.348 9.0672H27.2217V7.22167C27.2217 5.21565 26.4192 3.41023 25.0953 2.12638C23.7713 0.802407 21.9659 0 20 0C17.994 0 16.1886 0.802407 14.9047 2.12638C13.5807 3.41023 12.7783 5.21565 12.7783 7.22167V9.0672H10.6519C9.64894 9.0672 8.80641 9.46841 8.16448 10.1103C7.52256 10.7523 7.12135 11.6349 7.04111 12.5978L4.91473 36.349C4.91473 36.4694 4.91473 36.5898 4.91473 36.6299C4.91473 37.5125 5.27582 38.3551 5.91774 38.9569C6.51955 39.5186 7.32196 39.9198 8.16448 40H8.2046C8.32496 40 8.44533 40 8.52557 40H31.4744C31.5547 40 31.675 40 31.7954 40C32.678 39.9198 33.4804 39.5186 34.0822 38.9569C34.7242 38.3551 35.0852 37.5125 35.0852 36.5898C35.0852 36.5095 35.0852 36.4293 35.0852 36.3089L32.9589 12.5978ZM14.9849 7.22167C14.9849 5.81745 15.5466 4.57372 16.4694 3.65095C17.3922 2.72818 18.6359 2.1665 20.0401 2.1665C21.4443 2.1665 22.6881 2.72818 23.6108 3.65095C24.5336 4.57372 25.0953 5.81745 25.0953 7.22167V9.0672H14.9849V7.22167ZM32.8385 36.6299C32.8385 36.9509 32.7181 37.2317 32.4774 37.4323C32.2367 37.673 31.8756 37.8335 31.5547 37.8736C31.5547 37.8736 31.5145 37.8736 31.4343 37.8736H8.52557C8.44533 37.8736 8.40521 37.8736 8.40521 37.8736H8.36509C8.004 37.8335 7.68304 37.673 7.44232 37.4323C7.20159 37.2317 7.08123 36.9509 7.08123 36.6299V36.5095L9.20761 12.7984C9.24773 12.3571 9.44833 11.9559 9.72918 11.675C9.9699 11.4343 10.2909 11.2738 10.6519 11.2738H12.7783V16.1685C12.7783 16.7703 13.2598 17.2518 13.8616 17.2518C14.4634 17.2518 14.9448 16.7703 14.9448 16.1685V11.2738H24.9749V16.1685C24.9749 16.7703 25.4564 17.2518 26.0582 17.2518C26.66 17.2518 27.1414 16.7703 27.1414 16.1685V11.2738H29.2678C29.6289 11.2738 29.9498 11.4343 30.1906 11.675C30.4714 11.9559 30.672 12.3571 30.7121 12.7984L32.8385 36.5497V36.6299Z" fill="white"/>
</svg>
