<?xml version="1.0" encoding="utf-8"?>
<!-- Generator: Adobe Illustrator 23.0.5, SVG Export Plug-In . SVG Version: 6.00 Build 0)  -->
<svg version="1.1" id="Слой_1" xmlns="http://www.w3.org/2000/svg" xmlns:xlink="http://www.w3.org/1999/xlink" x="0px" y="0px"
	 viewBox="0 0 30 30" enable-background="new 0 0 30 30" xml:space="preserve">
<g>
	<defs>
		<rect id="SVGID_1_" width="30" height="30"/>
	</defs>
	<clipPath id="SVGID_2_">
		<use xlink:href="#SVGID_1_"  overflow="visible"/>
	</clipPath>
	<g clip-path="url(#SVGID_2_)">
		<path d="M30,15c0,8.3-6.7,15-15,15h0C6.7,30,0,23.3,0,15C0,6.7,6.7,0,15,0h0C23.3,0,30,6.7,30,15z"/>
		<path fill="#0C0C0C" d="M15,0v30C6.7,30,0,23.3,0,15C0,6.7,6.7,0,15,0z"/>
		<path fill="#FD2854" d="M23.2,10.8l0,3.1c-0.6,0-1.2-0.1-1.8-0.2c-0.9-0.2-1.7-0.6-2.5-1.2c0,0.3,0,0.8,0,1.4c0,0.8,0,1.2,0,1.6
			c0,2.8,0.1,3.4-0.2,4.5c-0.1,0.3-0.1,0.5-0.2,0.8c-0.5,1.3-1.5,2.4-2.6,3c-0.3,0.2-0.6,0.3-0.9,0.4c-2,0.6-4.4,0.1-5.7-1.4l0,0
			l0,0C8.2,21.4,8,19.5,8,18.9c0-0.1,0-0.1,0-0.1c0-0.7,0.1-1.4,0.3-2c0.2-0.7,0.9-2.1,2.5-3c1-0.5,2.1-0.7,3.2-0.6l0,3.1
			c-0.1,0-1.6-0.4-2.6,0.7c-0.9,0.9-0.8,2.4-0.2,3.3c0,0,0.1,0.1,0.1,0.1c0.4,0.4,0.8,0.5,1.1,0.7c0.4,0.1,0.8,0.2,1.3,0.2
			c0.5,0,0.9-0.2,1.3-0.4c1-0.7,1.2-2,1.2-2c0-4.1,0-8.1,0-12.2v0l2,0h0l0.3,0c0.2,0.8,0.6,1.5,1,2.1c0.2,0.2,0.3,0.4,0.5,0.5
			c0.7,0.6,1.4,1.1,2.3,1.4h0C22.5,10.7,22.8,10.8,23.2,10.8z"/>
		<path fill="#24F6FA" d="M22.3,12.2L22.3,12.2c-1.1,0.2-2.1,0.1-3.2-0.2c-0.7-0.2-1.4-0.6-2-1c0.4,2.2,0.4,4.4,0,6.5
			c-0.4,2.5-0.7,4.1-2.1,5.1c0,0-0.1,0-0.1,0.1c-2,1.3-4.7,0.7-5.7,0l0,0l0,0c-0.3-0.2-0.6-0.5-0.9-0.7c-0.5-0.5-0.9-1.1-1.2-1.7
			c-0.3-0.7-0.4-1.4-0.4-2.1c0-0.7,0.1-1.5,0.4-2.2c0.2-0.4,0.8-2,2.5-3c1.1-0.6,2.4-0.8,3.6-0.6c0,0.2,0,0.5,0,0.7v0l0,1.6
			c-0.5-0.1-1.1-0.2-1.6-0.1c-0.4,0.1-0.9,0.1-1.3,0.4c-0.6,0.4-1,1-1.2,1.7c-0.1,0.3-0.1,0.7-0.1,1c0,0.1,0.1,0.8,0.7,1.3
			c0.2,0.2,0.3,0.2,0.5,0.4c0.2,0.2,0.3,0.3,0.5,0.5c0,0,0.1,0,0.1,0.1c0,0,0,0,0,0c0.1,0.1,0.2,0.2,0.4,0.2c0.5,0.3,1.5,0.3,2.2,0
			c1-0.5,1.5-1.6,1.5-2.2c0-4.1,0-8.1,0-12.2H15l3,0c0,0.2,0,0.5,0.1,0.7c0,0,0,0,0,0.1c0,0,0,0,0,0.1c0,0.1,0.1,0.2,0.2,0.4l0,0.1
			v0c0,0,0,0,0,0l0,0l0,0c0,0,0,0,0,0c0,0,0,0,0,0c0,0.1,0.1,0.1,0.1,0.2c0,0,0.1,0.1,0.1,0.1l0,0.1c0,0,0,0.1,0,0.1l0.1,0.1
			c0.2,0.4,0.6,1,1.2,1.4c0.8,0.6,1.7,0.8,2.3,0.9c0,0.2,0,0.4,0,0.5C22.3,11.1,22.3,11.7,22.3,12.2z"/>
		<path fill="#FFFFFF" d="M22.3,13.1c-1.5,0.1-3-0.4-4.2-1.3v6.5c0,0.2-0.2,3-2.7,4.5c-0.1,0.1-0.2,0.1-0.4,0.2
			c-2.3,1.2-4.6,0.3-4.8,0.2c-0.2-0.1-0.4-0.2-0.6-0.3c-0.1,0-0.1-0.1-0.2-0.1l-0.1,0c-1.5-1.2-1.6-3.5-1.6-3.9c0-0.7,0.1-1.4,0.3-2
			c0.3-0.8,1-2.2,2.5-3c0.8-0.5,1.8-0.7,2.7-0.7v0c0,0.8,0,1.6,0,2.3c-0.2,0-1.1-0.3-2.1,0.3c-0.6,0.4-1,1-1.2,1.7
			c-0.1,0.3-0.1,0.7-0.1,1c0.1,0.4,0.3,0.8,0.6,1.1c0.1,0.1,0.3,0.3,0.4,0.4c0,0,0,0,0,0c0.1,0.1,0.2,0.2,0.4,0.2l0,0
			c0.3,0.4,0.6,0.7,1.1,0.9c0.4,0.2,0.9,0.2,1.4,0.1c0.2,0,0.4-0.1,0.6-0.2c0.2-0.1,0.5-0.3,0.7-0.5c0.7-0.7,0.9-1.7,0.9-1.8l0-12.2
			l0.3,0l2,0h0c0,0,0,0,0,0.1c0,0.1,0.1,0.2,0.2,0.4l0,0.1v0c0,0,0,0,0,0l0,0l0,0c0,0,0,0,0,0c0,0,0,0,0,0c0,0.1,0.1,0.1,0.1,0.2
			c0,0,0.1,0.1,0.1,0.1l0,0.1l0,0.1l0.1,0.1c0.3,0.5,0.7,1,1.2,1.4c0.7,0.6,1.5,1.1,2.3,1.4h0c0,0.5,0,1.1,0,1.6L22.3,13.1z"/>
		<path opacity="0.17" enable-background="new    " d="M23.2,10.8l0,3.1c-0.6,0-1.2-0.1-1.8-0.2c-0.9-0.2-1.7-0.6-2.5-1.2
			c0,0.3,0,0.8,0,1.4c0,0.8,0,1.2,0,1.6c0,2.8,0.1,3.4-0.2,4.5c-0.1,0.3-0.1,0.5-0.2,0.8c-0.5,1.3-1.5,2.4-2.6,3
			c-0.3,0.2-0.6,0.3-0.9,0.4V5.8l3,0c0,0.2,0,0.5,0.1,0.7c0,0,0,0,0,0.1l0.3,0c0.2,0.8,0.6,1.5,1,2.1c0.2,0.2,0.3,0.4,0.5,0.5
			c0.8,0.6,1.7,0.8,2.3,0.9c0,0.2,0,0.4,0,0.5C22.5,10.7,22.8,10.8,23.2,10.8z"/>
	</g>
</g>
</svg>
