<svg width="120" height="120" viewBox="0 0 120 120" fill="none" xmlns="http://www.w3.org/2000/svg">
<path d="M71.6297 115.322C70.3496 115.592 69.0392 115.819 67.7309 116L68.2841 120C69.6833 119.798 71.0886 119.562 72.4615 119.273L71.6297 115.322Z" fill="black"/>
<path d="M108.669 88.6705C101.337 101.176 89.4677 110.375 75.5285 114.355L76.6389 118.237C91.5741 113.973 104.291 104.117 112.146 90.7178L108.669 88.6705Z" fill="black"/>
<path d="M51.5786 0C50.1794 0.201905 48.7741 0.438133 47.4012 0.726857L48.233 4.67813C49.5131 4.40758 50.8234 4.18144 52.1318 3.99973L51.5786 0Z" fill="black"/>
<path d="M43.2238 1.76257C28.2886 6.02655 15.5717 15.883 7.71681 29.2822L11.1936 31.3295C18.5258 18.824 30.395 9.62525 44.3342 5.6452L43.2238 1.76257Z" fill="black"/>
<path d="M71.7688 8.69983C43.4756 2.20002 15.2703 19.8669 8.7705 48.1603C2.30021 76.325 19.7794 104.431 47.9019 111.082L47.9806 111.266L48.231 111.159C76.5242 117.658 104.729 99.9915 111.229 71.6981C117.729 43.405 100.062 15.1996 71.7688 8.69983ZM13.5511 45.9858C16.957 34.7309 24.3411 25.0995 34.3258 18.8882C35.1635 22.6885 36.9069 26.23 39.4078 29.2116L33.6232 34.9982C25.5962 43.0186 25.5909 56.0273 33.6113 64.0543C37.3001 67.7461 42.2556 69.8959 47.4718 70.067C40.6888 79.0732 39.2634 91.0277 43.7386 101.376L45.8808 106.373C20.2776 98.6254 5.80301 71.5891 13.5511 45.9858ZM50.779 107.581L47.4375 99.7853C43.0951 89.7214 45.1792 78.0372 52.7335 70.0952H70.0266V66.0572H48.1603C39.0368 66.0592 31.6387 58.6649 31.6367 49.5411C31.6357 45.157 33.3774 40.9523 36.4781 37.8531L42.2566 32.0726C42.3091 32.117 42.3556 32.1675 42.4081 32.2099C46.7367 35.8128 52.1896 37.7872 57.8215 37.7905H70.0266V33.7524H57.8215C48.2709 33.7537 40.0476 27.0121 38.1761 17.6465L38.0065 16.8086C53.4386 8.94161 71.9023 9.94306 86.393 19.4333V19.4374L87.2935 26.6413C88.7109 37.9838 80.6647 48.3279 69.3222 49.745C68.4709 49.8515 67.6138 49.9048 66.7557 49.9048H49.8361V53.9429H66.7557C71.4026 53.9297 75.9515 52.6058 79.8796 50.1228L84.9817 53.3129C91.7972 57.5567 93.8819 66.5218 89.6381 73.3373C86.9836 77.6003 82.3171 80.1915 77.2952 80.1905H57.9123V84.2286H64.979C62.353 91.7364 63.5462 100.052 68.1772 106.519L68.9505 107.601C62.9471 108.75 56.7796 108.743 50.779 107.581ZM73.1965 106.596L71.4662 104.173C67.3138 98.3553 66.5102 90.7884 69.3482 84.2286H77.2952C87.554 84.244 95.883 75.9401 95.8984 65.6814C95.908 59.2568 92.5973 53.2832 87.1441 49.8866L83.3301 47.5041C89.3602 42.1405 92.3477 34.1418 91.3094 26.1386L90.8854 22.7426C101.976 31.936 108.393 45.5941 108.388 60C108.358 81.6409 94.0038 100.647 73.1965 106.596Z" fill="black"/>
<path d="M23.5885 41.8286H19.5504V45.8667H23.5885V41.8286Z" fill="black"/>
<path d="M19.5504 62.019H15.5123V66.0571H19.5504V62.019Z" fill="black"/>
<path d="M35.7028 72.1143H31.6647V76.1524H35.7028V72.1143Z" fill="black"/>
<path d="M98.2932 41.8286H94.2551V45.8667H98.2932V41.8286Z" fill="black"/>
<path d="M33.6838 88.2667H29.6457V92.3048H33.6838V88.2667Z" fill="black"/>
<path d="M98.2932 80.1904H94.2551V84.2285H98.2932V80.1904Z" fill="black"/>
<path d="M104.35 60H100.312V64.0381H104.35V60Z" fill="black"/>
</svg>
