<svg width="120" height="120" viewBox="0 0 120 120" fill="none" xmlns="http://www.w3.org/2000/svg">
<path d="M106.508 16.1543L108.464 21.6558C108.548 21.8913 108.714 22.0779 108.923 22.1723L113.811 24.3745C114.501 24.6858 114.501 25.7859 113.811 26.097L108.923 28.2991C108.714 28.3934 108.548 28.5802 108.464 28.8157L106.508 34.3172C106.231 35.0944 105.254 35.0944 104.977 34.3172L103.021 28.8157C102.937 28.5802 102.771 28.3936 102.562 28.2991L97.6743 26.097C96.9838 25.7859 96.9838 24.6856 97.6743 24.3745L102.562 22.1723C102.771 22.0781 102.937 21.8913 103.021 21.6558L104.977 16.1543C105.254 15.3771 106.231 15.3771 106.508 16.1543Z" fill="black"/>
<path d="M33.3785 0.432422L34.8298 4.51336C34.8919 4.68797 35.0149 4.82648 35.1701 4.89656L38.7959 6.53016C39.3082 6.76102 39.3082 7.57711 38.7959 7.80773L35.1701 9.44133C35.0149 9.51117 34.8919 9.64969 34.8298 9.82453L33.3785 13.9055C33.1734 14.482 32.4483 14.482 32.2432 13.9055L30.7919 9.82453C30.7298 9.64992 30.6068 9.51141 30.4516 9.44133L26.8259 7.80773C26.3137 7.57687 26.3137 6.76078 26.8259 6.53016L30.4516 4.89656C30.6068 4.82672 30.7298 4.6882 30.7919 4.51336L32.2432 0.432422C32.4483 -0.144141 33.1734 -0.144141 33.3785 0.432422V0.432422Z" fill="black"/>
<path d="M92.639 8.95358C92.639 10.5412 91.3521 11.8282 89.7644 11.8282C88.1768 11.8282 86.8896 10.541 86.8896 8.95358C86.8896 7.36592 88.1765 6.07874 89.7644 6.07874C91.3521 6.07874 92.639 7.36569 92.639 8.95358Z" fill="black"/>
<path d="M14.164 24.9669C14.164 27.312 12.2627 29.2133 9.91755 29.2133C7.57239 29.2133 5.67114 27.312 5.67114 24.9669C5.67114 22.6217 7.57239 20.7205 9.91755 20.7205C12.2627 20.7207 14.164 22.6217 14.164 24.9669V24.9669Z" fill="black"/>
<path d="M58.0108 120C31.241 120 9.46237 98.2212 9.46237 71.4516C9.46237 44.682 31.241 22.9032 58.0108 22.9032C84.7806 22.9032 106.559 44.682 106.559 71.4516C106.559 98.2212 84.7804 120 58.0108 120V120ZM58.0108 27.6169C33.8402 27.6169 14.1764 47.281 14.1764 71.4514C14.1764 95.6218 33.8404 115.286 58.0108 115.286C82.1812 115.286 101.845 95.622 101.845 71.4516C101.845 47.2812 82.1812 27.6169 58.0108 27.6169V27.6169Z" fill="black"/>
<path d="M47.0913 60.5834C45.7898 60.5834 44.7344 59.5283 44.7344 58.2265C44.7344 54.6092 41.7916 51.6664 38.1745 51.6664C34.5572 51.6664 31.6144 54.6092 31.6144 58.2265C31.6144 59.5283 30.559 60.5834 29.2575 60.5834C27.956 60.5834 26.9006 59.5283 26.9006 58.2265C26.9006 52.01 31.9582 46.9526 38.1747 46.9526C44.3911 46.9526 49.4487 52.0102 49.4487 58.2265C49.4482 59.5283 48.3928 60.5834 47.0913 60.5834Z" fill="black"/>
<path d="M86.7644 60.5834C85.4629 60.5834 84.4075 59.5283 84.4075 58.2265C84.4075 54.6092 81.4647 51.6664 77.8473 51.6664C74.2302 51.6664 71.2874 54.6092 71.2874 58.2265C71.2874 59.5283 70.232 60.5834 68.9305 60.5834C67.6291 60.5834 66.5737 59.5283 66.5737 58.2265C66.5737 52.01 71.6312 46.9526 77.8476 46.9526C84.0641 46.9526 89.1217 52.0102 89.1217 58.2265C89.1212 59.5283 88.0659 60.5834 86.7644 60.5834V60.5834Z" fill="black"/>
<path d="M89.3781 69.9692H26.6435C25.342 69.9692 24.2866 71.0244 24.2866 72.3261C24.2866 90.9217 39.4153 106.05 58.0108 106.05C76.6064 106.05 91.735 90.9217 91.735 72.3261C91.735 71.0246 90.6796 69.9692 89.3781 69.9692ZM40.1062 95.1346C43.323 89.9785 50.2617 86.6162 58.0108 86.6162C65.7597 86.6162 72.6984 89.9785 75.9154 95.1346C70.9809 99.0167 64.762 101.337 58.0108 101.337C51.2596 101.337 45.0407 99.0167 40.1062 95.1346V95.1346ZM79.4104 91.8903C75.1628 85.8128 66.9935 81.9024 58.0106 81.9024C49.0274 81.9024 40.8574 85.8123 36.6103 91.8899C32.3845 87.2713 29.6285 81.2865 29.0948 74.6832H86.9261C86.3927 81.2867 83.6367 87.2717 79.4104 91.8903Z" fill="black"/>
</svg>
