<svg width="74" height="112" viewBox="0 0 74 112" fill="none" xmlns="http://www.w3.org/2000/svg">
<path d="M55.5 60.625V44.4375C55.5 43.161 54.4663 42.125 53.1875 42.125H37C26.7996 42.125 18.5 50.4246 18.5 60.625V76.8125C18.5 77.1131 18.5601 77.4137 18.6781 77.6959C18.9139 78.2624 19.3626 78.7111 19.9291 78.9469C20.2113 79.0649 20.5119 79.125 20.8125 79.125H37C47.2004 79.125 55.5 70.8254 55.5 60.625V60.625ZM37 46.75H50.875V60.625C50.875 68.2771 44.6521 74.5 37 74.5H26.3949L35.6449 65.25H43.9375C45.2163 65.25 46.25 64.2163 46.25 62.9375C46.25 61.6587 45.2163 60.625 43.9375 60.625H40.2699L45.5724 55.3224C46.4766 54.4182 46.4766 52.9567 45.5724 52.0526C44.6683 51.1484 43.2068 51.1484 42.3026 52.0526L37 57.3551V53.6875C37 52.411 35.964 51.375 34.6875 51.375C33.411 51.375 32.375 52.411 32.375 53.6875V61.9801L23.125 71.2301V60.625C23.125 52.9729 29.3479 46.75 37 46.75Z" fill="black"/>
<path d="M73.3224 24.3026L64.0724 15.0526C63.6377 14.6201 63.0526 14.375 62.4375 14.375H55.5V2.8125C55.5 1.536 54.4663 0.5 53.1875 0.5H20.8125C19.536 0.5 18.5 1.536 18.5 2.8125V14.375H11.5625C10.9497 14.375 10.36 14.6201 9.92756 15.0526L0.677561 24.3026C0.242811 24.735 0 25.3247 0 25.9375V109.188C0 110.466 1.036 111.5 2.3125 111.5H39.3125C40.5913 111.5 41.625 110.466 41.625 109.188C41.625 107.909 40.5913 106.875 39.3125 106.875H4.625V93H20.8125C22.089 93 23.125 91.9663 23.125 90.6875C23.125 89.4087 22.089 88.375 20.8125 88.375H4.625V26.8949L12.5199 19H18.5V30.5625C18.5 31.839 19.536 32.875 20.8125 32.875H53.1875C54.4663 32.875 55.5 31.839 55.5 30.5625V19H61.4801L69.375 26.8949V88.375H34.6875C33.411 88.375 32.375 89.4087 32.375 90.6875C32.375 91.9663 33.411 93 34.6875 93H69.375V106.875H53.1875C51.9087 106.875 50.875 107.909 50.875 109.188C50.875 110.466 51.9087 111.5 53.1875 111.5H71.6875C72.9663 111.5 74 110.466 74 109.188V25.9375C74 25.3247 73.7549 24.735 73.3224 24.3026ZM50.875 28.25H23.125V5.125H50.875V28.25Z" fill="black"/>
<path d="M46.25 111.5C47.5271 111.5 48.5625 110.465 48.5625 109.188C48.5625 107.91 47.5271 106.875 46.25 106.875C44.9728 106.875 43.9375 107.91 43.9375 109.188C43.9375 110.465 44.9728 111.5 46.25 111.5Z" fill="black"/>
<path d="M27.75 93C29.0272 93 30.0625 91.9647 30.0625 90.6875C30.0625 89.4103 29.0272 88.375 27.75 88.375C26.4728 88.375 25.4375 89.4103 25.4375 90.6875C25.4375 91.9647 26.4728 93 27.75 93Z" fill="black"/>
</svg>
