<svg width="90" height="50" viewBox="0 0 90 50" fill="none" xmlns="http://www.w3.org/2000/svg">
<path d="M85 1H5C2.79086 1 1 2.79086 1 5V45C1 47.2091 2.79086 49 5 49H85C87.2091 49 89 47.2091 89 45V5C89 2.79086 87.2091 1 85 1Z" fill="white" stroke="black" stroke-width="2"/>
<path d="M25.9631 15.2231C25.2599 16.0676 24.1348 16.7336 23.0097 16.6384C22.869 15.4967 23.4199 14.2835 24.0645 13.5343C24.7677 12.666 25.9983 12.0476 26.9945 12C27.1117 13.1893 26.6546 14.3549 25.9631 15.2231ZM26.9828 16.8644C25.3537 16.7693 23.959 17.804 23.1855 17.804C22.4002 17.804 21.2165 16.912 19.9273 16.9358C18.2513 16.9596 16.6925 17.9229 15.837 19.4572C14.079 22.5257 15.3799 27.069 17.0793 29.5666C17.9114 30.8035 18.9076 32.1594 20.2203 32.1118C21.4626 32.0642 21.9549 31.2912 23.455 31.2912C24.9669 31.2912 25.4006 32.1118 26.7132 32.088C28.0727 32.0642 28.9283 30.8511 29.7604 29.6142C30.7098 28.2108 31.0965 26.843 31.12 26.7716C31.0965 26.7479 28.4947 25.7369 28.4712 22.6922C28.4478 20.147 30.5222 18.9339 30.616 18.8625C29.444 17.1023 27.6157 16.912 26.9828 16.8644ZM36.394 13.4153V31.9572H39.2303V25.618H43.1565C46.7429 25.618 49.2627 23.1204 49.2627 19.5048C49.2627 15.8892 46.7897 13.4153 43.2503 13.4153H36.394ZM39.2303 15.8416H42.5002C44.9614 15.8416 46.3678 17.1736 46.3678 19.5167C46.3678 21.8597 44.9614 23.2036 42.4885 23.2036H39.2303V15.8416ZM54.443 32.0999C56.2244 32.0999 57.8769 31.1841 58.627 29.7331H58.6856V31.9572H61.3109V22.7279C61.3109 20.0519 59.2013 18.3273 55.9548 18.3273C52.9428 18.3273 50.716 20.0756 50.6339 22.4781H53.1889C53.3999 21.3363 54.443 20.5871 55.8728 20.5871C57.6074 20.5871 58.5801 21.4077 58.5801 22.9182V23.941L55.0407 24.1551C51.7473 24.3573 49.9659 25.725 49.9659 28.1037C49.9659 30.5062 51.8059 32.0999 54.443 32.0999ZM55.2048 29.8996C53.6929 29.8996 52.7318 29.1622 52.7318 28.0324C52.7318 26.8668 53.6577 26.1889 55.4274 26.0818L58.5801 25.8796V26.9263C58.5801 28.6627 57.1269 29.8996 55.2048 29.8996ZM64.8152 37C67.5812 37 68.8821 35.9296 70.019 32.6827L75 18.5057H72.1169L68.7766 29.4596H68.718L65.3778 18.5057H62.4126L67.2179 32.0048L66.96 32.8254C66.5264 34.2169 65.8232 34.7521 64.5691 34.7521C64.3464 34.7521 63.9128 34.7284 63.737 34.7046V36.9286C63.9011 36.9762 64.6043 37 64.8152 37Z" fill="black"/>
</svg>
