<svg width="70" height="70" viewBox="0 0 70 70" fill="none" xmlns="http://www.w3.org/2000/svg">
<g clip-path="url(#clip0_179:863)">
<path d="M15.99 33.1769C10.3983 33.1769 5.84912 37.7261 5.84912 43.3179C5.84912 48.9097 10.3983 53.4588 15.99 53.4588C21.5816 53.4588 26.1309 48.9097 26.1309 43.3179C26.1309 37.7261 21.5816 33.1769 15.99 33.1769ZM15.99 50.7243C11.906 50.7243 8.5835 47.4017 8.5835 43.3178C8.5835 39.2339 11.906 35.9112 15.99 35.9112C20.074 35.9112 23.3966 39.2339 23.3966 43.3178C23.3966 47.4017 20.0739 50.7243 15.99 50.7243Z" fill="#64C4D6"/>
<path d="M67.8878 35.3814C67.8777 35.3618 67.8688 35.3419 67.8578 35.3226L56.6748 15.953C54.2547 11.7613 49.7634 9.8371 45.2325 11.051C41.9769 11.9234 39.5784 14.1917 38.5603 17.1678C37.4158 17.5465 36.2212 17.7393 35.0003 17.7393C33.7757 17.7393 32.5776 17.5455 31.4301 17.1646C30.4409 14.3098 28.1737 12.0854 25.1082 11.1493C20.7854 9.82903 16.3324 11.4409 13.7629 15.2554C13.3411 15.8817 13.5067 16.7312 14.133 17.1532C14.7594 17.5751 15.6088 17.4095 16.0308 16.7831C18.3181 13.3873 21.9198 13.0349 24.3096 13.7645C26.696 14.4933 29.2459 16.6401 29.2459 20.4798V23.8113C28.43 24.2851 27.8788 25.1662 27.8788 26.1757V29.5937C27.8788 30.6032 28.43 31.4845 29.2459 31.9581V34.384C26.3695 30.1298 21.501 27.3277 15.9903 27.3277C13.4771 27.3277 11.098 27.9112 8.97993 28.9488L9.90482 27.347C10.2824 26.6931 10.0584 25.8571 9.40444 25.4794C8.75065 25.102 7.91434 25.3259 7.53686 25.9798L2.14237 35.3226C2.1313 35.3419 2.12241 35.3618 2.1123 35.3814C0.768903 37.7213 0 40.4313 0 43.3177C0 52.1347 7.17306 59.3078 15.9902 59.3078C22.0202 59.3078 27.2808 55.9521 30.0042 51.0105C31.5323 50.1921 33.2559 49.7589 35.0001 49.7589C36.7445 49.7589 38.4683 50.1922 39.9961 51.0106C42.7195 55.9521 47.98 59.3078 54.0101 59.3078C62.8271 59.3078 70.0001 52.1347 70.0001 43.3177C70 40.4313 69.2312 37.7213 67.8878 35.3814ZM45.9402 13.6923C48.446 13.0206 52.1405 13.5681 54.3067 17.3202L61.0203 28.9487C58.9023 27.9111 56.5231 27.3276 54.01 27.3276C48.4993 27.3276 43.6306 30.1296 40.7542 34.3839V31.958C41.5701 31.4842 42.1214 30.6031 42.1214 29.5936V26.1756C42.1214 25.1661 41.5701 24.2849 40.7542 23.8112V20.4797C40.7543 16.4954 43.5479 14.3332 45.9402 13.6923ZM30.613 29.5937L30.6127 26.1757H39.3873V29.5937H30.613ZM35 20.4736C36.0265 20.4736 37.0381 20.3608 38.0264 20.1439C38.023 20.2554 38.0198 20.3671 38.0198 20.4798V23.4414H31.98V20.4798C31.98 20.3673 31.9772 20.2556 31.9736 20.144C32.9621 20.3608 33.9735 20.4736 35 20.4736ZM15.9902 56.5734C8.68092 56.5734 2.73436 50.6268 2.73436 43.3177C2.73436 36.0087 8.68092 30.0621 15.9902 30.0621C23.2994 30.0621 29.2458 36.0085 29.2458 43.3177C29.2458 50.627 23.2992 56.5734 15.9902 56.5734ZM35 47.0246C33.7866 47.0246 32.581 47.1925 31.4198 47.5155C31.7843 46.1772 31.98 44.77 31.98 43.3176V32.3279H38.0198V43.3176C38.0198 44.7698 38.2156 46.1771 38.5801 47.5154C37.4191 47.1925 36.2135 47.0246 35 47.0246ZM54.01 56.5734C46.7008 56.5734 40.7542 50.627 40.7542 43.3177C40.7542 36.0085 46.7008 30.0621 54.01 30.0621C61.3192 30.0621 67.2656 36.0085 67.2656 43.3177C67.2656 50.627 61.3192 56.5734 54.01 56.5734Z" fill="#64C4D6"/>
<path d="M54.0105 33.1768C48.4188 33.1768 43.8696 37.726 43.8696 43.3178C43.8696 48.9096 48.4188 53.4587 54.0105 53.4587C59.6021 53.4587 64.1514 48.9096 64.1514 43.3178C64.1514 37.726 59.6021 33.1768 54.0105 33.1768ZM54.0105 50.7241C49.9265 50.7241 46.604 47.4016 46.604 43.3177C46.604 39.2337 49.9265 35.9111 54.0105 35.9111C58.0945 35.9111 61.4171 39.2337 61.4171 43.3177C61.4171 47.4016 58.0944 50.7241 54.0105 50.7241Z" fill="#64C4D6"/>
<path d="M11.7968 22.7015C12.5519 22.7015 13.164 22.0893 13.164 21.3344C13.164 20.5794 12.5519 19.9672 11.7968 19.9672H11.7958C11.0407 19.9672 10.4292 20.5794 10.4292 21.3344C10.4292 22.0893 11.0417 22.7015 11.7968 22.7015Z" fill="#64C4D6"/>
</g>
<defs>
<clipPath id="clip0_179:863">
<rect width="70" height="70" fill="white"/>
</clipPath>
</defs>
</svg>
