<svg width="96" height="50" viewBox="0 0 96 50" fill="none" xmlns="http://www.w3.org/2000/svg">
<path d="M91 1H5C2.79086 1 1 2.79086 1 5V45C1 47.2091 2.79086 49 5 49H91C93.2091 49 95 47.2091 95 45V5C95 2.79086 93.2091 1 91 1Z" fill="white" stroke="#5F6368" stroke-width="2"/>
<path d="M46.0015 16.8297V23.3944H50.047C51.0033 23.3944 51.8124 23.0634 52.4376 22.4198C53.0812 21.7762 53.4122 21.0039 53.4122 20.1029C53.4122 19.2202 53.0812 18.4663 52.4376 17.8227C51.8124 17.1607 51.0033 16.8297 50.047 16.8297H46.0015ZM46.0015 25.7114V33.3243H43.5742V14.5127H49.9919C51.6285 14.5127 53.0076 15.0644 54.1477 16.1493C55.3062 17.2342 55.8947 18.5582 55.8947 20.1212C55.8947 21.7211 55.3246 23.0451 54.1477 24.1116C53.026 25.1781 51.6469 25.7114 49.9919 25.7114H46.0015Z" fill="#5F6368"/>
<path d="M58.3396 29.3891C58.3396 30.0144 58.6154 30.5476 59.1487 30.9706C59.6819 31.3935 60.3072 31.5958 61.0243 31.5958C62.0357 31.5958 62.9551 31.2096 63.7458 30.4741C64.5366 29.7201 64.9411 28.8375 64.9411 27.8261C64.1872 27.2377 63.139 26.9251 61.7783 26.9251C60.8037 26.9251 59.9762 27.1641 59.3142 27.6422C58.6706 28.1019 58.3396 28.6904 58.3396 29.3891ZM61.4656 20.0293C63.2493 20.0293 64.6653 20.5074 65.695 21.4636C66.7248 22.4198 67.2397 23.7254 67.2397 25.3988V33.3427H64.9227V31.559H64.8124C63.8194 33.0301 62.477 33.7657 60.822 33.7657C59.4061 33.7657 58.2108 33.3427 57.2546 32.4968C56.2984 31.651 55.8203 30.6028 55.8203 29.334C55.8203 28.01 56.3168 26.9435 57.3282 26.1527C58.3396 25.362 59.6819 24.9759 61.3737 24.9759C62.808 24.9759 64.0033 25.2333 64.9227 25.7666V25.2149C64.9227 24.369 64.5917 23.6519 63.9297 23.0818C63.2677 22.4934 62.477 22.1992 61.5944 22.1992C60.252 22.1992 59.1671 22.7692 58.3763 23.9093L56.2433 22.5669C57.4385 20.8752 59.1671 20.0293 61.4656 20.0293Z" fill="#5F6368"/>
<path d="M80.5468 20.4453L72.4558 38.9995H69.9733L72.9706 32.5083L67.6562 20.4453H70.2859L74.1292 29.7132H74.1842L77.9173 20.4453H80.5468Z" fill="#5F6368"/>
<path d="M36.2216 24.0699C36.2216 23.316 36.1481 22.5804 36.0378 21.8633H25.832V26.0191H31.6796C31.4222 27.3983 30.6683 28.5384 29.5098 29.3107V32.0138H33.0036C35.0448 30.1382 36.2216 27.3615 36.2216 24.0699Z" fill="#4285F4"/>
<path d="M25.8326 34.6241C28.7564 34.6241 31.2205 33.6679 33.0042 32.0129L29.5104 29.3098C28.5358 29.9718 27.2853 30.3395 25.8326 30.3395C23.0008 30.3395 20.6102 28.4455 19.7643 25.8711H16.1602V28.6478C17.9439 32.2152 21.6032 34.6241 25.8326 34.6241Z" fill="#34A853"/>
<path d="M19.7627 25.8906C19.542 25.2286 19.4317 24.5482 19.4317 23.8126C19.4317 23.0955 19.5604 22.3967 19.7627 21.7347V18.958H16.1585C15.4229 20.4291 15 22.0657 15 23.8126C15 25.5596 15.4229 27.2145 16.1585 28.6672L19.7627 25.8906Z" fill="#FABB05"/>
<path d="M25.8326 17.2846C27.4324 17.2846 28.8668 17.8362 29.9885 18.9028L33.0778 15.8319C31.2021 14.0849 28.7564 13 25.8326 13C21.6032 13 17.9439 15.4273 16.1602 18.9579L19.746 21.7346C20.6102 19.1786 23.0191 17.2846 25.8326 17.2846Z" fill="#E94235"/>
</svg>
