<svg width="69" height="52" viewBox="0 0 69 52" fill="none" xmlns="http://www.w3.org/2000/svg">
<g clip-path="url(#clip0_175:846)">
<path d="M12.3718 51.8857V48.4344C12.3718 47.1114 11.5547 46.2485 10.1538 46.2485C9.45339 46.2485 8.6946 46.4786 8.16928 47.2264C7.7607 46.5937 7.17701 46.2485 6.30148 46.2485C5.71779 46.2485 5.1341 46.4211 4.66715 47.0539V46.3636H3.44141V51.8857H4.66715V48.8371C4.66715 47.8592 5.19247 47.399 6.00963 47.399C6.82679 47.399 7.23538 47.9167 7.23538 48.8371V51.8857H8.46112V48.8371C8.46112 47.8592 9.04481 47.399 9.8036 47.399C10.6208 47.399 11.0293 47.9167 11.0293 48.8371V51.8857H12.3718ZM30.5245 46.3636H28.54V44.6954H27.3142V46.3636H26.2052V47.4565H27.3142V49.9875C27.3142 51.253 27.8396 52.0008 29.2404 52.0008C29.7657 52.0008 30.3494 51.8282 30.758 51.5981L30.4078 50.5627C30.0576 50.7928 29.649 50.8503 29.3571 50.8503C28.7735 50.8503 28.54 50.5052 28.54 49.93V47.4565H30.5245V46.3636ZM40.9142 46.2485C40.2137 46.2485 39.7468 46.5937 39.4549 47.0539V46.3636H38.2292V51.8857H39.4549V48.7795C39.4549 47.8592 39.8635 47.3415 40.6223 47.3415C40.8558 47.3415 41.1476 47.399 41.3811 47.4565L41.7313 46.3061C41.4978 46.2485 41.1476 46.2485 40.9142 46.2485ZM25.213 46.8238C24.6293 46.4211 23.8121 46.2485 22.9366 46.2485C21.5357 46.2485 20.6018 46.9388 20.6018 48.0317C20.6018 48.9521 21.3022 49.4698 22.528 49.6424L23.1117 49.6999C23.7537 49.8149 24.104 49.9875 24.104 50.2751C24.104 50.6778 23.637 50.9654 22.8198 50.9654C22.0027 50.9654 21.3606 50.6778 20.952 50.3902L20.3684 51.3105C21.0104 51.7707 21.8859 52.0008 22.7615 52.0008C24.3958 52.0008 25.3297 51.253 25.3297 50.2176C25.3297 49.2397 24.5709 48.722 23.4035 48.5494L22.8198 48.4919C22.2945 48.4344 21.8859 48.3194 21.8859 47.9742C21.8859 47.5716 22.2945 47.3415 22.9366 47.3415C23.637 47.3415 24.3374 47.6291 24.6876 47.8016L25.213 46.8238ZM57.7827 46.2485C57.0823 46.2485 56.6154 46.5937 56.3235 47.0539V46.3636H55.0978V51.8857H56.3235V48.7795C56.3235 47.8592 56.7321 47.3415 57.4909 47.3415C57.7244 47.3415 58.0162 47.399 58.2497 47.4565L58.5999 46.3061C58.3664 46.2485 58.0162 46.2485 57.7827 46.2485ZM42.1399 49.1247C42.1399 50.7928 43.3073 52.0008 45.1167 52.0008C45.9339 52.0008 46.5176 51.8282 47.1012 51.368L46.5176 50.3902C46.0506 50.7353 45.5837 50.9079 45.0583 50.9079C44.0661 50.9079 43.3656 50.2176 43.3656 49.1247C43.3656 48.0893 44.0661 47.399 45.0583 47.3415C45.5837 47.3415 46.0506 47.514 46.5176 47.8592L47.1012 46.8813C46.5176 46.4211 45.9339 46.2485 45.1167 46.2485C43.3073 46.2485 42.1399 47.4565 42.1399 49.1247ZM53.4634 49.1247V46.3636H52.2377V47.0539C51.8291 46.5362 51.2454 46.2485 50.4866 46.2485C48.9107 46.2485 47.6849 47.4565 47.6849 49.1247C47.6849 50.7928 48.9107 52.0008 50.4866 52.0008C51.3038 52.0008 51.8875 51.7132 52.2377 51.1955V51.8857H53.4634V49.1247ZM48.969 49.1247C48.969 48.1468 49.6111 47.3415 50.6617 47.3415C51.654 47.3415 52.3544 48.0893 52.3544 49.1247C52.3544 50.1025 51.654 50.9079 50.6617 50.9079C49.6111 50.8503 48.969 50.1025 48.969 49.1247ZM34.3185 46.2485C32.6842 46.2485 31.5168 47.399 31.5168 49.1247C31.5168 50.8503 32.6842 52.0008 34.3769 52.0008C35.194 52.0008 36.0112 51.7707 36.6532 51.253L36.0695 50.3902C35.6026 50.7353 35.0189 50.9654 34.4352 50.9654C33.6764 50.9654 32.9176 50.6203 32.7425 49.6424H36.8867V49.1822C36.9451 47.399 35.8944 46.2485 34.3185 46.2485ZM34.3185 47.2839C35.0773 47.2839 35.6026 47.7441 35.7193 48.607H32.8009C32.9176 47.8592 33.443 47.2839 34.3185 47.2839ZM64.7286 49.1247V44.1777H63.5029V47.0539C63.0943 46.5362 62.5106 46.2485 61.7518 46.2485C60.1759 46.2485 58.9501 47.4565 58.9501 49.1247C58.9501 50.7928 60.1759 52.0008 61.7518 52.0008C62.569 52.0008 63.1527 51.7132 63.5029 51.1955V51.8857H64.7286V49.1247ZM60.2342 49.1247C60.2342 48.1468 60.8763 47.3415 61.9269 47.3415C62.9192 47.3415 63.6196 48.0893 63.6196 49.1247C63.6196 50.1025 62.9192 50.9079 61.9269 50.9079C60.8763 50.8503 60.2342 50.1025 60.2342 49.1247ZM19.2593 49.1247V46.3636H18.0336V47.0539C17.625 46.5362 17.0413 46.2485 16.2825 46.2485C14.7066 46.2485 13.4808 47.4565 13.4808 49.1247C13.4808 50.7928 14.7066 52.0008 16.2825 52.0008C17.0997 52.0008 17.6834 51.7132 18.0336 51.1955V51.8857H19.2593V49.1247ZM14.7066 49.1247C14.7066 48.1468 15.3486 47.3415 16.3993 47.3415C17.3915 47.3415 18.092 48.0893 18.092 49.1247C18.092 50.1025 17.3915 50.9079 16.3993 50.9079C15.3486 50.8503 14.7066 50.1025 14.7066 49.1247Z" fill="black"/>
<path d="M43.1948 4.42871H24.8086V36.9864H43.1948V4.42871Z" fill="#FF5F00"/>
<path d="M25.9741 20.7081C25.9741 14.093 29.126 8.22572 33.9706 4.42923C30.4101 1.66815 25.9157 0 21.0128 0C9.39737 0 0 9.26112 0 20.7081C0 32.1551 9.39737 41.4162 21.0128 41.4162C25.9157 41.4162 30.4101 39.748 33.9706 36.987C29.126 33.248 25.9741 27.3232 25.9741 20.7081Z" fill="#EB001B"/>
<path d="M68.0019 20.7081C68.0019 32.1551 58.6046 41.4162 46.9892 41.4162C42.0862 41.4162 37.5917 39.748 34.0312 36.987C38.9342 33.1905 42.0279 27.3232 42.0279 20.7081C42.0279 14.093 38.8759 8.22572 34.0312 4.42923C37.5917 1.66815 42.0862 0 46.9892 0C58.6046 0 68.0019 9.31864 68.0019 20.7081Z" fill="#F79E1B"/>
</g>
<defs>
<clipPath id="clip0_175:846">
<rect width="69" height="52" fill="white"/>
</clipPath>
</defs>
</svg>
