<?xml version="1.0" encoding="utf-8"?>
<!-- Generator: Adobe Illustrator 23.0.5, SVG Export Plug-In . SVG Version: 6.00 Build 0)  -->
<svg version="1.1" id="Слой_1" xmlns="http://www.w3.org/2000/svg" xmlns:xlink="http://www.w3.org/1999/xlink" x="0px" y="0px"
	 viewBox="0 0 110 31" enable-background="new 0 0 110 31" xml:space="preserve">
<path fill-rule="evenodd" clip-rule="evenodd" fill="#0F754E" d="M10.2,0c1,0,3.9-0.3,5.1,3.9c0.8,2.8,2.2,7.4,4,13.8H20
	c2-6.7,3.3-11.4,4-13.8C25.3-0.3,28.4,0,29.7,0l9.6,0v30h-9.8V12.3h-0.7L23.4,30H16l-5.5-17.7H9.8V30H0V0L10.2,0z M53.4,0v17.7h0.8
	l6.7-14.5C62.2,0.3,64.9,0,64.9,0h9.5v30h-10V12.3h-0.8l-6.5,14.5c-1.3,2.9-4.2,3.1-4.2,3.1h-9.5V0H53.4z M109.1,14.3
	c-1.4,4-5.8,6.8-10.7,6.8H88V30h-9.5V14.3H109.1z"/>
<linearGradient id="SVGID_1_" gradientUnits="userSpaceOnUse" x1="109.9981" y1="25.7959" x2="77.9141" y2="25.7959" gradientTransform="matrix(1 0 0 -1 0 32)">
	<stop  offset="0" style="stop-color:#1F5CD7"/>
	<stop  offset="1" style="stop-color:#02AEFF"/>
</linearGradient>
<path fill-rule="evenodd" clip-rule="evenodd" fill="url(#SVGID_1_)" d="M98.9,0h-21c0.5,6.7,6.3,12.4,12.2,12.4h19.7
	C110.9,6.9,107,0,98.9,0z"/>
</svg>
