<svg width="100" height="32" viewBox="0 0 100 32" fill="none" xmlns="http://www.w3.org/2000/svg">
<path d="M37.9674 0.564989L24.8755 31.5141H16.3336L9.89043 6.81403C9.50031 5.29622 9.16062 4.73755 7.97173 4.09601C6.02876 3.05018 2.82027 2.07205 0 1.4634L0.190274 0.564989H13.9417C15.6919 0.564989 17.2677 1.71964 17.6681 3.71893L21.0726 21.6296L29.4772 0.564989H37.9674ZM49.5147 0.564989L42.8334 31.5141H34.7525L41.4338 0.564989H49.5147ZM71.4346 21.4095C71.4684 13.2428 60.0386 12.7898 60.1133 9.14042C60.1407 8.03132 61.207 6.85009 63.5414 6.5483C64.6977 6.40025 67.8922 6.28194 71.5106 7.93388L72.9261 1.36723C70.9819 0.670647 68.4802 0 65.3682 0C57.3798 0 51.7604 4.2042 51.7157 10.2293C51.6633 14.6859 55.7293 17.1698 58.7871 18.6541C61.9368 20.17 62.9929 21.1444 62.9782 22.499C62.9559 24.5754 60.4632 25.4947 58.1454 25.5289C54.0813 25.5928 51.7252 24.4407 49.8461 23.5733L48.3795 30.3575C50.2701 31.2161 53.7544 31.962 57.3632 32C65.8553 32 71.4097 27.8439 71.4346 21.4095ZM92.5289 31.5141H100L93.4726 0.564989H86.5793C85.0245 0.564989 83.7181 1.45897 83.1384 2.8338L71.0132 31.5141H79.4989L81.182 26.8911H91.5494L92.5289 31.5141ZM83.5087 20.549L87.7637 8.92657L90.2079 20.549H83.5087Z" fill="#1A1F71"/>
</svg>
