<svg width="125" height="128" viewBox="0 0 125 128" fill="none" xmlns="http://www.w3.org/2000/svg">
<g clip-path="url(#clip0_278:692)">
<path d="M76.0445 121.251C73.7973 116.176 77.6797 114.475 80.9958 112.532C84.346 110.922 87.4703 108.879 90.2887 106.456C85.1838 106.729 80.0957 107.007 74.9953 107.263C61.6814 107.952 48.8292 106.312 36.6925 100.319C6.92516 85.6155 3.55583 44.0081 31.0535 25.5862C48.1956 14.1104 67.4681 12.3852 87.3995 16.2109C88.2436 16.4188 89.0225 16.834 89.6657 17.4189C90.3089 18.0037 90.7959 18.7398 91.0829 19.5604C89.0687 19.4716 87.0489 19.4714 85.0405 19.294C70.3397 18.0241 56.0239 19.4904 42.385 25.4304C33.7225 28.9088 26.6163 35.4122 22.3857 43.7332C12.9705 62.8522 22.9561 87.4402 42.8998 95.0564C56.9022 100.413 71.2701 100.368 86.3648 98.8217C82.1477 93.2912 73.458 93.145 70.8977 84.3252C77.0063 87.4409 81.8048 90.0612 86.7731 92.3844C91.0617 94.4172 95.5258 96.0643 99.8629 97.9839C104.46 100.009 105.623 102.737 102.352 106.262C99.0536 109.614 95.2558 112.435 91.0936 114.625C86.5348 117.1 81.6334 118.835 76.0445 121.251Z" fill="#FFDC4E"/>
</g>
<defs>
<clipPath id="clip0_278:692">
<rect width="104.452" height="101.247" fill="white" transform="translate(124.831 26.2046) rotate(105)"/>
</clipPath>
</defs>
</svg>
