<svg width="58" height="64" viewBox="0 0 58 64" fill="none" xmlns="http://www.w3.org/2000/svg">
<g clip-path="url(#clip0_278:210)">
<path d="M11.85 51.01L45.21 29.64L44.77 28.64C40.13 29.41 35.49 30.26 30.83 30.91C28.1399 31.3503 25.4156 31.5478 22.69 31.5C17.12 31.26 15.12 27.39 17.99 22.55C18.9344 20.8653 20.1547 19.351 21.6 18.07C28.46 12.28 35.45 6.63999 42.41 0.959993C42.8755 0.519452 43.4421 0.20009 44.06 0.0300006C44.3529 -0.0317177 44.6559 -0.0269209 44.9466 0.0440387C45.2374 0.114998 45.5085 0.250284 45.74 0.439974C46.1 1.00997 46.39 2.11999 46.08 2.51999C44.9948 3.90037 43.7755 5.1699 42.44 6.31C36.99 11.06 31.44 15.68 26.05 20.48C24.2645 22.3041 22.5946 24.2378 21.05 26.27C23.0242 26.4113 25.0059 26.4113 26.98 26.27C34.1 25.06 41.19 23.69 48.29 22.44C49.8469 22.0432 51.4583 21.9047 53.06 22.03C54.5882 22.2017 56.0058 22.9105 57.06 24.03C58.25 25.65 57.22 27.42 55.84 28.7C54.5778 29.9336 53.2128 31.0577 51.76 32.06C42.91 37.87 34.01 43.61 25.13 49.38C23.71 50.3 22.29 51.25 20.02 52.75C26.02 52.88 30.5 49.47 36.59 51.45C34.95 52.93 34.12 54.06 33 54.6C24.1471 58.7926 14.8193 61.8985 5.22004 63.85C1.22004 64.72 -0.929955 62.14 0.340045 58.18C0.90842 56.3414 1.78046 54.6108 2.92004 53.06C6.13004 48.78 9.47004 44.64 12.85 40.64C13.1894 40.2602 13.6133 39.9655 14.0875 39.7796C14.5617 39.5937 15.073 39.5219 15.58 39.57C17.08 40.13 16.88 41.64 16.18 42.83C14.64 45.44 12.99 48 11.39 50.57L11.85 51.01Z" fill="#FFDC4E"/>
</g>
<defs>
<clipPath id="clip0_278:210">
<rect width="57.6" height="63.96" fill="white"/>
</clipPath>
</defs>
</svg>
