<svg width="92" height="281" viewBox="0 0 92 281" fill="none" xmlns="http://www.w3.org/2000/svg">
<g clip-path="url(#clip0_278:684)">
<path d="M29.9322 264.713L58.7122 258.369C58.561 260.898 57.6332 263.322 56.0524 265.318C54.4715 267.314 52.3124 268.787 49.8623 269.542C36.8514 273.99 23.6002 277.72 10.1699 280.716C2.47128 282.326 -1.55792 277.023 0.768466 269.661C4.62978 257.351 9.16264 245.23 13.4077 233.038C13.6715 232.328 13.8634 231.381 14.415 231.026C16.1418 229.961 18.0365 229.109 19.8832 228.185C20.6506 229.748 22.2815 231.405 22.0657 232.92C21.4181 237.797 20.147 242.579 19.1157 247.384C18.3213 250.259 18.3213 253.292 19.1157 256.167C22.0417 253.516 25.1116 251.006 27.9176 248.237C55.6054 221.146 73.557 185.86 79.0346 147.761C84.5122 109.661 77.2152 70.8389 58.2565 37.2143C53.2919 28.2422 47.2002 19.8856 41.684 11.1739C39.7653 8.14373 38.0146 5.01887 36.1679 1.94137L37.8947 0.0238419C40.0771 0.828728 42.8592 1.01811 44.3222 2.39115C49.505 7.4672 54.3139 12.9022 58.7122 18.6546C101.882 77.4586 103.585 159.131 62.4296 222.243C54.5631 234.293 44.4661 244.922 35.3284 256.143C33.4577 258.511 31.2273 260.499 29.1647 262.653C29.2846 263.435 29.6204 264.074 29.9322 264.713Z" fill="#FFDC4E"/>
</g>
<defs>
<clipPath id="clip0_278:684">
<rect width="92" height="281" fill="white"/>
</clipPath>
</defs>
</svg>
