<svg width="536" height="414" viewBox="0 0 536 414" fill="none" xmlns="http://www.w3.org/2000/svg">
<g clip-path="url(#clip0_278:7)">
<path d="M314.112 295.881C312.018 295.383 310.142 294.22 308.767 292.568L310.739 289.409C312.114 291.061 313.99 292.224 316.085 292.723L314.112 295.881Z" fill="url(#paint0_linear_278:7)"/>
<path d="M210.715 264.927C208.81 267.374 206.159 269.138 203.16 269.953L200.21 265.479C203.207 264.66 205.857 262.896 207.765 260.452L210.715 264.927Z" fill="url(#paint1_linear_278:7)"/>
<path d="M142.172 219.396C139.254 222.579 128.106 225.892 128.106 225.892L125.93 222.092C125.93 222.092 137.078 218.762 139.996 215.595L142.172 219.396Z" fill="url(#paint2_linear_278:7)"/>
<path d="M111.751 164.039C108.014 164.645 104.182 164.023 100.831 162.269L101.882 155.773C105.233 157.527 109.065 158.148 112.802 157.543L111.751 164.039Z" fill="url(#paint3_linear_278:7)"/>
<path d="M91.0515 106.19C87.7842 106.825 84.3985 106.386 81.4028 104.939L82.1444 99.2551C85.1514 100.703 88.5497 101.136 91.8257 100.489L91.0515 106.19Z" fill="url(#paint4_linear_278:7)"/>
<path d="M217.43 290.749C211.294 290.822 190.293 287.16 190.293 287.16L192.061 284.448C192.061 284.448 213.062 288.118 219.198 288.045L217.43 290.749Z" fill="url(#paint5_linear_278:7)"/>
<path d="M344.583 161.595C341.606 158.998 339.558 155.507 338.748 151.648L344.673 148.205C345.479 152.061 347.521 155.552 350.491 158.152L344.583 161.595Z" fill="url(#paint6_linear_278:7)"/>
<path d="M411.275 199.574C409.16 200.017 406.958 199.763 405 198.851L405.424 195.14C407.385 196.052 409.59 196.305 411.707 195.863L411.275 199.574Z" fill="url(#paint7_linear_278:7)"/>
<path d="M432.098 159.792C430.372 162.335 427.863 164.25 424.951 165.249L421.691 161.027C424.604 160.023 427.111 158.105 428.838 155.562L432.098 159.792Z" fill="url(#paint8_linear_278:7)"/>
<path d="M493.355 103.177C490.263 105.108 486.625 105.986 482.989 105.678L481.498 99.5474C485.137 99.8551 488.777 98.9774 491.872 97.0464L493.355 103.177Z" fill="url(#paint9_linear_278:7)"/>
<path d="M380.447 74.5205C378.973 76.5985 376.863 78.1454 374.433 78.9298L371.809 75.3812C374.239 74.5962 376.346 73.0459 377.815 70.9638L380.447 74.5205Z" fill="url(#paint10_linear_278:7)"/>
<path d="M344.664 36.4848C343.823 39.586 341.992 42.3306 339.448 44.3047L334.787 41.2189C337.331 39.2449 339.161 36.5003 340.003 33.399L344.664 36.4848Z" fill="url(#paint11_linear_278:7)"/>
<path d="M129.418 331.059C125.334 330.282 121.615 328.201 118.824 325.131L122.353 318.87C125.147 321.939 128.864 324.022 132.947 324.806L129.418 331.059Z" fill="url(#paint12_linear_278:7)"/>
<path d="M217.617 335.354C214.226 333.182 211.635 329.97 210.234 326.203L215.686 321.842C217.088 325.606 219.679 328.815 223.069 330.986L217.617 335.354Z" fill="url(#paint13_linear_278:7)"/>
<path d="M177.393 285.122C176.711 288.133 175.066 290.843 172.707 292.844L168.111 290.075C170.47 288.074 172.114 285.364 172.797 282.353L177.393 285.122Z" fill="url(#paint14_linear_278:7)"/>
<path d="M148.789 282.994C145.059 282.476 141.599 280.767 138.928 278.122L141.829 272.3C144.499 274.946 147.96 276.656 151.69 277.172L148.789 282.994Z" fill="url(#paint15_linear_278:7)"/>
<path d="M96.3814 317.717C95.0136 319.341 93.1555 320.48 91.0844 320.965L89.1367 317.831C91.2071 317.35 93.0638 316.209 94.4256 314.583L96.3814 317.717Z" fill="url(#paint16_linear_278:7)"/>
<path d="M24.782 287.249C23.5097 285.426 22.8662 283.24 22.9484 281.021L26.6319 279.933C26.5503 282.153 27.1968 284.34 28.4736 286.161L24.782 287.249Z" fill="url(#paint17_linear_278:7)"/>
<path d="M162.528 146.451C160.555 143.672 159.543 140.328 159.644 136.925L165.307 135.22C165.212 138.624 166.227 141.966 168.2 144.745L162.528 146.451Z" fill="url(#paint18_linear_278:7)"/>
<path d="M103.601 86.0189C102.175 88.9034 99.8468 91.2486 96.9679 92.7019L92.9829 88.7798C95.8636 87.3289 98.1921 84.983 99.6164 82.0967L103.601 86.0189Z" fill="url(#paint19_linear_278:7)"/>
<path d="M278.541 139.865C276.828 137.327 275.987 134.304 276.145 131.249L281.271 129.836C281.113 132.888 281.954 135.909 283.667 138.444L278.541 139.865Z" fill="url(#paint20_linear_278:7)"/>
<path d="M304.407 107.603C298.947 104.355 293.976 95.9095 293.976 95.9095L296.42 95.1624C296.42 95.1624 301.391 103.599 306.851 106.856L304.407 107.603Z" fill="url(#paint21_linear_278:7)"/>
<path d="M55.4312 120.847C56.9424 120.094 58.6589 119.851 60.3207 120.157L60.7363 123.032C59.0746 122.723 57.3571 122.965 55.8468 123.722L55.4312 120.847Z" fill="url(#paint22_linear_278:7)"/>
<path d="M69.6675 152.184C75.9913 149.057 78.0857 151.737 78.0857 151.737L78.3872 154.287C78.3872 154.287 76.2928 151.607 69.969 154.733L69.6675 152.184Z" fill="url(#paint23_linear_278:7)"/>
<path d="M63.3032 177.219C65.5373 179.314 67.0298 182.075 67.5571 185.087L62.8794 187.605C62.3538 184.592 60.861 181.831 58.6255 179.736L63.3032 177.219Z" fill="url(#paint24_linear_278:7)"/>
<path d="M45.2853 214.402C51.3401 216.367 58.0633 223.496 58.0633 223.496L55.863 224.763C55.863 224.763 49.1317 217.634 43.085 215.668L45.2853 214.402Z" fill="url(#paint25_linear_278:7)"/>
<path d="M398.058 281.127C395.41 282.611 392.35 283.201 389.338 282.808L388.335 277.659C391.348 278.053 394.407 277.463 397.055 275.978L398.058 281.127Z" fill="url(#paint26_linear_278:7)"/>
<path d="M400.568 353.081C393.234 354.12 378.37 349.354 378.37 349.354L379.657 341.972C379.657 341.972 394.521 346.739 401.856 345.7L400.568 353.081Z" fill="url(#paint27_linear_278:7)"/>
<path d="M426.597 386.35C423.763 385.317 421.343 383.393 419.703 380.869L422.962 376.809C424.607 379.332 427.029 381.255 429.865 382.29L426.597 386.35Z" fill="url(#paint28_linear_278:7)"/>
<path d="M419.254 86.1489C416.144 87.2813 412.749 87.3753 409.58 86.4168L409.417 80.7326C412.585 81.6907 415.979 81.5995 419.091 80.4727L419.254 86.1489Z" fill="url(#paint29_linear_278:7)"/>
<path d="M334.111 78.9298C331.981 76.0445 330.852 72.5474 330.892 68.9661L336.824 67.0579C336.787 70.6387 337.916 74.1351 340.043 77.0215L334.111 78.9298Z" fill="url(#paint30_linear_278:7)"/>
<path d="M298.816 59.376C296.954 60.5633 294.754 61.1135 292.55 60.9433L291.621 57.2404C293.825 57.41 296.025 56.8599 297.887 55.6732L298.816 59.376Z" fill="url(#paint31_linear_278:7)"/>
<path d="M222.849 133.807C221.45 135.519 219.531 136.733 217.381 137.266L215.319 134.018C217.47 133.485 219.388 132.271 220.787 130.559L222.849 133.807Z" fill="url(#paint32_linear_278:7)"/>
<path d="M77.0755 380.658C73.9656 381.79 70.5707 381.884 67.4024 380.926L67.2476 375.242C70.4158 376.2 73.8108 376.106 76.9207 374.974L77.0755 380.658Z" fill="url(#paint33_linear_278:7)"/>
<path d="M95.0282 39.3188C92.8862 36.4407 91.742 32.9463 91.7685 29.3632L97.7012 27.463C97.6759 31.0459 98.8199 34.54 100.961 37.4186L95.0282 39.3188Z" fill="url(#paint34_linear_278:7)"/>
<path d="M523.23 309.491C521.369 310.674 519.173 311.224 516.971 311.058L516.034 307.355C518.238 307.521 520.437 306.971 522.301 305.788L523.23 309.491Z" fill="url(#paint35_linear_278:7)"/>
<path d="M476.192 50.874C474.806 52.5852 472.903 53.8043 470.765 54.3495L468.703 51.1014C470.851 50.5669 472.766 49.3532 474.163 47.6421L476.192 50.874Z" fill="url(#paint36_linear_278:7)"/>
<path d="M490.259 195.278C488.641 197.464 486.352 199.063 483.739 199.834L481.025 196.001C483.637 195.223 485.925 193.622 487.545 191.437L490.259 195.278Z" fill="url(#paint37_linear_278:7)"/>
<path d="M452.878 237.171C448.379 234.094 444.981 222.473 444.981 222.473L447.181 220.378C447.181 220.378 450.58 231.999 455.078 235.084L452.878 237.171Z" fill="url(#paint38_linear_278:7)"/>
<path d="M426.93 137.77C424.111 139.104 420.934 139.491 417.876 138.874L417.224 133.515C420.282 134.137 423.459 133.752 426.278 132.419L426.93 137.77Z" fill="url(#paint39_linear_278:7)"/>
<path d="M47.1274 358.928C45.755 359.578 44.2077 359.766 42.7187 359.464L42.4009 356.857C43.8899 357.159 45.4372 356.971 46.8096 356.321L47.1274 358.928Z" fill="url(#paint40_linear_278:7)"/>
<path d="M417.095 14.235C412.352 16.9391 403.127 18.214 403.127 18.214L402.891 15.0876C402.891 15.0876 412.091 13.8127 416.858 11.1086L417.095 14.235Z" fill="url(#paint41_linear_278:7)"/>
<path d="M338.291 111.192C335.682 112.31 332.78 112.555 330.019 111.89L329.596 107.018C332.356 107.683 335.258 107.438 337.867 106.32L338.291 111.192Z" fill="url(#paint42_linear_278:7)"/>
<path d="M254.965 351.806C253.35 353.995 251.06 355.598 248.446 356.37L245.732 352.537C248.344 351.759 250.631 350.158 252.251 347.973L254.965 351.806Z" fill="url(#paint43_linear_278:7)"/>
<path d="M343.588 387.926C339.09 384.84 335.692 373.22 335.692 373.22L337.884 371.133C337.884 371.133 341.29 382.745 345.789 385.83L343.588 387.926Z" fill="url(#paint44_linear_278:7)"/>
<path d="M364.353 295.41C362.128 301.013 355.062 308.444 355.062 308.444L352.699 305.902C352.699 305.902 359.765 298.48 361.989 292.909L364.353 295.41Z" fill="url(#paint45_linear_278:7)"/>
<path d="M253.784 74.1145C251.494 75.633 244.005 76.7292 244.005 76.7292L243.687 75.6167C243.687 75.6167 251.021 73.9927 253.328 72.5067L253.784 74.1145Z" fill="url(#paint46_linear_278:7)"/>
<path d="M249.367 127.571C247.633 125.821 246.515 123.559 246.181 121.123L248.104 120.181C248.436 122.616 249.551 124.878 251.282 126.629L249.367 127.571Z" fill="url(#paint47_linear_278:7)"/>
<path d="M196.568 135.456C194.894 137.198 192.697 138.352 190.309 138.744L188.345 135.041C190.736 134.65 192.935 133.496 194.612 131.753L196.568 135.456Z" fill="url(#paint48_linear_278:7)"/>
<path d="M235.936 136.573L234.118 140.415L239.846 143.105L241.663 139.264L235.936 136.573Z" fill="url(#paint49_linear_278:7)"/>
<path d="M240.069 142.65C237.927 142.389 235.926 141.446 234.364 139.962L235.994 136.576C237.556 138.06 239.556 139.003 241.699 139.264L240.069 142.65Z" fill="url(#paint50_linear_278:7)"/>
<path d="M308.389 88.0877L306.379 93.1463L313.918 96.1207L315.928 91.0621L308.389 88.0877Z" fill="url(#paint51_linear_278:7)"/>
<path d="M314.17 95.5359C311.401 95.3816 308.757 94.339 306.632 92.5639L308.4 88.1058C310.521 89.8829 313.163 90.9258 315.93 91.0779L314.17 95.5359Z" fill="url(#paint52_linear_278:7)"/>
<path d="M73.1884 258.057C71.084 257.044 69.3676 255.377 68.2988 253.306L71.1348 250.415C72.2041 252.488 73.92 254.158 76.0243 255.174L73.1884 258.057Z" fill="url(#paint53_linear_278:7)"/>
<path d="M117.088 194.767C114.045 196.158 110.631 196.528 107.358 195.822L106.73 190.073C110 190.781 113.412 190.411 116.453 189.017L117.088 194.767Z" fill="url(#paint54_linear_278:7)"/>
<path d="M113.543 131.907C111.718 135.612 108.735 138.627 105.044 140.498L99.9258 135.464C103.62 133.596 106.605 130.584 108.434 126.881L113.543 131.907Z" fill="url(#paint55_linear_278:7)"/>
<path d="M309.41 316.783C307.276 314.591 305.914 311.767 305.531 308.736L310.331 306.446C310.713 309.475 312.071 312.299 314.202 314.493L309.41 316.783Z" fill="url(#paint56_linear_278:7)"/>
<path d="M427.827 320.462C424.727 319.489 422.027 317.54 420.134 314.907L423.443 310.352C425.334 312.987 428.034 314.937 431.136 315.906L427.827 320.462Z" fill="url(#paint57_linear_278:7)"/>
<path d="M466.12 272.478C464.718 269.594 464.295 266.334 464.914 263.189L470.439 262.474C469.826 265.619 470.249 268.878 471.645 271.764L466.12 272.478Z" fill="url(#paint58_linear_278:7)"/>
<path d="M222.156 87.1476C219.405 85.4268 217.289 82.862 216.126 79.8393L220.478 76.2745C221.644 79.2975 223.763 81.8619 226.516 83.5828L222.156 87.1476Z" fill="url(#paint59_linear_278:7)"/>
<path d="M261.094 57.955C260.472 54.8109 260.892 51.5505 262.291 48.6653L267.825 49.3718C266.427 52.2546 266.007 55.5118 266.627 58.6533L261.094 57.955Z" fill="url(#paint60_linear_278:7)"/>
<path d="M271.353 111.192C269.266 109.097 267.916 106.385 267.507 103.461L272.111 101.188C272.521 104.111 273.87 106.824 275.958 108.918L271.353 111.192Z" fill="url(#paint61_linear_278:7)"/>
<path d="M172.698 87.2532C169.805 87.2315 166.996 86.274 164.696 84.5248L166.326 79.7906C168.626 81.5399 171.434 82.4974 174.328 82.519L172.698 87.2532Z" fill="url(#paint62_linear_278:7)"/>
<path d="M329.636 347.299C326.393 346.885 323.373 345.431 321.031 343.158L323.476 338.067C325.82 340.342 328.843 341.795 332.089 342.208L329.636 347.299Z" fill="url(#paint63_linear_278:7)"/>
<path d="M281.133 369.338C279.156 367.205 277.929 364.489 277.637 361.599L282.241 359.529C282.538 362.417 283.764 365.131 285.737 367.267L281.133 369.338Z" fill="url(#paint64_linear_278:7)"/>
<path d="M223.305 406.367C221.29 408.412 218.661 409.749 215.816 410.175L213.551 405.75C216.394 405.324 219.022 403.99 221.04 401.949L223.305 406.367Z" fill="url(#paint65_linear_278:7)"/>
<path d="M204.88 390.11C203.845 393.35 201.78 396.166 198.996 398.133L194.221 394.657C197 392.688 199.062 389.873 200.096 386.634L204.88 390.11Z" fill="url(#paint66_linear_278:7)"/>
<path d="M377.522 43.0297C374.563 40.57 371.407 38.3566 368.085 36.4116C368.297 36.5335 365.803 35.1692 365.811 35.5103C365.868 41.1296 360.922 45.6607 356.448 48.3404C353.921 49.8445 351.079 50.7424 348.144 50.9633C346.883 51.0271 345.619 50.9399 344.379 50.7035C343.801 50.5953 343.229 50.4544 342.668 50.2812C342.464 50.2244 342.26 50.1432 342.065 50.0701L341.339 49.6153C340.317 48.8793 339.198 48.2864 338.014 47.8532C336.996 47.5771 338.389 48.9008 338.324 48.8358C339.509 49.9444 340.766 50.9725 342.089 51.9134C348.943 57.1023 356.326 61.9908 365.208 59.6277C371.418 58.0037 379.217 51.8241 379.135 44.8325C379.127 44.2234 377.864 43.3302 377.522 43.0297Z" fill="url(#paint67_linear_278:7)"/>
<path d="M121.587 250.237C119.875 249.384 118.083 248.613 116.29 247.971C114.497 247.33 112.68 246.656 110.83 246.152C111.058 246.217 108.304 245.519 108.385 245.844C109.844 251.268 106.16 256.887 102.509 260.582C100.436 262.662 97.9055 264.233 95.1181 265.17C93.9118 265.547 92.6639 265.776 91.402 265.852C90.813 265.885 90.2226 265.885 89.6336 265.852C89.4217 265.852 89.2099 265.852 88.998 265.795L88.1831 265.536C86.9995 265.075 85.7568 264.782 84.4915 264.667C83.4321 264.667 85.1108 265.584 85.0293 265.544C86.4542 266.33 87.9297 267.022 89.4462 267.614C97.3836 270.952 105.745 273.867 113.764 269.385C119.37 266.25 125.392 258.365 123.543 251.609C123.445 251 121.978 250.44 121.587 250.237Z" fill="url(#paint68_linear_278:7)"/>
<path d="M274.654 328.005C278.842 327.193 284.343 320.77 284.18 318.123C283.952 318.578 277.31 317.36 277.563 317.019C277.001 319.455 270.416 323.45 266.48 322.776C266.643 322.865 269.74 325.667 270.163 325.789C270.408 326.097 274.189 328.225 274.654 328.005Z" fill="url(#paint69_linear_278:7)"/>
<path d="M262.479 88.0003L276.121 95.7634C275.615 95.4792 279.608 87.1639 278.981 86.831L265.339 79.1085C265.844 79.3927 261.851 87.708 262.479 88.0409V88.0003Z" fill="url(#paint70_linear_278:7)"/>
<path d="M126.745 111.907C127.12 112.15 131.634 108.382 131.993 108.098C132.351 107.814 136.923 104.038 137.176 104.184C132.31 101.115 128.458 96.6868 126.101 91.4514C126.435 92.1904 115.246 98.2563 115.67 99.1739C118.021 104.413 121.874 108.843 126.745 111.907Z" fill="url(#paint71_linear_278:7)"/>
<path d="M176.847 357.361C184.97 354.296 192.225 349.311 197.986 342.833C198.336 342.443 198.361 339.585 198.385 339.325C198.662 336.489 198.934 333.655 199.2 330.823C199.466 327.992 199.708 325.161 199.925 322.329C199.925 322.248 199.925 319.081 200.153 318.797C194.396 325.275 187.144 330.261 179.023 333.324C178.061 333.69 177.922 344.335 177.833 345.334C177.743 346.333 177.572 357.101 176.879 357.361H176.847Z" fill="url(#paint72_linear_278:7)"/>
<path d="M204.399 106.969C203.959 106.596 201.36 104.947 201.295 104.371C201.841 109.243 197.913 112.313 194.245 114.708C191.23 116.689 187.612 117.843 184.181 116.868L188.492 121.375C192.518 123.559 196.731 122.187 200.406 119.97C204.082 117.753 207.985 114.367 207.447 109.625C207.374 108.959 204.872 107.375 204.399 106.969Z" fill="url(#paint73_linear_278:7)"/>
<path d="M152.578 258.17C153.134 258.394 153.601 258.793 153.907 259.307L153.23 260.119C152.925 259.605 152.458 259.206 151.902 258.982L152.578 258.17Z" fill="url(#paint74_linear_278:7)"/>
<path d="M154.395 246.047C154.895 245.933 155.417 245.981 155.887 246.185L155.805 247.07C155.337 246.861 154.813 246.813 154.314 246.932L154.395 246.047Z" fill="url(#paint75_linear_278:7)"/>
<path d="M166.089 242.043C166.532 241.339 167.193 240.798 167.972 240.5L168.893 241.613C168.114 241.91 167.453 242.452 167.01 243.156L166.089 242.043Z" fill="url(#paint76_linear_278:7)"/>
<path d="M174.777 243.716C175.706 243.461 176.693 243.515 177.588 243.87L177.499 245.495C176.602 245.144 175.615 245.093 174.687 245.348L174.777 243.716Z" fill="url(#paint77_linear_278:7)"/>
<path d="M179.707 241.645C179.854 240.925 180.228 240.271 180.775 239.778L181.891 240.411C181.341 240.902 180.966 241.557 180.823 242.279L179.707 241.645Z" fill="url(#paint78_linear_278:7)"/>
<path d="M195.5 237.731C196.1 237.659 196.706 237.785 197.228 238.089L197.008 239.112C196.489 238.808 195.886 238.68 195.288 238.747L195.5 237.731Z" fill="url(#paint79_linear_278:7)"/>
<path d="M211.562 252.6C212.289 252.066 213.17 251.781 214.072 251.788L214.545 253.274C213.64 253.267 212.757 253.552 212.027 254.086L211.562 252.6Z" fill="url(#paint80_linear_278:7)"/>
<path d="M222.156 262.71C222.783 262.228 223.549 261.96 224.34 261.946L224.797 263.246C224.006 263.254 223.239 263.519 222.613 264.001L222.156 262.71Z" fill="url(#paint81_linear_278:7)"/>
<path d="M410.58 226.211L408.391 227.726L409.414 229.193L411.603 227.678L410.58 226.211Z" fill="url(#paint82_linear_278:7)"/>
<path d="M408.521 227.93C409.065 227.202 409.832 226.669 410.705 226.412L411.61 227.703C410.734 227.96 409.965 228.493 409.418 229.221L408.521 227.93Z" fill="url(#paint83_linear_278:7)"/>
<path d="M427.525 242.011C428.274 241.367 429.212 240.982 430.198 240.915L430.858 242.498C429.869 242.565 428.928 242.949 428.177 243.594L427.525 242.011Z" fill="url(#paint84_linear_278:7)"/>
<path d="M419.042 254.151C419.384 253.713 419.858 253.397 420.395 253.249L420.933 254.061C420.396 254.209 419.922 254.525 419.58 254.963L419.042 254.151Z" fill="url(#paint85_linear_278:7)"/>
<path d="M400.193 255.418C400.708 255.503 401.182 255.751 401.546 256.124L401.122 256.936C400.762 256.559 400.286 256.311 399.77 256.23L400.193 255.418Z" fill="url(#paint86_linear_278:7)"/>
<path d="M405.18 263.855C405.987 263.296 406.953 263.011 407.935 263.043L408.424 264.667C407.439 264.634 406.47 264.919 405.661 265.479L405.18 263.855Z" fill="url(#paint87_linear_278:7)"/>
<path d="M409.646 275.451C410.574 275.289 411.529 275.432 412.368 275.857L412.132 277.481C411.292 277.057 410.338 276.915 409.41 277.075L409.646 275.451Z" fill="url(#paint88_linear_278:7)"/>
<path d="M392.606 282.142C392.836 281.683 393.212 281.312 393.674 281.086L394.301 281.719C393.839 281.945 393.464 282.316 393.234 282.775L392.606 282.142Z" fill="url(#paint89_linear_278:7)"/>
<path d="M268.061 295.41C268.063 294.471 268.369 293.557 268.933 292.804L270.481 293.315C269.917 294.068 269.612 294.982 269.609 295.922L268.061 295.41Z" fill="url(#paint90_linear_278:7)"/>
<path d="M260.743 312.626C261.04 311.941 261.552 311.371 262.202 311.001L263.155 311.862C262.502 312.23 261.987 312.8 261.688 313.486L260.743 312.626Z" fill="url(#paint91_linear_278:7)"/>
<path d="M248.829 314.558C249.554 314.967 250.126 315.6 250.459 316.361L249.391 317.311C249.06 316.551 248.487 315.921 247.761 315.516L248.829 314.558Z" fill="url(#paint92_linear_278:7)"/>
<path d="M232.808 332.472C232.903 331.746 233.231 331.07 233.745 330.547L234.886 331.099C234.376 331.625 234.047 332.299 233.948 333.024L232.808 332.472Z" fill="url(#paint93_linear_278:7)"/>
<path d="M225.856 351.027C226.308 350.289 226.989 349.719 227.795 349.403L228.765 350.548C227.958 350.864 227.277 351.434 226.826 352.172L225.856 351.027Z" fill="url(#paint94_linear_278:7)"/>
<path d="M325.359 102.771C326.206 102.781 327.027 103.066 327.697 103.583L327.233 104.964C326.564 104.445 325.742 104.16 324.894 104.152L325.359 102.771Z" fill="url(#paint95_linear_278:7)"/>
<path d="M314.879 109.186C315.742 108.798 316.708 108.698 317.633 108.902L317.804 110.526C316.88 110.322 315.913 110.422 315.05 110.81L314.879 109.186Z" fill="url(#paint96_linear_278:7)"/>
<path d="M315.718 113.157C316.618 113.495 317.382 114.117 317.894 114.927L316.843 116.218C316.327 115.409 315.564 114.786 314.667 114.44L315.718 113.157Z" fill="url(#paint97_linear_278:7)"/>
<path d="M297.3 131.598C297.33 130.565 297.692 129.568 298.335 128.756L300.022 129.365C299.38 130.177 299.019 131.174 298.995 132.208L297.3 131.598Z" fill="url(#paint98_linear_278:7)"/>
<path d="M303.616 153.929C303.707 153.33 303.994 152.776 304.431 152.354L305.368 152.825C304.935 153.254 304.65 153.808 304.553 154.408L303.616 153.929Z" fill="url(#paint99_linear_278:7)"/>
<path d="M315.303 158.225C315.153 157.476 315.25 156.698 315.58 156.008L316.9 156.163C316.57 156.855 316.473 157.635 316.623 158.387L315.303 158.225Z" fill="url(#paint100_linear_278:7)"/>
<path d="M234.437 104.525C235.392 104.26 236.406 104.308 237.33 104.663L237.249 106.369C236.325 106.014 235.31 105.965 234.356 106.23L234.437 104.525Z" fill="url(#paint101_linear_278:7)"/>
<path d="M215.246 112.987C216.2 113.087 217.096 113.494 217.797 114.148L217.104 115.65C216.401 115 215.507 114.593 214.553 114.489L215.246 112.987Z" fill="url(#paint102_linear_278:7)"/>
<path d="M212.94 125.183C213.331 124.673 213.877 124.303 214.496 124.128L215.124 125.045C214.504 125.224 213.958 125.597 213.567 126.109L212.94 125.183Z" fill="url(#paint103_linear_278:7)"/>
<path d="M214.716 140.052C214.872 139.505 215.201 139.024 215.653 138.679L216.468 139.232C216.016 139.576 215.687 140.058 215.531 140.604L214.716 140.052Z" fill="url(#paint104_linear_278:7)"/>
<path d="M324.975 291.269C324.95 290.322 325.236 289.392 325.79 288.622L327.371 289.101C326.817 289.871 326.531 290.801 326.556 291.748L324.975 291.269Z" fill="url(#paint105_linear_278:7)"/>
<path d="M321.039 279.982C320.861 279.268 320.921 278.515 321.21 277.838L322.481 277.943C322.192 278.618 322.131 279.368 322.31 280.079L321.039 279.982Z" fill="url(#paint106_linear_278:7)"/>
<path d="M327.339 277.391C328.188 277.11 329.106 277.11 329.955 277.391V278.942C329.107 278.656 328.187 278.656 327.339 278.942V277.391Z" fill="url(#paint107_linear_278:7)"/>
<path d="M334.787 264.439C334.9 263.947 335.172 263.504 335.561 263.181L336.319 263.635C335.916 263.954 335.629 264.397 335.504 264.894L334.787 264.439Z" fill="url(#paint108_linear_278:7)"/>
<path d="M353.286 263.311C353.752 263.562 354.124 263.958 354.345 264.439L353.669 265.065C353.448 264.584 353.076 264.188 352.609 263.936L353.286 263.311Z" fill="url(#paint109_linear_278:7)"/>
<path d="M316.207 248.783C316.2 248.018 316.443 247.271 316.9 246.656L318.171 247.07C317.714 247.685 317.471 248.432 317.478 249.197L316.207 248.783Z" fill="url(#paint110_linear_278:7)"/>
<path d="M282.265 216.464C282.901 215.925 283.697 215.609 284.531 215.563L285.069 216.895C284.234 216.946 283.44 217.265 282.803 217.804L282.265 216.464Z" fill="url(#paint111_linear_278:7)"/>
<path d="M290.032 228.417C290.779 227.778 291.714 227.396 292.696 227.329L293.34 228.905C292.355 228.97 291.417 229.352 290.667 229.993L290.032 228.417Z" fill="url(#paint112_linear_278:7)"/>
<path d="M290.732 234.061C291.367 234.418 291.867 234.971 292.159 235.636L291.221 236.448C290.929 235.782 290.425 235.228 289.787 234.873L290.732 234.061Z" fill="url(#paint113_linear_278:7)"/>
<path d="M247.248 166.833C248.071 167.284 248.723 167.991 249.106 168.847L247.916 169.959C247.524 169.106 246.863 168.405 246.034 167.961L247.248 166.833Z" fill="url(#paint114_linear_278:7)"/>
<path d="M234.233 178.323C234.911 178.274 235.585 178.445 236.157 178.81L235.871 179.947C235.3 179.582 234.625 179.411 233.948 179.46L234.233 178.323Z" fill="url(#paint115_linear_278:7)"/>
<path d="M219.549 169.058C219.684 168.047 220.144 167.106 220.861 166.378L222.491 167.149C221.774 167.878 221.314 168.818 221.179 169.829L219.549 169.058Z" fill="url(#paint116_linear_278:7)"/>
<path d="M199.103 171.469C199.508 170.87 200.097 170.418 200.781 170.178L201.547 171.177C200.863 171.412 200.273 171.862 199.869 172.46L199.103 171.469Z" fill="url(#paint117_linear_278:7)"/>
<path d="M193.104 155.724C193.947 155.132 194.959 154.827 195.989 154.855L196.511 156.56C195.478 156.532 194.463 156.836 193.618 157.429L193.104 155.724Z" fill="url(#paint118_linear_278:7)"/>
<path d="M181.769 152.11C182.482 152.024 183.204 152.176 183.822 152.541L183.57 153.759C182.95 153.398 182.23 153.244 181.516 153.32L181.769 152.11Z" fill="url(#paint119_linear_278:7)"/>
<path d="M249.024 282.288C249.565 281.718 250.278 281.339 251.054 281.208L251.706 282.41C250.927 282.54 250.212 282.919 249.668 283.49L249.024 282.288Z" fill="url(#paint120_linear_278:7)"/>
<path d="M86.3984 173.784C86.5093 173.147 86.8237 172.563 87.2949 172.119L88.2809 172.647C87.8213 173.082 87.5105 173.65 87.3926 174.271L86.3984 173.784Z" fill="url(#paint121_linear_278:7)"/>
<path d="M89.8698 160.897C90.6252 160.995 91.3284 161.334 91.8745 161.863L91.2959 163.049C90.7562 162.515 90.0539 162.175 89.2993 162.082L89.8698 160.897Z" fill="url(#paint122_linear_278:7)"/>
<path d="M106.03 179.289C106.486 178.706 107.121 178.286 107.839 178.096L108.548 179.159C107.831 179.356 107.196 179.777 106.739 180.361L106.03 179.289Z" fill="url(#paint123_linear_278:7)"/>
<path d="M123.233 164.275C123.145 163.424 123.339 162.568 123.787 161.839L125.205 162.163C124.757 162.893 124.565 163.75 124.659 164.6L123.233 164.275Z" fill="url(#paint124_linear_278:7)"/>
<path d="M127.739 175.53C128.171 175.013 128.761 174.651 129.418 174.498L130.029 175.497C129.373 175.648 128.784 176.007 128.35 176.52L127.739 175.53Z" fill="url(#paint125_linear_278:7)"/>
<path d="M134.039 161.335C133.903 160.668 133.992 159.974 134.291 159.362L135.465 159.508C135.171 160.122 135.083 160.814 135.212 161.481L134.039 161.335Z" fill="url(#paint126_linear_278:7)"/>
<path d="M346.424 215.815C347.126 215.969 347.761 216.345 348.233 216.887L347.597 217.958C347.127 217.414 346.492 217.038 345.788 216.887L346.424 215.815Z" fill="url(#paint127_linear_278:7)"/>
<path d="M361.753 210.731C362.492 210.812 363.184 211.132 363.725 211.641L363.187 212.802C362.645 212.297 361.953 211.981 361.215 211.901L361.753 210.731Z" fill="url(#paint128_linear_278:7)"/>
<path d="M350.067 185.899C350.238 185.352 350.58 184.873 351.045 184.535L351.86 185.12C351.393 185.456 351.049 185.935 350.882 186.484L350.067 185.899Z" fill="url(#paint129_linear_278:7)"/>
<path d="M272.309 268.788L270.385 268.957L270.499 270.243L272.423 270.075L272.309 268.788Z" fill="url(#paint130_linear_278:7)"/>
<path d="M328.015 179.07C328.572 179.059 329.117 179.234 329.563 179.565L329.27 180.475C328.822 180.148 328.277 179.976 327.722 179.988L328.015 179.07Z" fill="url(#paint131_linear_278:7)"/>
<path d="M332.229 197.503C332.727 196.884 333.413 196.442 334.184 196.245L334.934 197.398C334.161 197.597 333.474 198.041 332.978 198.664L332.229 197.503Z" fill="url(#paint132_linear_278:7)"/>
<path d="M332.929 210.203C332.919 209.219 333.231 208.259 333.817 207.467L335.447 207.995C334.861 208.787 334.546 209.747 334.551 210.731L332.929 210.203Z" fill="url(#paint133_linear_278:7)"/>
<path d="M200.577 207.93C201.264 208.168 201.854 208.625 202.256 209.229L201.482 210.228C201.077 209.621 200.485 209.162 199.795 208.92L200.577 207.93Z" fill="url(#paint134_linear_278:7)"/>
<path d="M174.989 219.721C175.753 219.6 176.536 219.728 177.221 220.086L177.001 221.41C176.316 221.051 175.533 220.923 174.769 221.044L174.989 219.721Z" fill="url(#paint135_linear_278:7)"/>
<path d="M171.973 234.004C172.579 234.469 173.019 235.115 173.228 235.848L172.128 236.587C171.919 235.854 171.479 235.208 170.873 234.743L171.973 234.004Z" fill="url(#paint136_linear_278:7)"/>
<path d="M229.711 173.654C230.449 173.41 231.246 173.41 231.985 173.654V175.002C231.247 174.753 230.448 174.753 229.711 175.002V173.654Z" fill="url(#paint137_linear_278:7)"/>
<path d="M237.697 163.812C238.344 164.059 238.895 164.506 239.27 165.087L238.512 166.013C238.137 165.432 237.586 164.985 236.939 164.738L237.697 163.812Z" fill="url(#paint138_linear_278:7)"/>
<path d="M246.009 149.788C246.22 149.133 246.637 148.563 247.199 148.164L248.153 148.87C247.589 149.267 247.174 149.838 246.971 150.495L246.009 149.788Z" fill="url(#paint139_linear_278:7)"/>
<path d="M251.673 151.29C251.547 150.492 251.684 149.674 252.065 148.96L253.458 149.187C253.077 149.901 252.94 150.719 253.067 151.518L251.673 151.29Z" fill="url(#paint140_linear_278:7)"/>
<path d="M137.812 363.029C135.611 359.366 133.216 355.655 131.716 351.66C131.011 349.914 130.866 347.994 131.301 346.163C131.816 344.44 132.814 342.899 134.177 341.721C134.773 341.179 135.416 340.692 136.1 340.267C136.5 340.17 136.915 340.08 137.404 339.983C138.447 339.772 139.491 339.585 140.534 339.398C145.839 338.448 151.25 336.962 155.919 334.193C158.918 332.423 161.624 329.589 161.958 325.975C161.991 325.565 161.991 325.152 161.958 324.741C161.958 324.497 158.543 325.691 158.364 325.756C157.549 326.073 156.734 326.406 155.919 326.796C155.862 326.796 154.966 327.193 154.99 327.405C155.308 330.945 153.051 334.088 150.174 335.955L149.987 336.069L149.058 336.272C147.061 336.702 144.722 337.596 142.718 338.01C139.792 338.611 137.249 338.944 134.487 340.072C132.201 340.929 130.048 342.102 128.09 343.556C125.148 345.854 123.485 349.281 124.366 353C124.934 354.951 125.741 356.825 126.77 358.579C127.821 360.617 128.962 362.639 130.151 364.563C131.781 367.227 134.226 370.946 131.895 373.934C129.923 374.072 127.927 373.934 125.963 373.934C121.758 373.804 117.536 373.617 113.356 374.218C110.636 374.644 107.973 375.377 105.419 376.403C102.909 377.369 100.252 378.449 98.3124 380.365C95.3624 383.297 94.7104 387.763 94.6534 391.734C94.5964 395.9 95.0935 400.114 93.9037 404.174C92.7678 408.003 90.2779 411.292 86.8953 413.432L86.4797 413.675C86.5368 413.675 85.7381 414.073 86.2271 414.049C86.7861 413.973 87.3336 413.828 87.8569 413.618C89.4897 413.138 91.0681 412.49 92.5672 411.686C96.0794 409.694 98.8198 406.586 100.35 402.859C101.931 398.961 101.629 394.69 101.572 390.581C101.515 386.472 101.8 382.038 104.4 378.709C104.888 378.096 105.456 377.55 106.087 377.085C107.612 376.827 109.153 376.669 110.699 376.614C114.912 376.419 119.134 376.768 123.347 376.784C125.36 376.8 127.366 376.549 129.312 376.037C131.23 375.492 133.104 374.805 134.919 373.983C136.074 373.522 137.153 372.893 138.121 372.115C141.047 369.525 139.442 365.765 137.812 363.029Z" fill="url(#paint141_linear_278:7)"/>
<path d="M150.5 335.72C150.141 336.118 149.783 336.532 149.4 336.905L148.976 337.279C151.402 336.487 153.738 335.442 155.944 334.161C158.943 332.39 161.648 329.556 161.982 325.943C162.015 325.532 162.015 325.119 161.982 324.709C161.982 324.465 158.568 325.659 158.388 325.724C157.574 326.04 156.759 326.373 155.944 326.763C155.887 326.763 154.99 327.161 155.015 327.372C155.292 330.791 153.206 333.828 150.5 335.72Z" fill="url(#paint142_linear_278:7)"/>
<path d="M101.605 390.532C101.548 386.472 101.833 381.99 104.432 378.66C104.921 378.048 105.488 377.502 106.119 377.036H106.274C106.841 376.447 107.466 375.916 108.14 375.453C107.228 375.745 106.315 376.07 105.419 376.411C102.909 377.377 100.252 378.457 98.3124 380.374C95.3624 383.305 94.7104 387.771 94.6534 391.742C94.5963 395.908 95.0935 400.122 93.9037 404.183C92.7678 408.011 90.2779 411.3 86.8953 413.44L86.4797 413.683C86.5368 413.683 85.7381 414.081 86.2271 414.057C86.7861 413.981 87.3335 413.836 87.8569 413.626C89.4897 413.146 91.0681 412.498 92.5672 411.694C96.0794 409.702 98.8198 406.594 100.35 402.867C101.931 398.912 101.605 394.641 101.605 390.532Z" fill="url(#paint143_linear_278:7)"/>
<path d="M137.812 363.029C135.612 359.366 133.216 355.655 131.716 351.66C131.012 349.914 130.866 347.994 131.301 346.163C131.817 344.44 132.815 342.899 134.178 341.721C134.666 341.274 135.189 340.867 135.742 340.503C134.851 340.409 133.95 340.467 133.077 340.673C131.303 341.428 129.628 342.396 128.09 343.556C125.148 345.854 123.486 349.281 124.366 353C124.934 354.951 125.742 356.825 126.77 358.579C127.821 360.617 128.962 362.639 130.152 364.563C131.684 367.081 133.958 370.532 132.238 373.431C132.417 373.626 132.546 373.862 132.613 374.118C132.679 374.374 132.682 374.643 132.621 374.901C133.395 374.6 134.161 374.275 134.919 373.95C136.074 373.49 137.153 372.861 138.122 372.083C141.047 369.525 139.442 365.765 137.812 363.029Z" fill="url(#paint144_linear_278:7)"/>
<path d="M370.302 123.559C369.381 133.247 374.816 142.301 385.467 141.335C393.527 140.604 402.027 139.443 405.164 130.721C404.854 131.59 398.791 130.445 398.449 131.395C397.362 134.387 395.336 136.95 392.671 138.704C391.316 139.585 389.839 140.266 388.287 140.726C386.755 141.099 387.051 141.099 389.175 140.726C388.114 140.662 387.063 140.474 386.046 140.165C378.63 138.2 376.389 129.487 377.025 122.877C376.984 123.259 370.351 123.072 370.302 123.551V123.559Z" fill="url(#paint145_linear_278:7)"/>
<path d="M405.164 130.721C404.855 131.59 398.791 130.445 398.449 131.395C397.362 134.387 395.336 136.95 392.671 138.704C391.41 139.529 390.038 140.174 388.597 140.62C389.029 140.693 389.501 140.766 389.998 140.831C396.518 139.906 402.613 137.811 405.164 130.721Z" fill="url(#paint146_linear_278:7)"/>
<path d="M328.243 8.68878C328.283 7.54268 328.215 6.39535 328.04 5.26199C327.997 4.53748 327.776 3.83458 327.396 3.21566C327.007 2.77718 326.497 2.46348 325.929 2.3143C325.252 2.07069 324.568 1.85144 323.867 1.65655C322.535 1.28132 321.171 1.0312 319.792 0.90948C316.533 0.617147 312.923 1.51039 309.956 0C309.922 0.0654268 309.892 0.133274 309.867 0.203009C309.925 1.21698 310.321 2.18267 310.991 2.94769C311.981 3.76008 313.2 4.24538 314.479 4.33627C315.856 4.48584 317.242 4.54552 318.627 4.51492C321.398 4.56253 324.138 5.11287 326.711 6.13899C327.045 6.26967 327.348 6.46887 327.599 6.72365L327.502 7.00787C326.984 8.33924 326.061 9.47531 324.861 10.256C322.49 11.8801 319.784 12.1968 317.421 12.3105C314.903 12.4241 312.442 12.1724 309.932 12.213C308.661 12.2386 307.396 12.38 306.151 12.6353C304.808 12.8631 303.554 13.4528 302.524 14.3405C301.374 15.4095 300.636 16.846 300.438 18.4007C300.357 19.4846 300.398 20.5741 300.56 21.6489C300.621 22.4824 300.802 23.3029 301.098 24.085C301.565 25.0212 302.271 25.8191 303.144 26.3993C304.211 27.2113 305.295 27.9584 306.33 28.8354C307.365 29.7124 308.49 30.6868 309.524 31.6856C309.995 32.15 310.406 32.671 310.747 33.2366C310.805 33.322 310.857 33.4116 310.902 33.5046C310.168 36.1356 307.406 36.8258 305.808 37.6378C304.731 38.1491 303.842 38.9841 303.266 40.0252C302.451 41.4707 302.492 43.2328 302.272 44.7675C302.212 45.5377 302.247 46.3122 302.378 47.0737C302.411 47.4339 302.465 47.7918 302.541 48.1456C302.541 48.105 302.622 48.5354 302.655 48.2836C302.907 46.5296 302.899 44.6538 303.959 43.1028C304.763 42.0742 305.85 41.3011 307.088 40.8779C308.321 40.4484 309.436 39.7396 310.348 38.8072C311.537 37.4673 311.586 35.7133 311.488 34.0974C311.358 32.0754 311.097 30.297 310.07 28.9978C309.197 27.97 308.229 27.0266 307.177 26.18C306.069 25.1975 304.953 24.3042 303.82 23.4922C302.861 22.8935 301.999 22.1544 301.261 21.2997C301.16 21.1646 301.068 21.0236 300.984 20.8774C301.104 20.5047 301.257 20.1433 301.44 19.7974C302.139 18.4764 303.273 17.4354 304.651 16.8497C305.851 16.3772 307.12 16.103 308.408 16.0377C309.66 15.9311 310.917 15.9013 312.173 15.9484C314.67 16.1172 317.177 16.0873 319.67 15.8591C321.952 15.5586 324.821 14.9009 326.809 12.4647C327.656 11.3776 328.155 10.0622 328.243 8.68878Z" fill="url(#paint147_linear_278:7)"/>
<path d="M328.243 8.6888C328.283 7.5427 328.215 6.39537 328.04 5.26201C328.04 5.15644 328.04 5.04276 327.999 4.93719C327.907 5.53657 327.742 6.12273 327.51 6.68307L327.575 6.73991L327.477 7.02413C326.96 8.3555 326.036 9.49157 324.837 10.2723C322.465 11.8963 319.76 12.213 317.397 12.3267C314.878 12.4404 312.417 12.1887 309.907 12.2293C308.645 12.251 307.388 12.3869 306.151 12.6353C304.808 12.8631 303.554 13.4528 302.524 14.3406C301.374 15.4095 300.636 16.8461 300.438 18.4007C300.357 19.4846 300.398 20.5741 300.56 21.6489C300.56 21.8763 300.617 22.1117 300.65 22.3391C300.65 22.2173 300.65 22.0955 300.65 21.9737C300.702 21.4825 300.855 21.0072 301.098 20.577C301.204 20.3009 301.326 20.0411 301.457 19.765C302.155 18.4439 303.289 17.4029 304.667 16.8173C305.867 16.3448 307.136 16.0705 308.424 16.0052C309.676 15.8987 310.934 15.8688 312.189 15.9159C314.687 16.0847 317.194 16.0549 319.687 15.8266C321.968 15.5261 324.837 14.8684 326.825 12.4323C327.66 11.3523 328.154 10.0492 328.243 8.6888Z" fill="url(#paint148_linear_278:7)"/>
<path d="M311.456 34.0486C311.415 33.3139 311.334 32.5819 311.212 31.8561C311.2 31.9249 311.184 31.9927 311.163 32.0591C311.148 32.5288 311.054 32.9926 310.886 33.4315C310.152 36.0625 307.39 36.7527 305.792 37.5648C304.715 38.076 303.826 38.911 303.25 39.9521C302.669 41.3298 302.348 42.8027 302.304 44.2965C302.257 44.6032 302.227 44.9122 302.215 45.2222C302.215 46.6108 302.541 48.6653 302.639 48.2105C303.372 44.8243 304.171 42.5263 304.603 42.2664C305.327 41.6424 306.154 41.1479 307.047 40.8048C308.28 40.3753 309.396 39.6665 310.307 38.7341C311.505 37.4267 311.554 35.6727 311.456 34.0486Z" fill="url(#paint149_linear_278:7)"/>
<path d="M25.1486 171.283C28.1394 169.789 27.7319 165.996 27.5038 163.203C27.243 160.044 27.3082 157.243 29.8752 155.537C28.9217 155.96 28.1068 156.187 26.8926 156.723C23.8937 158.038 23.2254 160.929 23.364 163.934C23.4943 166.8 24.4478 171.242 21.2207 172.866C22.1416 172.403 23.967 171.851 25.1486 171.242V171.283Z" fill="url(#paint150_linear_278:7)"/>
<path d="M0 166.337C4.18707 168.961 8.63929 171.138 13.2833 172.834C15.1005 173.491 17.3579 174.279 19.273 173.646C21.087 173.155 22.8374 172.454 24.4885 171.559C23.2824 172.322 21.5792 172.371 20.365 173.102C20.1292 173.27 19.8749 173.412 19.6071 173.524L23.4454 172.07L23.0379 172.216L23.3231 172.119C20.2183 172.866 16.8037 171.136 13.9922 169.975C10.568 168.513 7.26771 166.778 4.12352 164.786C3.88719 164.64 2.29809 165.444 2.05361 165.533C1.80913 165.623 0.195582 166.451 0 166.345V166.337Z" fill="url(#paint151_linear_278:7)"/>
<path d="M44.1362 162.821C44.9712 162.756 45.7631 162.425 46.3943 161.877C47.0255 161.328 47.4625 160.592 47.6404 159.776C48.2109 157.73 48.7569 156.041 50.9735 155.302C49.6125 155.756 47.9745 155.391 46.6055 155.854C45.804 156.123 45.09 156.602 44.538 157.241C43.986 157.879 43.6165 158.654 43.468 159.484C43.0198 161.286 42.4331 162.732 40.4854 163.268L40.7788 163.219L40.355 163.276C39.5401 163.39 41.0314 163.219 41.1699 163.211C42.1641 163.089 43.1665 162.967 44.1607 162.821H44.1362Z" fill="url(#paint152_linear_278:7)"/>
<path d="M28.18 156.236C28.7234 156.085 29.2911 156.044 29.8506 156.114C30.4101 156.183 30.9502 156.363 31.4397 156.642C34.0556 158.03 36.0848 161.579 38.3666 162.943C39.8986 163.852 41.5203 163.633 43.1339 163.154C43.6396 163.084 44.1333 162.945 44.6007 162.74L45.3016 162.537C43.9313 162.365 42.6405 161.801 41.5855 160.913C39.8497 159.581 38.4155 157.551 36.7856 156.163C36.1866 155.606 35.459 155.204 34.6672 154.995C33.8754 154.785 33.0439 154.773 32.2465 154.961H32.2954L32.1406 155.009H32.0102C30.6118 155.291 29.2463 155.715 27.9355 156.276L28.18 156.236Z" fill="url(#paint153_linear_278:7)"/>
<path d="M535.959 214.459C536.253 212.128 535.307 209.879 534.582 207.702C533.564 204.657 531.241 202.757 528.381 201.442C525.007 199.883 522.016 200.142 519.416 202.798C517.11 205.136 515.285 208.62 511.495 208.344C511.65 208.823 511.813 209.302 511.968 209.789L510.941 206.582C510.843 206.265 510.501 205.291 510.485 205.209C510.713 206.022 510.974 206.834 511.235 207.646L512.261 210.853C512.373 211.346 512.532 211.827 512.734 212.29C518.015 212.672 519.531 205.981 524.029 204.503C526.596 203.691 529.733 205.258 531.868 206.574C532.926 207.258 533.853 208.124 534.607 209.132C535.356 210.098 535.242 211.324 534.778 208.669C534.867 209.288 534.867 209.917 534.778 210.536C534.615 211.787 536.171 213.24 536.016 214.467L535.959 214.459Z" fill="url(#paint154_linear_278:7)"/>
<path d="M337.615 243.554C338.08 244.011 338.386 244.605 338.486 245.249C338.585 245.892 338.474 246.551 338.169 247.127C337.476 248.621 336.947 249.904 337.892 251.447C337.313 250.497 336.156 249.896 335.569 248.938C335.236 248.371 335.06 247.727 335.06 247.07C335.06 246.413 335.236 245.768 335.569 245.202C336.213 243.911 336.588 242.766 335.7 241.467L335.855 241.645L335.635 241.394C335.211 240.923 336.001 241.759 336.067 241.832C336.596 242.401 337.126 242.969 337.648 243.554H337.615Z" fill="url(#paint155_linear_278:7)"/>
</g>
<defs>
<linearGradient id="paint0_linear_278:7" x1="308.767" y1="292.649" x2="316.085" y2="292.649" gradientUnits="userSpaceOnUse">
<stop stop-color="#B5188D"/>
<stop offset="1" stop-color="#4E69AE"/>
</linearGradient>
<linearGradient id="paint1_linear_278:7" x1="200.17" y1="265.203" x2="210.715" y2="265.203" gradientUnits="userSpaceOnUse">
<stop stop-color="#F71873"/>
<stop offset="1" stop-color="#F8A629"/>
</linearGradient>
<linearGradient id="paint2_linear_278:7" x1="976.061" y1="-41689.7" x2="1079" y2="-41948.7" gradientUnits="userSpaceOnUse">
<stop stop-color="#F44274"/>
<stop offset="1" stop-color="#E51F9A"/>
</linearGradient>
<linearGradient id="paint3_linear_278:7" x1="100.831" y1="160.028" x2="112.802" y2="160.028" gradientUnits="userSpaceOnUse">
<stop stop-color="#BE1E68"/>
<stop offset="1" stop-color="#B5188D"/>
</linearGradient>
<linearGradient id="paint4_linear_278:7" x1="81.4028" y1="102.852" x2="91.7931" y2="102.852" gradientUnits="userSpaceOnUse">
<stop stop-color="#FBE422"/>
<stop offset="1" stop-color="#C8D92B"/>
</linearGradient>
<linearGradient id="paint5_linear_278:7" x1="8192.17" y1="2416.21" x2="9217.44" y2="2416.21" gradientUnits="userSpaceOnUse">
<stop stop-color="#F44274"/>
<stop offset="1" stop-color="#E51F9A"/>
</linearGradient>
<linearGradient id="paint6_linear_278:7" x1="5728.96" y1="2489.13" x2="5898.18" y2="2489.13" gradientUnits="userSpaceOnUse">
<stop stop-color="#B4DF86"/>
<stop offset="1" stop-color="#84C743"/>
</linearGradient>
<linearGradient id="paint7_linear_278:7" x1="4028.9" y1="1250.88" x2="4084.09" y2="1250.88" gradientUnits="userSpaceOnUse">
<stop stop-color="#BE1E68"/>
<stop offset="1" stop-color="#B5188D"/>
</linearGradient>
<linearGradient id="paint8_linear_278:7" x1="6257.6" y1="1914.93" x2="6390.39" y2="1914.93" gradientUnits="userSpaceOnUse">
<stop stop-color="#B5188D"/>
<stop offset="1" stop-color="#4E69AE"/>
</linearGradient>
<linearGradient id="paint9_linear_278:7" x1="8000.93" y1="1043.96" x2="8173.45" y2="1043.96" gradientUnits="userSpaceOnUse">
<stop stop-color="#FBE422"/>
<stop offset="1" stop-color="#C8D92B"/>
</linearGradient>
<linearGradient id="paint10_linear_278:7" x1="4687.22" y1="679.332" x2="4778.78" y2="679.332" gradientUnits="userSpaceOnUse">
<stop stop-color="#6DD0E7"/>
<stop offset="1" stop-color="#01A7DB"/>
</linearGradient>
<linearGradient id="paint11_linear_278:7" x1="4820.28" y1="381.289" x2="4939.99" y2="381.289" gradientUnits="userSpaceOnUse">
<stop stop-color="#BE1E68"/>
<stop offset="1" stop-color="#B5188D"/>
</linearGradient>
<linearGradient id="paint12_linear_278:7" x1="2789.98" y1="5002.47" x2="3034.58" y2="5002.47" gradientUnits="userSpaceOnUse">
<stop stop-color="#B4DF86"/>
<stop offset="1" stop-color="#84C743"/>
</linearGradient>
<linearGradient id="paint13_linear_278:7" x1="4077.43" y1="5574.45" x2="4279.58" y2="5574.45" gradientUnits="userSpaceOnUse">
<stop stop-color="#FBE422"/>
<stop offset="1" stop-color="#C8D92B"/>
</linearGradient>
<linearGradient id="paint14_linear_278:7" x1="2485.18" y1="3831" x2="2590.9" y2="3831" gradientUnits="userSpaceOnUse">
<stop stop-color="#F44274"/>
<stop offset="1" stop-color="#E51F9A"/>
</linearGradient>
<linearGradient id="paint15_linear_278:7" x1="2867.38" y1="3758.5" x2="3067.23" y2="3758.5" gradientUnits="userSpaceOnUse">
<stop stop-color="#B5188D"/>
<stop offset="1" stop-color="#4E69AE"/>
</linearGradient>
<linearGradient id="paint16_linear_278:7" x1="1195.4" y1="2710.72" x2="1259.81" y2="2710.72" gradientUnits="userSpaceOnUse">
<stop stop-color="#BE1E68"/>
<stop offset="1" stop-color="#B5188D"/>
</linearGradient>
<linearGradient id="paint17_linear_278:7" x1="418.271" y1="2718.5" x2="456.056" y2="2718.5" gradientUnits="userSpaceOnUse">
<stop stop-color="#F8B54A"/>
<stop offset="1" stop-color="#F8A629"/>
</linearGradient>
<linearGradient id="paint18_linear_278:7" x1="2207.96" y1="1904.13" x2="2298.13" y2="1904.13" gradientUnits="userSpaceOnUse">
<stop stop-color="#BE1E68"/>
<stop offset="1" stop-color="#B5188D"/>
</linearGradient>
<linearGradient id="paint19_linear_278:7" x1="1764.54" y1="1054.38" x2="1902.9" y2="1054.38" gradientUnits="userSpaceOnUse">
<stop stop-color="#6DD0E7"/>
<stop offset="1" stop-color="#01A7DB"/>
</linearGradient>
<linearGradient id="paint20_linear_278:7" x1="3157.71" y1="1635.44" x2="3227.61" y2="1635.44" gradientUnits="userSpaceOnUse">
<stop stop-color="#BE1E68"/>
<stop offset="1" stop-color="#B5188D"/>
</linearGradient>
<linearGradient id="paint21_linear_278:7" x1="5496.56" y1="1450.17" x2="5699.86" y2="1450.17" gradientUnits="userSpaceOnUse">
<stop stop-color="#6DD0E7"/>
<stop offset="1" stop-color="#01A7DB"/>
</linearGradient>
<linearGradient id="paint22_linear_278:7" x1="-23081.1" y1="-1553.07" x2="-23113.6" y2="-1545.63" gradientUnits="userSpaceOnUse">
<stop stop-color="#F71873"/>
<stop offset="1" stop-color="#F8A629"/>
</linearGradient>
<linearGradient id="paint23_linear_278:7" x1="-39532.5" y1="1445.91" x2="-39621.9" y2="1466.36" gradientUnits="userSpaceOnUse">
<stop stop-color="#FBE422"/>
<stop offset="1" stop-color="#C8D92B"/>
</linearGradient>
<linearGradient id="paint24_linear_278:7" x1="-43849.8" y1="-11946.1" x2="-43930.5" y2="-11927.7" gradientUnits="userSpaceOnUse">
<stop stop-color="#BE1E68"/>
<stop offset="1" stop-color="#B5188D"/>
</linearGradient>
<linearGradient id="paint25_linear_278:7" x1="-73124.1" y1="-4841.54" x2="-73354.6" y2="-4788.81" gradientUnits="userSpaceOnUse">
<stop stop-color="#6DD0E7"/>
<stop offset="1" stop-color="#01A7DB"/>
</linearGradient>
<linearGradient id="paint26_linear_278:7" x1="5442.37" y1="2556.31" x2="5558.36" y2="2556.31" gradientUnits="userSpaceOnUse">
<stop stop-color="#B5188D"/>
<stop offset="1" stop-color="#4E69AE"/>
</linearGradient>
<linearGradient id="paint27_linear_278:7" x1="12300.4" y1="4981.26" x2="12977.3" y2="4981.26" gradientUnits="userSpaceOnUse">
<stop stop-color="#6DD0E7"/>
<stop offset="1" stop-color="#01A7DB"/>
</linearGradient>
<linearGradient id="paint28_linear_278:7" x1="6093.58" y1="4708.32" x2="6220.3" y2="4708.32" gradientUnits="userSpaceOnUse">
<stop stop-color="#F71873"/>
<stop offset="1" stop-color="#F8A629"/>
</linearGradient>
<linearGradient id="paint29_linear_278:7" x1="5777.17" y1="655.999" x2="5895.89" y2="655.999" gradientUnits="userSpaceOnUse">
<stop stop-color="#FBE422"/>
<stop offset="1" stop-color="#C8D92B"/>
</linearGradient>
<linearGradient id="paint30_linear_278:7" x1="330.884" y1="73.002" x2="340.043" y2="73.002" gradientUnits="userSpaceOnUse">
<stop stop-color="#F71873"/>
<stop offset="1" stop-color="#C6211B"/>
</linearGradient>
<linearGradient id="paint31_linear_278:7" x1="3178.11" y1="351.966" x2="3241.65" y2="351.966" gradientUnits="userSpaceOnUse">
<stop stop-color="#F71873"/>
<stop offset="1" stop-color="#F8A629"/>
</linearGradient>
<linearGradient id="paint32_linear_278:7" x1="2531.05" y1="1129.9" x2="2600.63" y2="1129.9" gradientUnits="userSpaceOnUse">
<stop stop-color="#6DD0E7"/>
<stop offset="1" stop-color="#01A7DB"/>
</linearGradient>
<linearGradient id="paint33_linear_278:7" x1="1304" y1="3347.69" x2="1422.53" y2="3347.69" gradientUnits="userSpaceOnUse">
<stop stop-color="#FBE422"/>
<stop offset="1" stop-color="#C8D92B"/>
</linearGradient>
<linearGradient id="paint34_linear_278:7" x1="1525.57" y1="326.109" x2="1628.9" y2="326.109" gradientUnits="userSpaceOnUse">
<stop stop-color="#F71873"/>
<stop offset="1" stop-color="#C6211B"/>
</linearGradient>
<linearGradient id="paint35_linear_278:7" x1="5384.27" y1="2234.12" x2="5447.81" y2="2234.12" gradientUnits="userSpaceOnUse">
<stop stop-color="#F71873"/>
<stop offset="1" stop-color="#F8A629"/>
</linearGradient>
<linearGradient id="paint36_linear_278:7" x1="5100.25" y1="361.951" x2="5169.37" y2="361.951" gradientUnits="userSpaceOnUse">
<stop stop-color="#F71873"/>
<stop offset="1" stop-color="#C6211B"/>
</linearGradient>
<linearGradient id="paint37_linear_278:7" x1="481.058" y1="195.636" x2="490.259" y2="195.636" gradientUnits="userSpaceOnUse">
<stop stop-color="#F87D5E"/>
<stop offset="1" stop-color="#EB622C"/>
</linearGradient>
<linearGradient id="paint38_linear_278:7" x1="6395.72" y1="4683.94" x2="6520.82" y2="4683.94" gradientUnits="userSpaceOnUse">
<stop stop-color="#FBE422"/>
<stop offset="1" stop-color="#C8D92B"/>
</linearGradient>
<linearGradient id="paint39_linear_278:7" x1="5806.86" y1="1152.35" x2="5922.46" y2="1152.35" gradientUnits="userSpaceOnUse">
<stop stop-color="#6DD0E7"/>
<stop offset="1" stop-color="#01A7DB"/>
</linearGradient>
<linearGradient id="paint40_linear_278:7" x1="493.079" y1="1751.33" x2="520.493" y2="1751.33" gradientUnits="userSpaceOnUse">
<stop stop-color="#6DD0E7"/>
<stop offset="1" stop-color="#01A7DB"/>
</linearGradient>
<linearGradient id="paint41_linear_278:7" x1="-7260.82" y1="6513.02" x2="-7117.85" y2="6627.06" gradientUnits="userSpaceOnUse">
<stop stop-color="#F71873"/>
<stop offset="1" stop-color="#F8A629"/>
</linearGradient>
<linearGradient id="paint42_linear_278:7" x1="4223.07" y1="810.649" x2="4315.85" y2="810.649" gradientUnits="userSpaceOnUse">
<stop stop-color="#F8B54A"/>
<stop offset="1" stop-color="#F8A629"/>
</linearGradient>
<linearGradient id="paint43_linear_278:7" x1="3430.23" y1="3855.66" x2="3534.47" y2="3855.66" gradientUnits="userSpaceOnUse">
<stop stop-color="#B4DF86"/>
<stop offset="1" stop-color="#84C743"/>
</linearGradient>
<linearGradient id="paint44_linear_278:7" x1="4932.29" y1="7952.3" x2="5057.39" y2="7952.3" gradientUnits="userSpaceOnUse">
<stop stop-color="#FBE422"/>
<stop offset="1" stop-color="#C8D92B"/>
</linearGradient>
<linearGradient id="paint45_linear_278:7" x1="5901.14" y1="5797.01" x2="6067.78" y2="5797.01" gradientUnits="userSpaceOnUse">
<stop stop-color="#F71873"/>
<stop offset="1" stop-color="#F8A629"/>
</linearGradient>
<linearGradient id="paint46_linear_278:7" x1="2270.17" y1="-27445.4" x2="2294.34" y2="-27525.7" gradientUnits="userSpaceOnUse">
<stop stop-color="#F8B54A"/>
<stop offset="1" stop-color="#F8A629"/>
</linearGradient>
<linearGradient id="paint47_linear_278:7" x1="1387.45" y1="1429.84" x2="1425.19" y2="1438.23" gradientUnits="userSpaceOnUse">
<stop stop-color="#F71873"/>
<stop offset="1" stop-color="#F8A629"/>
</linearGradient>
<linearGradient id="paint48_linear_278:7" x1="2444.95" y1="1184.9" x2="2527.92" y2="1184.9" gradientUnits="userSpaceOnUse">
<stop stop-color="#BE1E68"/>
<stop offset="1" stop-color="#B5188D"/>
</linearGradient>
<linearGradient id="paint49_linear_278:7" x1="1644.88" y1="1122.73" x2="1684.35" y2="1122.73" gradientUnits="userSpaceOnUse">
<stop stop-color="#F71873"/>
<stop offset="1" stop-color="#F8A629"/>
</linearGradient>
<linearGradient id="paint50_linear_278:7" x1="2661.14" y1="1084.13" x2="2727.15" y2="1084.13" gradientUnits="userSpaceOnUse">
<stop stop-color="#F71873"/>
<stop offset="1" stop-color="#F8A629"/>
</linearGradient>
<linearGradient id="paint51_linear_278:7" x1="2597.79" y1="875.942" x2="2661.72" y2="875.942" gradientUnits="userSpaceOnUse">
<stop stop-color="#F8B54A"/>
<stop offset="1" stop-color="#F8A629"/>
</linearGradient>
<linearGradient id="paint52_linear_278:7" x1="4208.11" y1="809.867" x2="4314.3" y2="809.867" gradientUnits="userSpaceOnUse">
<stop stop-color="#F8B54A"/>
<stop offset="1" stop-color="#F8A629"/>
</linearGradient>
<linearGradient id="paint53_linear_278:7" x1="1050.44" y1="2521.09" x2="1123.68" y2="2521.09" gradientUnits="userSpaceOnUse">
<stop stop-color="#F44274"/>
<stop offset="1" stop-color="#E51F9A"/>
</linearGradient>
<linearGradient id="paint54_linear_278:7" x1="1912.08" y1="1771.76" x2="2043.72" y2="1771.76" gradientUnits="userSpaceOnUse">
<stop stop-color="#6DD0E7"/>
<stop offset="1" stop-color="#01A7DB"/>
</linearGradient>
<linearGradient id="paint55_linear_278:7" x1="2359.59" y1="2151.85" x2="2587.14" y2="2151.85" gradientUnits="userSpaceOnUse">
<stop stop-color="#F8B54A"/>
<stop offset="1" stop-color="#F8A629"/>
</linearGradient>
<linearGradient id="paint56_linear_278:7" x1="3932.28" y1="4108.57" x2="4024.54" y2="4108.57" gradientUnits="userSpaceOnUse">
<stop stop-color="#BE1E68"/>
<stop offset="1" stop-color="#B5188D"/>
</linearGradient>
<linearGradient id="paint57_linear_278:7" x1="6568.51" y1="4076.17" x2="6717.03" y2="4076.17" gradientUnits="userSpaceOnUse">
<stop stop-color="#F71873"/>
<stop offset="1" stop-color="#F8A629"/>
</linearGradient>
<linearGradient id="paint58_linear_278:7" x1="4764.28" y1="3398.4" x2="4824.55" y2="3398.4" gradientUnits="userSpaceOnUse">
<stop stop-color="#B4DF86"/>
<stop offset="1" stop-color="#84C743"/>
</linearGradient>
<linearGradient id="paint59_linear_278:7" x1="212.743" y1="8287.96" x2="348.844" y2="8323.17" gradientUnits="userSpaceOnUse">
<stop stop-color="#F71873"/>
<stop offset="1" stop-color="#F8A629"/>
</linearGradient>
<linearGradient id="paint60_linear_278:7" x1="244.003" y1="7067.35" x2="302.465" y2="7082.47" gradientUnits="userSpaceOnUse">
<stop stop-color="#B4DF86"/>
<stop offset="1" stop-color="#84C743"/>
</linearGradient>
<linearGradient id="paint61_linear_278:7" x1="3407.63" y1="1249.88" x2="3495.27" y2="1249.88" gradientUnits="userSpaceOnUse">
<stop stop-color="#B4DF86"/>
<stop offset="1" stop-color="#84C743"/>
</linearGradient>
<linearGradient id="paint62_linear_278:7" x1="2528.68" y1="728.44" x2="2642.44" y2="728.44" gradientUnits="userSpaceOnUse">
<stop stop-color="#FBE422"/>
<stop offset="1" stop-color="#C8D92B"/>
</linearGradient>
<linearGradient id="paint63_linear_278:7" x1="5156.48" y1="4087.34" x2="5306.77" y2="4087.34" gradientUnits="userSpaceOnUse">
<stop stop-color="#F44274"/>
<stop offset="1" stop-color="#E51F9A"/>
</linearGradient>
<linearGradient id="paint64_linear_278:7" x1="3388.25" y1="4605.62" x2="3468.77" y2="4605.62" gradientUnits="userSpaceOnUse">
<stop stop-color="#B5188D"/>
<stop offset="1" stop-color="#4E69AE"/>
</linearGradient>
<linearGradient id="paint65_linear_278:7" x1="3192.33" y1="4384.3" x2="3309.1" y2="4384.3" gradientUnits="userSpaceOnUse">
<stop stop-color="#F44274"/>
<stop offset="1" stop-color="#E51F9A"/>
</linearGradient>
<linearGradient id="paint66_linear_278:7" x1="3196.4" y1="5759.61" x2="3335.82" y2="5759.61" gradientUnits="userSpaceOnUse">
<stop stop-color="#6DD0E7"/>
<stop offset="1" stop-color="#01A7DB"/>
</linearGradient>
<linearGradient id="paint67_linear_278:7" x1="-6264.42" y1="-68281.7" x2="-5568.4" y2="-69939.1" gradientUnits="userSpaceOnUse">
<stop stop-color="#B4DF86"/>
<stop offset="1" stop-color="#84C743"/>
</linearGradient>
<linearGradient id="paint68_linear_278:7" x1="-14502.9" y1="-77393" x2="-14169.6" y2="-79132.5" gradientUnits="userSpaceOnUse">
<stop stop-color="#F71873"/>
<stop offset="1" stop-color="#C6211B"/>
</linearGradient>
<linearGradient id="paint69_linear_278:7" x1="7099.4" y1="4398.44" x2="7025.99" y2="4605.67" gradientUnits="userSpaceOnUse">
<stop stop-color="#6DD0E7"/>
<stop offset="1" stop-color="#01A7DB"/>
</linearGradient>
<linearGradient id="paint70_linear_278:7" x1="10944.9" y1="-7084.43" x2="11321.5" y2="-6843.69" gradientUnits="userSpaceOnUse">
<stop stop-color="#F71873"/>
<stop offset="1" stop-color="#F8A629"/>
</linearGradient>
<linearGradient id="paint71_linear_278:7" x1="-78845.6" y1="15705.5" x2="-79118" y2="15337.8" gradientUnits="userSpaceOnUse">
<stop stop-color="#BE1E68"/>
<stop offset="1" stop-color="#B5188D"/>
</linearGradient>
<linearGradient id="paint72_linear_278:7" x1="-44421.2" y1="-79416.4" x2="-45700.9" y2="-79531.9" gradientUnits="userSpaceOnUse">
<stop stop-color="#F8B54A"/>
<stop offset="1" stop-color="#F8A629"/>
</linearGradient>
<linearGradient id="paint73_linear_278:7" x1="14907.8" y1="-12468.6" x2="15599.3" y2="-13045.4" gradientUnits="userSpaceOnUse">
<stop stop-color="#F71873"/>
<stop offset="1" stop-color="#C6211B"/>
</linearGradient>
<linearGradient id="paint74_linear_278:7" x1="-6843.03" y1="-336.865" x2="-6846.62" y2="-335.055" gradientUnits="userSpaceOnUse">
<stop stop-color="#F8B54A"/>
<stop offset="1" stop-color="#F8A629"/>
</linearGradient>
<linearGradient id="paint75_linear_278:7" x1="-3782.69" y1="1037.71" x2="-3785.69" y2="1039.22" gradientUnits="userSpaceOnUse">
<stop stop-color="#B5188D"/>
<stop offset="1" stop-color="#4E69AE"/>
</linearGradient>
<linearGradient id="paint76_linear_278:7" x1="-11228.7" y1="-530.937" x2="-11237" y2="-526.758" gradientUnits="userSpaceOnUse">
<stop stop-color="#F44274"/>
<stop offset="1" stop-color="#E51F9A"/>
</linearGradient>
<linearGradient id="paint77_linear_278:7" x1="-8845.74" y1="-6925.58" x2="-8855.07" y2="-6932.5" gradientUnits="userSpaceOnUse">
<stop stop-color="#6DD0E7"/>
<stop offset="1" stop-color="#01A7DB"/>
</linearGradient>
<linearGradient id="paint78_linear_278:7" x1="-8310.79" y1="-1449.59" x2="-8316.8" y2="-1446.57" gradientUnits="userSpaceOnUse">
<stop stop-color="#F71873"/>
<stop offset="1" stop-color="#F8A629"/>
</linearGradient>
<linearGradient id="paint79_linear_278:7" x1="-5744.99" y1="980.241" x2="-5749.31" y2="982.41" gradientUnits="userSpaceOnUse">
<stop stop-color="#F44274"/>
<stop offset="1" stop-color="#E51F9A"/>
</linearGradient>
<linearGradient id="paint80_linear_278:7" x1="-11412.1" y1="847.163" x2="-11421.5" y2="851.85" gradientUnits="userSpaceOnUse">
<stop stop-color="#BE1E68"/>
<stop offset="1" stop-color="#B5188D"/>
</linearGradient>
<linearGradient id="paint81_linear_278:7" x1="-9601.21" y1="780.806" x2="-9608.35" y2="784.398" gradientUnits="userSpaceOnUse">
<stop stop-color="#FBE422"/>
<stop offset="1" stop-color="#C8D92B"/>
</linearGradient>
<linearGradient id="paint82_linear_278:7" x1="-6892.19" y1="3557.48" x2="-6898.45" y2="3565.31" gradientUnits="userSpaceOnUse">
<stop stop-color="#F44274"/>
<stop offset="1" stop-color="#E51F9A"/>
</linearGradient>
<linearGradient id="paint83_linear_278:7" x1="-10685.3" y1="2490.13" x2="-10692.4" y2="2499.01" gradientUnits="userSpaceOnUse">
<stop stop-color="#F44274"/>
<stop offset="1" stop-color="#E51F9A"/>
</linearGradient>
<linearGradient id="paint84_linear_278:7" x1="-10852.5" y1="3518.27" x2="-10861.1" y2="3529" gradientUnits="userSpaceOnUse">
<stop stop-color="#B4DF86"/>
<stop offset="1" stop-color="#84C743"/>
</linearGradient>
<linearGradient id="paint85_linear_278:7" x1="-4971.65" y1="1547.37" x2="-4974.33" y2="1550.7" gradientUnits="userSpaceOnUse">
<stop stop-color="#F44274"/>
<stop offset="1" stop-color="#E51F9A"/>
</linearGradient>
<linearGradient id="paint86_linear_278:7" x1="-4213.18" y1="1636.54" x2="-4214.83" y2="1638.59" gradientUnits="userSpaceOnUse">
<stop stop-color="#B5188D"/>
<stop offset="1" stop-color="#4E69AE"/>
</linearGradient>
<linearGradient id="paint87_linear_278:7" x1="-10087.8" y1="3845.77" x2="-10096.2" y2="3856.13" gradientUnits="userSpaceOnUse">
<stop stop-color="#6DD0E7"/>
<stop offset="1" stop-color="#01A7DB"/>
</linearGradient>
<linearGradient id="paint88_linear_278:7" x1="-8507.23" y1="3810.47" x2="-8513.6" y2="3818.38" gradientUnits="userSpaceOnUse">
<stop stop-color="#B4DF86"/>
<stop offset="1" stop-color="#84C743"/>
</linearGradient>
<linearGradient id="paint89_linear_278:7" x1="-4516.33" y1="1064.05" x2="-4518.41" y2="1066.64" gradientUnits="userSpaceOnUse">
<stop stop-color="#BE1E68"/>
<stop offset="1" stop-color="#B5188D"/>
</linearGradient>
<linearGradient id="paint90_linear_278:7" x1="-9971.09" y1="-2379.84" x2="-9979.32" y2="-2375.7" gradientUnits="userSpaceOnUse">
<stop stop-color="#F44274"/>
<stop offset="1" stop-color="#E51F9A"/>
</linearGradient>
<linearGradient id="paint91_linear_278:7" x1="-9134.57" y1="-721.231" x2="-9141.12" y2="-717.938" gradientUnits="userSpaceOnUse">
<stop stop-color="#6DD0E7"/>
<stop offset="1" stop-color="#01A7DB"/>
</linearGradient>
<linearGradient id="paint92_linear_278:7" x1="-10734.9" y1="-799.214" x2="-10740.9" y2="-796.198" gradientUnits="userSpaceOnUse">
<stop stop-color="#BE1E68"/>
<stop offset="1" stop-color="#B5188D"/>
</linearGradient>
<linearGradient id="paint93_linear_278:7" x1="-7749.41" y1="-1391.93" x2="-7755.03" y2="-1389.1" gradientUnits="userSpaceOnUse">
<stop stop-color="#B5188D"/>
<stop offset="1" stop-color="#4E69AE"/>
</linearGradient>
<linearGradient id="paint94_linear_278:7" x1="-11739.5" y1="-307.281" x2="-11748.5" y2="-302.761" gradientUnits="userSpaceOnUse">
<stop stop-color="#FBE422"/>
<stop offset="1" stop-color="#C8D92B"/>
</linearGradient>
<linearGradient id="paint95_linear_278:7" x1="-10118.3" y1="469.326" x2="-10126.8" y2="473.618" gradientUnits="userSpaceOnUse">
<stop stop-color="#B5188D"/>
<stop offset="1" stop-color="#4E69AE"/>
</linearGradient>
<linearGradient id="paint96_linear_278:7" x1="-10399.8" y1="1227.72" x2="-10410" y2="1232.83" gradientUnits="userSpaceOnUse">
<stop stop-color="#F8B54A"/>
<stop offset="1" stop-color="#F8A629"/>
</linearGradient>
<linearGradient id="paint97_linear_278:7" x1="-13097.8" y1="-1022.11" x2="-13107.3" y2="-1017.35" gradientUnits="userSpaceOnUse">
<stop stop-color="#B4DF86"/>
<stop offset="1" stop-color="#84C743"/>
</linearGradient>
<linearGradient id="paint98_linear_278:7" x1="-11598.1" y1="-3097.35" x2="-11608.3" y2="-3092.21" gradientUnits="userSpaceOnUse">
<stop stop-color="#F8B54A"/>
<stop offset="1" stop-color="#F8A629"/>
</linearGradient>
<linearGradient id="paint99_linear_278:7" x1="-5650.91" y1="-1244.32" x2="-5654.87" y2="-1242.33" gradientUnits="userSpaceOnUse">
<stop stop-color="#6DD0E7"/>
<stop offset="1" stop-color="#01A7DB"/>
</linearGradient>
<linearGradient id="paint100_linear_278:7" x1="-5720.69" y1="-2287.55" x2="-5724.98" y2="-2285.4" gradientUnits="userSpaceOnUse">
<stop stop-color="#BE1E68"/>
<stop offset="1" stop-color="#B5188D"/>
</linearGradient>
<linearGradient id="paint101_linear_278:7" x1="-10800.2" y1="1321.07" x2="-10811.2" y2="1326.58" gradientUnits="userSpaceOnUse">
<stop stop-color="#B4DF86"/>
<stop offset="1" stop-color="#84C743"/>
</linearGradient>
<linearGradient id="paint102_linear_278:7" x1="-12909.6" y1="85.3634" x2="-12920.5" y2="90.8247" gradientUnits="userSpaceOnUse">
<stop stop-color="#FBE422"/>
<stop offset="1" stop-color="#C8D92B"/>
</linearGradient>
<linearGradient id="paint103_linear_278:7" x1="-7488.13" y1="-226.409" x2="-7492.95" y2="-223.987" gradientUnits="userSpaceOnUse">
<stop stop-color="#F8B54A"/>
<stop offset="1" stop-color="#F8A629"/>
</linearGradient>
<linearGradient id="paint104_linear_278:7" x1="-5584.43" y1="-959.117" x2="-5588.15" y2="-957.245" gradientUnits="userSpaceOnUse">
<stop stop-color="#BE1E68"/>
<stop offset="1" stop-color="#B5188D"/>
</linearGradient>
<linearGradient id="paint105_linear_278:7" x1="-9756.92" y1="-2415.21" x2="-9765.08" y2="-2411.1" gradientUnits="userSpaceOnUse">
<stop stop-color="#6DD0E7"/>
<stop offset="1" stop-color="#01A7DB"/>
</linearGradient>
<linearGradient id="paint106_linear_278:7" x1="-5028.44" y1="-1958.96" x2="-5032.17" y2="-1957.08" gradientUnits="userSpaceOnUse">
<stop stop-color="#F44274"/>
<stop offset="1" stop-color="#E51F9A"/>
</linearGradient>
<linearGradient id="paint107_linear_278:7" x1="-8897.85" y1="1527.55" x2="-8906.56" y2="1531.93" gradientUnits="userSpaceOnUse">
<stop stop-color="#B5188D"/>
<stop offset="1" stop-color="#4E69AE"/>
</linearGradient>
<linearGradient id="paint108_linear_278:7" x1="-4278.85" y1="-629.883" x2="-4281.75" y2="-628.424" gradientUnits="userSpaceOnUse">
<stop stop-color="#BE1E68"/>
<stop offset="1" stop-color="#B5188D"/>
</linearGradient>
<linearGradient id="paint109_linear_278:7" x1="-5161.7" y1="-300.965" x2="-5164.21" y2="-299.702" gradientUnits="userSpaceOnUse">
<stop stop-color="#F8B54A"/>
<stop offset="1" stop-color="#F8A629"/>
</linearGradient>
<linearGradient id="paint110_linear_278:7" x1="-7189.96" y1="-1918.64" x2="-7195.4" y2="-1915.9" gradientUnits="userSpaceOnUse">
<stop stop-color="#6DD0E7"/>
<stop offset="1" stop-color="#01A7DB"/>
</linearGradient>
<linearGradient id="paint111_linear_278:7" x1="-10370.2" y1="553.91" x2="-10378.1" y2="557.85" gradientUnits="userSpaceOnUse">
<stop stop-color="#F71873"/>
<stop offset="1" stop-color="#F8A629"/>
</linearGradient>
<linearGradient id="paint112_linear_278:7" x1="-13044.9" y1="523.638" x2="-13055.8" y2="529.105" gradientUnits="userSpaceOnUse">
<stop stop-color="#FBE422"/>
<stop offset="1" stop-color="#C8D92B"/>
</linearGradient>
<linearGradient id="paint113_linear_278:7" x1="-8743.05" y1="-700.541" x2="-8747.71" y2="-698.199" gradientUnits="userSpaceOnUse">
<stop stop-color="#BE1E68"/>
<stop offset="1" stop-color="#B5188D"/>
</linearGradient>
<linearGradient id="paint114_linear_278:7" x1="-12770.1" y1="-1394.08" x2="-12778" y2="-1390.1" gradientUnits="userSpaceOnUse">
<stop stop-color="#FBE422"/>
<stop offset="1" stop-color="#C8D92B"/>
</linearGradient>
<linearGradient id="paint115_linear_278:7" x1="-7106.74" y1="868.193" x2="-7112.24" y2="870.96" gradientUnits="userSpaceOnUse">
<stop stop-color="#BE1E68"/>
<stop offset="1" stop-color="#B5188D"/>
</linearGradient>
<linearGradient id="paint116_linear_278:7" x1="-12738.9" y1="-2574.38" x2="-12750" y2="-2568.79" gradientUnits="userSpaceOnUse">
<stop stop-color="#B4DF86"/>
<stop offset="1" stop-color="#84C743"/>
</linearGradient>
<linearGradient id="paint117_linear_278:7" x1="-9064.43" y1="-426.839" x2="-9070.63" y2="-423.722" gradientUnits="userSpaceOnUse">
<stop stop-color="#B5188D"/>
<stop offset="1" stop-color="#4E69AE"/>
</linearGradient>
<linearGradient id="paint118_linear_278:7" x1="-13576.1" y1="776.157" x2="-13588.4" y2="782.321" gradientUnits="userSpaceOnUse">
<stop stop-color="#6DD0E7"/>
<stop offset="1" stop-color="#01A7DB"/>
</linearGradient>
<linearGradient id="paint119_linear_278:7" x1="-7648.5" y1="925.46" x2="-7654.61" y2="928.536" gradientUnits="userSpaceOnUse">
<stop stop-color="#F71873"/>
<stop offset="1" stop-color="#F8A629"/>
</linearGradient>
<linearGradient id="paint120_linear_278:7" x1="-10029.2" y1="312.823" x2="-10036.1" y2="316.278" gradientUnits="userSpaceOnUse">
<stop stop-color="#FBE422"/>
<stop offset="1" stop-color="#C8D92B"/>
</linearGradient>
<linearGradient id="paint121_linear_278:7" x1="-6654.08" y1="-1330.89" x2="-6658.6" y2="-1328.62" gradientUnits="userSpaceOnUse">
<stop stop-color="#F87D5E"/>
<stop offset="1" stop-color="#EB622C"/>
</linearGradient>
<linearGradient id="paint122_linear_278:7" x1="-9672.66" y1="163.686" x2="-9679.45" y2="167.097" gradientUnits="userSpaceOnUse">
<stop stop-color="#FBE422"/>
<stop offset="1" stop-color="#C8D92B"/>
</linearGradient>
<linearGradient id="paint123_linear_278:7" x1="-9558.23" y1="-240.908" x2="-9564.59" y2="-237.708" gradientUnits="userSpaceOnUse">
<stop stop-color="#6DD0E7"/>
<stop offset="1" stop-color="#01A7DB"/>
</linearGradient>
<linearGradient id="paint124_linear_278:7" x1="-7928.79" y1="-2787.34" x2="-7934.66" y2="-2784.39" gradientUnits="userSpaceOnUse">
<stop stop-color="#F71873"/>
<stop offset="1" stop-color="#F8A629"/>
</linearGradient>
<linearGradient id="paint125_linear_278:7" x1="-8180.02" y1="-59.1415" x2="-8185.21" y2="-56.5297" gradientUnits="userSpaceOnUse">
<stop stop-color="#F8B54A"/>
<stop offset="1" stop-color="#F8A629"/>
</linearGradient>
<linearGradient id="paint126_linear_278:7" x1="-4827.08" y1="-2086.87" x2="-4830.51" y2="-2085.15" gradientUnits="userSpaceOnUse">
<stop stop-color="#F71873"/>
<stop offset="1" stop-color="#C6211B"/>
</linearGradient>
<linearGradient id="paint127_linear_278:7" x1="-8602.74" y1="79.5168" x2="-8608.58" y2="82.4587" gradientUnits="userSpaceOnUse">
<stop stop-color="#F8B54A"/>
<stop offset="1" stop-color="#F8A629"/>
</linearGradient>
<linearGradient id="paint128_linear_278:7" x1="-8740.67" y1="401.085" x2="-8747.17" y2="404.353" gradientUnits="userSpaceOnUse">
<stop stop-color="#F71873"/>
<stop offset="1" stop-color="#F8A629"/>
</linearGradient>
<linearGradient id="paint129_linear_278:7" x1="-5625.75" y1="-801.996" x2="-5629.61" y2="-800.055" gradientUnits="userSpaceOnUse">
<stop stop-color="#BE1E68"/>
<stop offset="1" stop-color="#B5188D"/>
</linearGradient>
<linearGradient id="paint130_linear_278:7" x1="-5495.05" y1="1309.52" x2="-5499.86" y2="1311.95" gradientUnits="userSpaceOnUse">
<stop stop-color="#F8B54A"/>
<stop offset="1" stop-color="#F8A629"/>
</linearGradient>
<linearGradient id="paint131_linear_278:7" x1="-5125.36" y1="732.813" x2="-5129.08" y2="734.682" gradientUnits="userSpaceOnUse">
<stop stop-color="#F44274"/>
<stop offset="1" stop-color="#E51F9A"/>
</linearGradient>
<linearGradient id="paint132_linear_278:7" x1="-10069.2" y1="-152.557" x2="-10076.5" y2="-148.875" gradientUnits="userSpaceOnUse">
<stop stop-color="#6DD0E7"/>
<stop offset="1" stop-color="#01A7DB"/>
</linearGradient>
<linearGradient id="paint133_linear_278:7" x1="-10417.7" y1="-2747.68" x2="-10426.7" y2="-2743.18" gradientUnits="userSpaceOnUse">
<stop stop-color="#F8B54A"/>
<stop offset="1" stop-color="#F8A629"/>
</linearGradient>
<linearGradient id="paint134_linear_278:7" x1="-9175.35" y1="-361.674" x2="-9180.9" y2="-358.878" gradientUnits="userSpaceOnUse">
<stop stop-color="#BE1E68"/>
<stop offset="1" stop-color="#B5188D"/>
</linearGradient>
<linearGradient id="paint135_linear_278:7" x1="-8428.15" y1="1163.51" x2="-8435.18" y2="1167.04" gradientUnits="userSpaceOnUse">
<stop stop-color="#F71873"/>
<stop offset="1" stop-color="#F8A629"/>
</linearGradient>
<linearGradient id="paint136_linear_278:7" x1="-9176.98" y1="-1315.66" x2="-9181.29" y2="-1313.49" gradientUnits="userSpaceOnUse">
<stop stop-color="#B4DF86"/>
<stop offset="1" stop-color="#84C743"/>
</linearGradient>
<linearGradient id="paint137_linear_278:7" x1="-7246.36" y1="1276.93" x2="-7252.94" y2="1280.23" gradientUnits="userSpaceOnUse">
<stop stop-color="#F44274"/>
<stop offset="1" stop-color="#E51F9A"/>
</linearGradient>
<linearGradient id="paint138_linear_278:7" x1="-8389.57" y1="-443.98" x2="-8394.48" y2="-441.511" gradientUnits="userSpaceOnUse">
<stop stop-color="#B5188D"/>
<stop offset="1" stop-color="#4E69AE"/>
</linearGradient>
<linearGradient id="paint139_linear_278:7" x1="-7753.84" y1="-1220.17" x2="-7759.29" y2="-1217.43" gradientUnits="userSpaceOnUse">
<stop stop-color="#F44274"/>
<stop offset="1" stop-color="#E51F9A"/>
</linearGradient>
<linearGradient id="paint140_linear_278:7" x1="-6742.68" y1="-2495.36" x2="-6747.78" y2="-2492.8" gradientUnits="userSpaceOnUse">
<stop stop-color="#6DD0E7"/>
<stop offset="1" stop-color="#01A7DB"/>
</linearGradient>
<linearGradient id="paint141_linear_278:7" x1="-64795" y1="137838" x2="-62176.3" y2="139247" gradientUnits="userSpaceOnUse">
<stop stop-color="#F71873"/>
<stop offset="1" stop-color="#C6211B"/>
</linearGradient>
<linearGradient id="paint142_linear_278:7" x1="-7509.67" y1="18491.3" x2="-7623.17" y2="18804.5" gradientUnits="userSpaceOnUse">
<stop stop-color="#F44274"/>
<stop offset="1" stop-color="#E51F9A"/>
</linearGradient>
<linearGradient id="paint143_linear_278:7" x1="-28945.5" y1="59540.3" x2="-29310.6" y2="61256.2" gradientUnits="userSpaceOnUse">
<stop stop-color="#F44274"/>
<stop offset="1" stop-color="#E51F9A"/>
</linearGradient>
<linearGradient id="paint144_linear_278:7" x1="-25093.7" y1="51203.7" x2="-24676" y2="51966.9" gradientUnits="userSpaceOnUse">
<stop stop-color="#F44274"/>
<stop offset="1" stop-color="#E51F9A"/>
</linearGradient>
<linearGradient id="paint145_linear_278:7" x1="28996.3" y1="-90450.6" x2="29508" y2="-89674.1" gradientUnits="userSpaceOnUse">
<stop stop-color="#F44274"/>
<stop offset="1" stop-color="#E51F9A"/>
</linearGradient>
<linearGradient id="paint146_linear_278:7" x1="12192.3" y1="-41809.3" x2="13601.2" y2="-42431.6" gradientUnits="userSpaceOnUse">
<stop stop-color="#B5188D"/>
<stop offset="1" stop-color="#4E69AE"/>
</linearGradient>
<linearGradient id="paint147_linear_278:7" x1="-12042.9" y1="59420.9" x2="-11280.1" y2="59685.2" gradientUnits="userSpaceOnUse">
<stop stop-color="#F71873"/>
<stop offset="1" stop-color="#C6211B"/>
</linearGradient>
<linearGradient id="paint148_linear_278:7" x1="816.776" y1="22341.6" x2="1689.92" y2="22119.8" gradientUnits="userSpaceOnUse">
<stop stop-color="#F8B54A"/>
<stop offset="1" stop-color="#F8A629"/>
</linearGradient>
<linearGradient id="paint149_linear_278:7" x1="-3692.88" y1="20025.9" x2="-3522.11" y2="20024.1" gradientUnits="userSpaceOnUse">
<stop stop-color="#F8B54A"/>
<stop offset="1" stop-color="#F8A629"/>
</linearGradient>
<linearGradient id="paint150_linear_278:7" x1="-15334.6" y1="-29865.7" x2="-15504.5" y2="-30216.2" gradientUnits="userSpaceOnUse">
<stop stop-color="#B5188D"/>
<stop offset="1" stop-color="#4E69AE"/>
</linearGradient>
<linearGradient id="paint151_linear_278:7" x1="-45071.4" y1="-91285.8" x2="-45406.2" y2="-91976.2" gradientUnits="userSpaceOnUse">
<stop stop-color="#F71873"/>
<stop offset="1" stop-color="#C6211B"/>
</linearGradient>
<linearGradient id="paint152_linear_278:7" x1="-18971.6" y1="-38954.4" x2="-19150.4" y2="-38773.2" gradientUnits="userSpaceOnUse">
<stop stop-color="#B5188D"/>
<stop offset="1" stop-color="#4E69AE"/>
</linearGradient>
<linearGradient id="paint153_linear_278:7" x1="-31329.1" y1="-63896.3" x2="-31678.5" y2="-64158.3" gradientUnits="userSpaceOnUse">
<stop stop-color="#F71873"/>
<stop offset="1" stop-color="#C6211B"/>
</linearGradient>
<linearGradient id="paint154_linear_278:7" x1="17505.9" y1="3550.97" x2="18447.6" y2="3550.97" gradientUnits="userSpaceOnUse">
<stop stop-color="#6DD0E7"/>
<stop offset="1" stop-color="#01A7DB"/>
</linearGradient>
<linearGradient id="paint155_linear_278:7" x1="-8467.98" y1="8696.55" x2="-8389.35" y2="8563.81" gradientUnits="userSpaceOnUse">
<stop stop-color="#6DD0E7"/>
<stop offset="1" stop-color="#01A7DB"/>
</linearGradient>
<clipPath id="clip0_278:7">
<rect width="536" height="414" fill="white"/>
</clipPath>
</defs>
</svg>
