<?xml version="1.0" encoding="utf-8"?>
<!-- Generator: Adobe Illustrator 23.0.5, SVG Export Plug-In . SVG Version: 6.00 Build 0)  -->
<svg version="1.1" id="Слой_1" xmlns="http://www.w3.org/2000/svg" xmlns:xlink="http://www.w3.org/1999/xlink" x="0px" y="0px"
	 viewBox="0 0 189.7 31" enable-background="new 0 0 189.7 31" xml:space="preserve">
<g>
	<rect x="19.9" y="15.6" fill="#FF00A1" width="3.6" height="1.2"/>
	<rect x="20" y="17" fill="#FF00A1" width="3.4" height="1.1"/>
	<rect x="20.1" y="18.3" fill="#FF00A1" width="3.2" height="1"/>
	<rect x="20.2" y="19.7" fill="#FF00A1" width="3" height="1"/>
	<rect x="20.4" y="21" fill="#FF00A1" width="2.8" height="0.9"/>
	<rect x="20.5" y="22.4" fill="#FF00A1" width="2.6" height="0.8"/>
	<rect x="20.6" y="23.8" fill="#FF00A1" width="2.3" height="0.8"/>
	<rect x="20.7" y="25.1" fill="#FF00A1" width="2.1" height="0.7"/>
	<rect x="20.8" y="26.5" fill="#FF00A1" width="1.9" height="0.6"/>
	<rect x="20.9" y="27.9" fill="#FF00A1" width="1.7" height="0.6"/>
	<rect x="21" y="29.2" fill="#FF00A1" width="1.5" height="0.5"/>
	<rect x="21.1" y="30.6" fill="#FF00A1" width="1.3" height="0.4"/>
	<rect x="19.9" y="14.3" fill="#FF00A1" width="3.6" height="1.2"/>
	<rect x="20" y="13" fill="#FF00A1" width="3.4" height="1.1"/>
	<rect x="20.1" y="11.7" fill="#FF00A1" width="3.2" height="1"/>
	<rect x="20.2" y="10.4" fill="#FF00A1" width="3" height="1"/>
	<rect x="20.4" y="9.1" fill="#FF00A1" width="2.8" height="0.9"/>
	<rect x="20.5" y="7.8" fill="#FF00A1" width="2.6" height="0.8"/>
	<rect x="20.6" y="6.5" fill="#FF00A1" width="2.3" height="0.8"/>
	<rect x="20.7" y="5.2" fill="#FF00A1" width="2.1" height="0.7"/>
	<rect x="20.8" y="3.9" fill="#FF00A1" width="1.9" height="0.6"/>
	<rect x="20.9" y="2.6" fill="#FF00A1" width="1.7" height="0.6"/>
	<rect x="21" y="1.3" fill="#FF00A1" width="1.5" height="0.5"/>
	<rect x="21.1" fill="#FF00A1" width="1.3" height="0.4"/>
	<rect x="129.5" y="15.6" fill="#FF00A1" width="3.6" height="1.2"/>
	<rect x="129.6" y="17" fill="#FF00A1" width="3.4" height="1.1"/>
	<rect x="129.7" y="18.3" fill="#FF00A1" width="3.2" height="1"/>
	<rect x="129.8" y="19.7" fill="#FF00A1" width="3" height="1"/>
	<rect x="130" y="21" fill="#FF00A1" width="2.8" height="0.9"/>
	<rect x="130.1" y="22.4" fill="#FF00A1" width="2.6" height="0.8"/>
	<rect x="130.2" y="23.8" fill="#FF00A1" width="2.3" height="0.8"/>
	<rect x="130.3" y="25.1" fill="#FF00A1" width="2.1" height="0.7"/>
	<rect x="130.4" y="26.5" fill="#FF00A1" width="1.9" height="0.6"/>
	<rect x="130.5" y="27.9" fill="#FF00A1" width="1.7" height="0.6"/>
	<rect x="130.6" y="29.2" fill="#FF00A1" width="1.5" height="0.5"/>
	<rect x="130.7" y="30.6" fill="#FF00A1" width="1.3" height="0.4"/>
	<rect x="129.5" y="14.3" fill="#FF00A1" width="3.6" height="1.2"/>
	<rect x="129.6" y="13" fill="#FF00A1" width="3.4" height="1.1"/>
	<rect x="129.7" y="11.7" fill="#FF00A1" width="3.2" height="1"/>
	<rect x="129.8" y="10.4" fill="#FF00A1" width="3" height="1"/>
	<rect x="130" y="9.1" fill="#FF00A1" width="2.8" height="0.9"/>
	<rect x="130.1" y="7.8" fill="#FF00A1" width="2.6" height="0.8"/>
	<rect x="130.2" y="6.5" fill="#FF00A1" width="2.3" height="0.8"/>
	<rect x="130.3" y="5.2" fill="#FF00A1" width="2.1" height="0.7"/>
	<rect x="130.4" y="3.9" fill="#FF00A1" width="1.9" height="0.6"/>
	<rect x="130.5" y="2.6" fill="#FF00A1" width="1.7" height="0.6"/>
	<rect x="130.6" y="1.3" fill="#FF00A1" width="1.5" height="0.5"/>
	<rect x="130.7" fill="#FF00A1" width="1.3" height="0.4"/>
	<rect x="104.2" y="15.6" fill="#FF00A1" width="3.6" height="1.2"/>
	<rect x="104.4" y="16.9" fill="#FF00A1" width="3.3" height="1.1"/>
	<rect x="104.5" y="18.3" fill="#FF00A1" width="3" height="1"/>
	<rect x="104.7" y="19.6" fill="#FF00A1" width="2.7" height="0.9"/>
	<rect x="104.8" y="21" fill="#FF00A1" width="2.4" height="0.8"/>
	<rect x="105" y="22.3" fill="#FF00A1" width="2.2" height="0.7"/>
	<rect x="105.1" y="23.7" fill="#FF00A1" width="1.9" height="0.6"/>
	<rect x="105.2" y="25" fill="#FF00A1" width="1.6" height="0.5"/>
	<rect x="105.4" y="26.4" fill="#FF00A1" width="1.3" height="0.4"/>
	<rect x="104.2" y="14.3" fill="#FF00A1" width="3.6" height="1.2"/>
	<rect x="104.4" y="13" fill="#FF00A1" width="3.3" height="1.1"/>
	<rect x="104.5" y="11.8" fill="#FF00A1" width="3" height="1"/>
	<rect x="104.7" y="10.5" fill="#FF00A1" width="2.7" height="0.9"/>
	<rect x="104.8" y="9.2" fill="#FF00A1" width="2.4" height="0.8"/>
	<rect x="105" y="8" fill="#FF00A1" width="2.2" height="0.7"/>
	<rect x="105.1" y="6.7" fill="#FF00A1" width="1.9" height="0.6"/>
	<rect x="105.2" y="5.5" fill="#FF00A1" width="1.6" height="0.5"/>
	<rect x="105.4" y="4.2" fill="#FF00A1" width="1.3" height="0.4"/>
	<rect x="62.1" y="15.6" fill="#FF00A1" width="3.6" height="1.2"/>
	<rect x="62.2" y="16.9" fill="#FF00A1" width="3.3" height="1.1"/>
	<rect x="62.4" y="18.3" fill="#FF00A1" width="3" height="1"/>
	<rect x="62.5" y="19.6" fill="#FF00A1" width="2.7" height="0.9"/>
	<rect x="62.7" y="21" fill="#FF00A1" width="2.4" height="0.8"/>
	<rect x="62.8" y="22.3" fill="#FF00A1" width="2.2" height="0.7"/>
	<rect x="62.9" y="23.7" fill="#FF00A1" width="1.9" height="0.6"/>
	<rect x="63.1" y="25" fill="#FF00A1" width="1.6" height="0.5"/>
	<rect x="63.2" y="26.4" fill="#FF00A1" width="1.3" height="0.4"/>
	<rect x="62.1" y="14.3" fill="#FF00A1" width="3.6" height="1.2"/>
	<rect x="62.2" y="13" fill="#FF00A1" width="3.3" height="1.1"/>
	<rect x="62.4" y="11.8" fill="#FF00A1" width="3" height="1"/>
	<rect x="62.5" y="10.5" fill="#FF00A1" width="2.7" height="0.9"/>
	<rect x="62.7" y="9.2" fill="#FF00A1" width="2.4" height="0.8"/>
	<rect x="62.8" y="8" fill="#FF00A1" width="2.2" height="0.7"/>
	<rect x="62.9" y="6.7" fill="#FF00A1" width="1.9" height="0.6"/>
	<rect x="63.1" y="5.5" fill="#FF00A1" width="1.6" height="0.5"/>
	<rect x="63.2" y="4.2" fill="#FF00A1" width="1.3" height="0.4"/>
	<rect x="138" y="15.6" fill="#FF00A1" width="3.6" height="1.2"/>
	<rect x="138.1" y="16.9" fill="#FF00A1" width="3.3" height="1.1"/>
	<rect x="138.2" y="18.3" fill="#FF00A1" width="3" height="1"/>
	<rect x="138.4" y="19.6" fill="#FF00A1" width="2.7" height="0.9"/>
	<rect x="138.5" y="21" fill="#FF00A1" width="2.4" height="0.8"/>
	<rect x="138.7" y="22.3" fill="#FF00A1" width="2.2" height="0.7"/>
	<rect x="138.8" y="23.7" fill="#FF00A1" width="1.9" height="0.6"/>
	<rect x="139" y="25" fill="#FF00A1" width="1.6" height="0.5"/>
	<rect x="139.1" y="26.4" fill="#FF00A1" width="1.3" height="0.4"/>
	<rect x="138" y="14.3" fill="#FF00A1" width="3.6" height="1.2"/>
	<rect x="138.1" y="13" fill="#FF00A1" width="3.3" height="1.1"/>
	<rect x="138.2" y="11.8" fill="#FF00A1" width="3" height="1"/>
	<rect x="138.4" y="10.5" fill="#FF00A1" width="2.7" height="0.9"/>
	<rect x="138.5" y="9.2" fill="#FF00A1" width="2.4" height="0.8"/>
	<rect x="138.7" y="8" fill="#FF00A1" width="2.2" height="0.7"/>
	<rect x="138.8" y="6.7" fill="#FF00A1" width="1.9" height="0.6"/>
	<rect x="139" y="5.5" fill="#FF00A1" width="1.6" height="0.5"/>
	<rect x="139.1" y="4.2" fill="#FF00A1" width="1.3" height="0.4"/>
	<rect x="175.9" y="15.6" fill="#FF00A1" width="3.6" height="1.2"/>
	<rect x="176" y="16.9" fill="#FF00A1" width="3.3" height="1.1"/>
	<rect x="176.2" y="18.3" fill="#FF00A1" width="3" height="1"/>
	<rect x="176.3" y="19.6" fill="#FF00A1" width="2.7" height="0.9"/>
	<rect x="176.5" y="21" fill="#FF00A1" width="2.4" height="0.8"/>
	<rect x="176.6" y="22.3" fill="#FF00A1" width="2.2" height="0.7"/>
	<rect x="176.8" y="23.7" fill="#FF00A1" width="1.9" height="0.6"/>
	<rect x="176.9" y="25" fill="#FF00A1" width="1.6" height="0.5"/>
	<rect x="177" y="26.4" fill="#FF00A1" width="1.3" height="0.4"/>
	<rect x="175.9" y="14.3" fill="#FF00A1" width="3.6" height="1.2"/>
	<rect x="176" y="13" fill="#FF00A1" width="3.3" height="1.1"/>
	<rect x="176.2" y="11.8" fill="#FF00A1" width="3" height="1"/>
	<rect x="176.3" y="10.5" fill="#FF00A1" width="2.7" height="0.9"/>
	<rect x="176.5" y="9.2" fill="#FF00A1" width="2.4" height="0.8"/>
	<rect x="176.6" y="8" fill="#FF00A1" width="2.2" height="0.7"/>
	<rect x="176.8" y="6.7" fill="#FF00A1" width="1.9" height="0.6"/>
	<rect x="176.9" y="5.5" fill="#FF00A1" width="1.6" height="0.5"/>
	<rect x="177" y="4.2" fill="#FF00A1" width="1.3" height="0.4"/>
	<rect x="24.1" y="15.6" fill="#FF00A1" width="3.6" height="1.2"/>
	<rect x="24.3" y="16.9" fill="#FF00A1" width="3.3" height="1.1"/>
	<rect x="24.4" y="18.3" fill="#FF00A1" width="3" height="1"/>
	<rect x="24.6" y="19.6" fill="#FF00A1" width="2.7" height="0.9"/>
	<rect x="24.7" y="21" fill="#FF00A1" width="2.4" height="0.8"/>
	<rect x="24.9" y="22.3" fill="#FF00A1" width="2.2" height="0.7"/>
	<rect x="25" y="23.7" fill="#FF00A1" width="1.9" height="0.6"/>
	<rect x="25.1" y="25" fill="#FF00A1" width="1.6" height="0.5"/>
	<rect x="25.3" y="26.4" fill="#FF00A1" width="1.3" height="0.4"/>
	<rect x="24.1" y="14.3" fill="#FF00A1" width="3.6" height="1.2"/>
	<rect x="24.3" y="13" fill="#FF00A1" width="3.3" height="1.1"/>
	<rect x="24.4" y="11.8" fill="#FF00A1" width="3" height="1"/>
	<rect x="24.6" y="10.5" fill="#FF00A1" width="2.7" height="0.9"/>
	<rect x="24.7" y="9.2" fill="#FF00A1" width="2.4" height="0.8"/>
	<rect x="24.9" y="8" fill="#FF00A1" width="2.2" height="0.7"/>
	<rect x="25" y="6.7" fill="#FF00A1" width="1.9" height="0.6"/>
	<rect x="25.1" y="5.5" fill="#FF00A1" width="1.6" height="0.5"/>
	<rect x="25.3" y="4.2" fill="#FF00A1" width="1.3" height="0.4"/>
	<rect x="108.5" y="15.6" fill="#FF00A1" width="3.6" height="1.2"/>
	<rect x="108.6" y="17" fill="#FF00A1" width="3.2" height="1"/>
	<rect x="108.8" y="18.3" fill="#FF00A1" width="2.8" height="0.9"/>
	<rect x="109" y="19.7" fill="#FF00A1" width="2.4" height="0.8"/>
	<rect x="109.2" y="21.1" fill="#FF00A1" width="2.1" height="0.7"/>
	<rect x="109.4" y="22.5" fill="#FF00A1" width="1.7" height="0.5"/>
	<rect x="109.6" y="23.9" fill="#FF00A1" width="1.3" height="0.4"/>
	<rect x="108.5" y="14.3" fill="#FF00A1" width="3.6" height="1.2"/>
	<rect x="108.6" y="13" fill="#FF00A1" width="3.2" height="1"/>
	<rect x="108.8" y="11.8" fill="#FF00A1" width="2.8" height="0.9"/>
	<rect x="109" y="10.5" fill="#FF00A1" width="2.4" height="0.8"/>
	<rect x="109.2" y="9.2" fill="#FF00A1" width="2.1" height="0.7"/>
	<rect x="109.4" y="8" fill="#FF00A1" width="1.7" height="0.5"/>
	<rect x="109.6" y="6.7" fill="#FF00A1" width="1.3" height="0.4"/>
	<rect x="100" y="15.6" fill="#FF00A1" width="3.6" height="1.2"/>
	<rect x="100.2" y="17" fill="#FF00A1" width="3.2" height="1"/>
	<rect x="100.4" y="18.3" fill="#FF00A1" width="2.8" height="0.9"/>
	<rect x="100.6" y="19.7" fill="#FF00A1" width="2.4" height="0.8"/>
	<rect x="100.8" y="21.1" fill="#FF00A1" width="2.1" height="0.7"/>
	<rect x="101" y="22.5" fill="#FF00A1" width="1.7" height="0.5"/>
	<rect x="101.2" y="23.9" fill="#FF00A1" width="1.3" height="0.4"/>
	<rect x="100" y="14.3" fill="#FF00A1" width="3.6" height="1.2"/>
	<rect x="100.2" y="13" fill="#FF00A1" width="3.2" height="1"/>
	<rect x="100.4" y="11.8" fill="#FF00A1" width="2.8" height="0.9"/>
	<rect x="100.6" y="10.5" fill="#FF00A1" width="2.4" height="0.8"/>
	<rect x="100.8" y="9.2" fill="#FF00A1" width="2.1" height="0.7"/>
	<rect x="101" y="8" fill="#FF00A1" width="1.7" height="0.5"/>
	<rect x="101.2" y="6.7" fill="#FF00A1" width="1.3" height="0.4"/>
	<rect x="125.3" y="15.6" fill="#FF00A1" width="3.6" height="1.2"/>
	<rect x="125.5" y="17" fill="#FF00A1" width="3.2" height="1"/>
	<rect x="125.7" y="18.3" fill="#FF00A1" width="2.8" height="0.9"/>
	<rect x="125.9" y="19.7" fill="#FF00A1" width="2.4" height="0.8"/>
	<rect x="126.1" y="21.1" fill="#FF00A1" width="2.1" height="0.7"/>
	<rect x="126.3" y="22.5" fill="#FF00A1" width="1.7" height="0.5"/>
	<rect x="126.5" y="23.9" fill="#FF00A1" width="1.3" height="0.4"/>
	<rect x="125.3" y="14.3" fill="#FF00A1" width="3.6" height="1.2"/>
	<rect x="125.5" y="13" fill="#FF00A1" width="3.2" height="1"/>
	<rect x="125.7" y="11.8" fill="#FF00A1" width="2.8" height="0.9"/>
	<rect x="125.9" y="10.5" fill="#FF00A1" width="2.4" height="0.8"/>
	<rect x="126.1" y="9.2" fill="#FF00A1" width="2.1" height="0.7"/>
	<rect x="126.3" y="8" fill="#FF00A1" width="1.7" height="0.5"/>
	<rect x="126.5" y="6.7" fill="#FF00A1" width="1.3" height="0.4"/>
	<rect x="121.1" y="15.6" fill="#FF00A1" width="3.6" height="1.2"/>
	<rect x="121.3" y="17" fill="#FF00A1" width="3.2" height="1"/>
	<rect x="121.5" y="18.3" fill="#FF00A1" width="2.8" height="0.9"/>
	<rect x="121.7" y="19.7" fill="#FF00A1" width="2.4" height="0.8"/>
	<rect x="121.9" y="21.1" fill="#FF00A1" width="2.1" height="0.7"/>
	<rect x="122.1" y="22.5" fill="#FF00A1" width="1.7" height="0.5"/>
	<rect x="122.2" y="23.9" fill="#FF00A1" width="1.3" height="0.4"/>
	<rect x="121.1" y="14.3" fill="#FF00A1" width="3.6" height="1.2"/>
	<rect x="121.3" y="13" fill="#FF00A1" width="3.2" height="1"/>
	<rect x="121.5" y="11.8" fill="#FF00A1" width="2.8" height="0.9"/>
	<rect x="121.7" y="10.5" fill="#FF00A1" width="2.4" height="0.8"/>
	<rect x="121.9" y="9.2" fill="#FF00A1" width="2.1" height="0.7"/>
	<rect x="122.1" y="8" fill="#FF00A1" width="1.7" height="0.5"/>
	<rect x="122.2" y="6.7" fill="#FF00A1" width="1.3" height="0.4"/>
	<rect x="133.7" y="15.6" fill="#FF00A1" width="3.6" height="1.2"/>
	<rect x="133.9" y="17" fill="#FF00A1" width="3.2" height="1"/>
	<rect x="134.1" y="18.3" fill="#FF00A1" width="2.8" height="0.9"/>
	<rect x="134.3" y="19.7" fill="#FF00A1" width="2.4" height="0.8"/>
	<rect x="134.5" y="21.1" fill="#FF00A1" width="2.1" height="0.7"/>
	<rect x="134.7" y="22.5" fill="#FF00A1" width="1.7" height="0.5"/>
	<rect x="134.9" y="23.9" fill="#FF00A1" width="1.3" height="0.4"/>
	<rect x="133.7" y="14.3" fill="#FF00A1" width="3.6" height="1.2"/>
	<rect x="133.9" y="13" fill="#FF00A1" width="3.2" height="1"/>
	<rect x="134.1" y="11.8" fill="#FF00A1" width="2.8" height="0.9"/>
	<rect x="134.3" y="10.5" fill="#FF00A1" width="2.4" height="0.8"/>
	<rect x="134.5" y="9.2" fill="#FF00A1" width="2.1" height="0.7"/>
	<rect x="134.7" y="8" fill="#FF00A1" width="1.7" height="0.5"/>
	<rect x="134.9" y="6.7" fill="#FF00A1" width="1.3" height="0.4"/>
	<rect x="95.8" y="15.6" fill="#FF00A1" width="3.6" height="1.2"/>
	<rect x="96" y="17" fill="#FF00A1" width="3.1" height="1"/>
	<rect x="96.3" y="18.4" fill="#FF00A1" width="2.7" height="0.9"/>
	<rect x="96.5" y="19.8" fill="#FF00A1" width="2.2" height="0.7"/>
	<rect x="96.7" y="21.2" fill="#FF00A1" width="1.8" height="0.6"/>
	<rect x="97" y="22.6" fill="#FF00A1" width="1.3" height="0.4"/>
	<rect x="95.8" y="14.3" fill="#FF00A1" width="3.6" height="1.2"/>
	<rect x="96" y="13" fill="#FF00A1" width="3.1" height="1"/>
	<rect x="96.3" y="11.8" fill="#FF00A1" width="2.7" height="0.9"/>
	<rect x="96.5" y="10.5" fill="#FF00A1" width="2.2" height="0.7"/>
	<rect x="96.7" y="9.2" fill="#FF00A1" width="1.8" height="0.6"/>
	<rect x="97" y="8" fill="#FF00A1" width="1.3" height="0.4"/>
	<rect x="116.9" y="15.6" fill="#FF00A1" width="3.6" height="1.2"/>
	<rect x="117.2" y="17" fill="#FF00A1" width="3" height="1"/>
	<rect x="117.5" y="18.5" fill="#FF00A1" width="2.4" height="0.8"/>
	<rect x="117.7" y="19.9" fill="#FF00A1" width="1.9" height="0.6"/>
	<rect x="118" y="21.3" fill="#FF00A1" width="1.3" height="0.4"/>
	<rect x="116.9" y="14.3" fill="#FF00A1" width="3.6" height="1.2"/>
	<rect x="117.2" y="13" fill="#FF00A1" width="3" height="1"/>
	<rect x="117.5" y="11.8" fill="#FF00A1" width="2.4" height="0.8"/>
	<rect x="117.7" y="10.5" fill="#FF00A1" width="1.9" height="0.6"/>
	<rect x="118" y="9.2" fill="#FF00A1" width="1.3" height="0.4"/>
	<rect x="150.6" y="15.6" fill="#FF00A1" width="3.6" height="1.2"/>
	<rect x="150.9" y="17" fill="#FF00A1" width="3" height="1"/>
	<rect x="151.2" y="18.5" fill="#FF00A1" width="2.4" height="0.8"/>
	<rect x="151.5" y="19.9" fill="#FF00A1" width="1.9" height="0.6"/>
	<rect x="151.8" y="21.3" fill="#FF00A1" width="1.3" height="0.4"/>
	<rect x="150.6" y="14.3" fill="#FF00A1" width="3.6" height="1.2"/>
	<rect x="150.9" y="13" fill="#FF00A1" width="3" height="1"/>
	<rect x="151.2" y="11.8" fill="#FF00A1" width="2.4" height="0.8"/>
	<rect x="151.5" y="10.5" fill="#FF00A1" width="1.9" height="0.6"/>
	<rect x="151.8" y="9.2" fill="#FF00A1" width="1.3" height="0.4"/>
	<rect x="112.7" y="15.6" fill="#FF00A1" width="3.6" height="1.2"/>
	<rect x="113" y="17" fill="#FF00A1" width="3" height="1"/>
	<rect x="113.2" y="18.5" fill="#FF00A1" width="2.4" height="0.8"/>
	<rect x="113.5" y="19.9" fill="#FF00A1" width="1.9" height="0.6"/>
	<rect x="113.8" y="21.3" fill="#FF00A1" width="1.3" height="0.4"/>
	<rect x="112.7" y="14.3" fill="#FF00A1" width="3.6" height="1.2"/>
	<rect x="113" y="13" fill="#FF00A1" width="3" height="1"/>
	<rect x="113.2" y="11.8" fill="#FF00A1" width="2.4" height="0.8"/>
	<rect x="113.5" y="10.5" fill="#FF00A1" width="1.9" height="0.6"/>
	<rect x="113.8" y="9.2" fill="#FF00A1" width="1.3" height="0.4"/>
	<rect x="32.6" y="15.6" fill="#FF00A1" width="3.6" height="1.2"/>
	<rect x="32.9" y="17" fill="#FF00A1" width="3" height="1"/>
	<rect x="33.2" y="18.5" fill="#FF00A1" width="2.4" height="0.8"/>
	<rect x="33.4" y="19.9" fill="#FF00A1" width="1.9" height="0.6"/>
	<rect x="33.7" y="21.3" fill="#FF00A1" width="1.3" height="0.4"/>
	<rect x="32.6" y="14.3" fill="#FF00A1" width="3.6" height="1.2"/>
	<rect x="32.9" y="13" fill="#FF00A1" width="3" height="1"/>
	<rect x="33.2" y="11.8" fill="#FF00A1" width="2.4" height="0.8"/>
	<rect x="33.4" y="10.5" fill="#FF00A1" width="1.9" height="0.6"/>
	<rect x="33.7" y="9.2" fill="#FF00A1" width="1.3" height="0.4"/>
	<rect x="87.4" y="15.6" fill="#FF00A1" width="3.6" height="1.2"/>
	<rect x="88.5" y="17.3" fill="#FF00A1" width="1.3" height="0.4"/>
	<rect x="87.4" y="14.3" fill="#FF00A1" width="3.6" height="1.2"/>
	<rect x="88.5" y="13.3" fill="#FF00A1" width="1.3" height="0.4"/>
	<rect x="83.2" y="15.6" fill="#FF00A1" width="3.6" height="1.2"/>
	<rect x="84.3" y="17.3" fill="#FF00A1" width="1.3" height="0.4"/>
	<rect x="83.2" y="14.3" fill="#FF00A1" width="3.6" height="1.2"/>
	<rect x="84.3" y="13.3" fill="#FF00A1" width="1.3" height="0.4"/>
	<rect x="70.5" y="15.6" fill="#FF00A1" width="3.6" height="1.2"/>
	<rect x="71.7" y="17.3" fill="#FF00A1" width="1.3" height="0.4"/>
	<rect x="70.5" y="14.3" fill="#FF00A1" width="3.6" height="1.2"/>
	<rect x="71.7" y="13.3" fill="#FF00A1" width="1.3" height="0.4"/>
	<rect x="66.3" y="15.6" fill="#FF00A1" width="3.6" height="1.2"/>
	<rect x="67.4" y="17.3" fill="#FF00A1" width="1.3" height="0.4"/>
	<rect x="66.3" y="14.3" fill="#FF00A1" width="3.6" height="1.2"/>
	<rect x="67.4" y="13.3" fill="#FF00A1" width="1.3" height="0.4"/>
	<rect x="163.3" y="15.6" fill="#FF00A1" width="3.6" height="1.2"/>
	<rect x="164.4" y="17.3" fill="#FF00A1" width="1.3" height="0.4"/>
	<rect x="163.3" y="14.3" fill="#FF00A1" width="3.6" height="1.2"/>
	<rect x="164.4" y="13.3" fill="#FF00A1" width="1.3" height="0.4"/>
	<rect x="159" y="15.6" fill="#FF00A1" width="3.6" height="1.2"/>
	<rect x="160.2" y="17.3" fill="#FF00A1" width="1.3" height="0.4"/>
	<rect x="159" y="14.3" fill="#FF00A1" width="3.6" height="1.2"/>
	<rect x="160.2" y="13.3" fill="#FF00A1" width="1.3" height="0.4"/>
	<rect x="49.4" y="15.6" fill="#FF00A1" width="3.6" height="1.2"/>
	<rect x="50.6" y="17.3" fill="#FF00A1" width="1.3" height="0.4"/>
	<rect x="49.4" y="14.3" fill="#FF00A1" width="3.6" height="1.2"/>
	<rect x="50.6" y="13.3" fill="#FF00A1" width="1.3" height="0.4"/>
	<rect x="45.2" y="15.6" fill="#FF00A1" width="3.6" height="1.2"/>
	<rect x="46.4" y="17.3" fill="#FF00A1" width="1.3" height="0.4"/>
	<rect x="45.2" y="14.3" fill="#FF00A1" width="3.6" height="1.2"/>
	<rect x="46.4" y="13.3" fill="#FF00A1" width="1.3" height="0.4"/>
	<rect x="3.1" y="15.6" fill="#FF00A1" width="3.6" height="1.2"/>
	<rect x="4.2" y="17.3" fill="#FF00A1" width="1.3" height="0.4"/>
	<rect x="3.1" y="14.3" fill="#FF00A1" width="3.6" height="1.2"/>
	<rect x="4.2" y="13.3" fill="#FF00A1" width="1.3" height="0.4"/>
	<rect x="41" y="15.6" fill="#FF00A1" width="3.6" height="1.2"/>
	<rect x="42.2" y="17.3" fill="#FF00A1" width="1.3" height="0.4"/>
	<rect x="41" y="14.3" fill="#FF00A1" width="3.6" height="1.2"/>
	<rect x="42.2" y="13.3" fill="#FF00A1" width="1.3" height="0.4"/>
	<rect x="11.5" y="15.6" fill="#FF00A1" width="3.6" height="1.2"/>
	<rect x="12.6" y="17.3" fill="#FF00A1" width="1.3" height="0.4"/>
	<rect x="11.5" y="14.3" fill="#FF00A1" width="3.6" height="1.2"/>
	<rect x="12.6" y="13.3" fill="#FF00A1" width="1.3" height="0.4"/>
	<rect x="91.6" y="15.6" fill="#FF00A1" width="3.6" height="1.2"/>
	<rect x="91.9" y="17" fill="#FF00A1" width="3" height="1"/>
	<rect x="92.2" y="18.5" fill="#FF00A1" width="2.4" height="0.8"/>
	<rect x="92.7" y="20.1" fill="#FF00A1" width="1.3" height="0.4"/>
	<rect x="91.6" y="14.3" fill="#FF00A1" width="3.6" height="1.2"/>
	<rect x="91.9" y="13" fill="#FF00A1" width="3" height="1"/>
	<rect x="92.2" y="11.8" fill="#FF00A1" width="2.4" height="0.8"/>
	<rect x="92.7" y="10.5" fill="#FF00A1" width="1.3" height="0.4"/>
	<rect x="79" y="15.6" fill="#FF00A1" width="3.6" height="1.2"/>
	<rect x="79.1" y="17" fill="#FF00A1" width="3.2" height="1"/>
	<rect x="79.3" y="18.3" fill="#FF00A1" width="2.8" height="0.9"/>
	<rect x="79.5" y="19.7" fill="#FF00A1" width="2.4" height="0.8"/>
	<rect x="79.7" y="21.1" fill="#FF00A1" width="2.1" height="0.7"/>
	<rect x="79.9" y="22.5" fill="#FF00A1" width="1.7" height="0.5"/>
	<rect x="80.1" y="23.9" fill="#FF00A1" width="1.3" height="0.4"/>
	<rect x="79" y="14.3" fill="#FF00A1" width="3.6" height="1.2"/>
	<rect x="79.1" y="13" fill="#FF00A1" width="3.2" height="1"/>
	<rect x="79.3" y="11.8" fill="#FF00A1" width="2.8" height="0.9"/>
	<rect x="79.5" y="10.5" fill="#FF00A1" width="2.4" height="0.8"/>
	<rect x="79.7" y="9.2" fill="#FF00A1" width="2.1" height="0.7"/>
	<rect x="79.9" y="8" fill="#FF00A1" width="1.7" height="0.5"/>
	<rect x="80.1" y="6.7" fill="#FF00A1" width="1.3" height="0.4"/>
	<rect x="57.9" y="15.6" fill="#FF00A1" width="3.6" height="1.2"/>
	<rect x="58.1" y="17" fill="#FF00A1" width="3.2" height="1"/>
	<rect x="58.3" y="18.3" fill="#FF00A1" width="2.8" height="0.9"/>
	<rect x="58.4" y="19.7" fill="#FF00A1" width="2.4" height="0.8"/>
	<rect x="58.6" y="21.1" fill="#FF00A1" width="2.1" height="0.7"/>
	<rect x="58.8" y="22.5" fill="#FF00A1" width="1.7" height="0.5"/>
	<rect x="59" y="23.9" fill="#FF00A1" width="1.3" height="0.4"/>
	<rect x="57.9" y="14.3" fill="#FF00A1" width="3.6" height="1.2"/>
	<rect x="58.1" y="13" fill="#FF00A1" width="3.2" height="1"/>
	<rect x="58.3" y="11.8" fill="#FF00A1" width="2.8" height="0.9"/>
	<rect x="58.4" y="10.5" fill="#FF00A1" width="2.4" height="0.8"/>
	<rect x="58.6" y="9.2" fill="#FF00A1" width="2.1" height="0.7"/>
	<rect x="58.8" y="8" fill="#FF00A1" width="1.7" height="0.5"/>
	<rect x="59" y="6.7" fill="#FF00A1" width="1.3" height="0.4"/>
	<rect x="28.4" y="15.6" fill="#FF00A1" width="3.6" height="1.2"/>
	<rect x="28.6" y="17" fill="#FF00A1" width="3.2" height="1"/>
	<rect x="28.7" y="18.3" fill="#FF00A1" width="2.8" height="0.9"/>
	<rect x="28.9" y="19.7" fill="#FF00A1" width="2.4" height="0.8"/>
	<rect x="29.1" y="21.1" fill="#FF00A1" width="2.1" height="0.7"/>
	<rect x="29.3" y="22.5" fill="#FF00A1" width="1.7" height="0.5"/>
	<rect x="29.5" y="23.9" fill="#FF00A1" width="1.3" height="0.4"/>
	<rect x="28.4" y="14.3" fill="#FF00A1" width="3.6" height="1.2"/>
	<rect x="28.6" y="13" fill="#FF00A1" width="3.2" height="1"/>
	<rect x="28.7" y="11.8" fill="#FF00A1" width="2.8" height="0.9"/>
	<rect x="28.9" y="10.5" fill="#FF00A1" width="2.4" height="0.8"/>
	<rect x="29.1" y="9.2" fill="#FF00A1" width="2.1" height="0.7"/>
	<rect x="29.3" y="8" fill="#FF00A1" width="1.7" height="0.5"/>
	<rect x="29.5" y="6.7" fill="#FF00A1" width="1.3" height="0.4"/>
	<rect x="15.7" y="15.6" fill="#FF00A1" width="3.6" height="1.2"/>
	<rect x="15.9" y="17" fill="#FF00A1" width="3.2" height="1"/>
	<rect x="16.1" y="18.3" fill="#FF00A1" width="2.8" height="0.9"/>
	<rect x="16.3" y="19.7" fill="#FF00A1" width="2.4" height="0.8"/>
	<rect x="16.5" y="21.1" fill="#FF00A1" width="2.1" height="0.7"/>
	<rect x="16.7" y="22.5" fill="#FF00A1" width="1.7" height="0.5"/>
	<rect x="16.9" y="23.9" fill="#FF00A1" width="1.3" height="0.4"/>
	<rect x="15.7" y="14.3" fill="#FF00A1" width="3.6" height="1.2"/>
	<rect x="15.9" y="13" fill="#FF00A1" width="3.2" height="1"/>
	<rect x="16.1" y="11.8" fill="#FF00A1" width="2.8" height="0.9"/>
	<rect x="16.3" y="10.5" fill="#FF00A1" width="2.4" height="0.8"/>
	<rect x="16.5" y="9.2" fill="#FF00A1" width="2.1" height="0.7"/>
	<rect x="16.7" y="8" fill="#FF00A1" width="1.7" height="0.5"/>
	<rect x="16.9" y="6.7" fill="#FF00A1" width="1.3" height="0.4"/>
	<rect x="74.7" y="15.6" fill="#FF00A1" width="3.6" height="1.2"/>
	<rect x="75" y="17" fill="#FF00A1" width="3" height="1"/>
	<rect x="75.3" y="18.5" fill="#FF00A1" width="2.4" height="0.8"/>
	<rect x="75.9" y="20.1" fill="#FF00A1" width="1.3" height="0.4"/>
	<rect x="74.7" y="14.3" fill="#FF00A1" width="3.6" height="1.2"/>
	<rect x="75" y="13" fill="#FF00A1" width="3" height="1"/>
	<rect x="75.3" y="11.8" fill="#FF00A1" width="2.4" height="0.8"/>
	<rect x="75.9" y="10.5" fill="#FF00A1" width="1.3" height="0.4"/>
	<rect x="184.3" y="15.6" fill="#FF00A1" width="3.6" height="1.2"/>
	<rect x="185.5" y="17.3" fill="#FF00A1" width="1.3" height="0.4"/>
	<rect x="184.3" y="14.3" fill="#FF00A1" width="3.6" height="1.2"/>
	<rect x="185.5" y="13.3" fill="#FF00A1" width="1.3" height="0.4"/>
	<rect y="14.6" fill="#FF00A1" width="1.3" height="0.4"/>
	<rect y="15.9" fill="#FF00A1" width="1.3" height="0.4"/>
	<rect x="171.7" y="15.6" fill="#FF00A1" width="3.6" height="1.2"/>
	<rect x="171.9" y="17" fill="#FF00A1" width="3.2" height="1"/>
	<rect x="172.1" y="18.3" fill="#FF00A1" width="2.8" height="0.9"/>
	<rect x="172.3" y="19.7" fill="#FF00A1" width="2.4" height="0.8"/>
	<rect x="172.4" y="21.1" fill="#FF00A1" width="2.1" height="0.7"/>
	<rect x="172.6" y="22.5" fill="#FF00A1" width="1.7" height="0.5"/>
	<rect x="172.8" y="23.9" fill="#FF00A1" width="1.3" height="0.4"/>
	<rect x="171.7" y="14.3" fill="#FF00A1" width="3.6" height="1.2"/>
	<rect x="171.9" y="13" fill="#FF00A1" width="3.2" height="1"/>
	<rect x="172.1" y="11.8" fill="#FF00A1" width="2.8" height="0.9"/>
	<rect x="172.3" y="10.5" fill="#FF00A1" width="2.4" height="0.8"/>
	<rect x="172.4" y="9.2" fill="#FF00A1" width="2.1" height="0.7"/>
	<rect x="172.6" y="8" fill="#FF00A1" width="1.7" height="0.5"/>
	<rect x="172.8" y="6.7" fill="#FF00A1" width="1.3" height="0.4"/>
	<rect x="167.5" y="15.6" fill="#FF00A1" width="3.6" height="1.2"/>
	<rect x="167.8" y="17" fill="#FF00A1" width="3" height="1"/>
	<rect x="168" y="18.5" fill="#FF00A1" width="2.4" height="0.8"/>
	<rect x="168.6" y="20.1" fill="#FF00A1" width="1.3" height="0.4"/>
	<rect x="167.5" y="14.3" fill="#FF00A1" width="3.6" height="1.2"/>
	<rect x="167.8" y="13" fill="#FF00A1" width="3" height="1"/>
	<rect x="168" y="11.8" fill="#FF00A1" width="2.4" height="0.8"/>
	<rect x="168.6" y="10.5" fill="#FF00A1" width="1.3" height="0.4"/>
	<rect x="180.1" y="15.6" fill="#FF00A1" width="3.6" height="1.2"/>
	<rect x="180.4" y="17" fill="#FF00A1" width="3" height="1"/>
	<rect x="180.7" y="18.5" fill="#FF00A1" width="2.4" height="0.8"/>
	<rect x="181.3" y="20.1" fill="#FF00A1" width="1.3" height="0.4"/>
	<rect x="180.1" y="14.3" fill="#FF00A1" width="3.6" height="1.2"/>
	<rect x="180.4" y="13" fill="#FF00A1" width="3" height="1"/>
	<rect x="180.7" y="11.8" fill="#FF00A1" width="2.4" height="0.8"/>
	<rect x="181.3" y="10.5" fill="#FF00A1" width="1.3" height="0.4"/>
	<rect x="53.7" y="15.6" fill="#FF00A1" width="3.6" height="1.2"/>
	<rect x="53.9" y="17" fill="#FF00A1" width="3" height="1"/>
	<rect x="54.2" y="18.5" fill="#FF00A1" width="2.4" height="0.8"/>
	<rect x="54.8" y="20.1" fill="#FF00A1" width="1.3" height="0.4"/>
	<rect x="53.7" y="14.3" fill="#FF00A1" width="3.6" height="1.2"/>
	<rect x="53.9" y="13" fill="#FF00A1" width="3" height="1"/>
	<rect x="54.2" y="11.8" fill="#FF00A1" width="2.4" height="0.8"/>
	<rect x="54.8" y="10.5" fill="#FF00A1" width="1.3" height="0.4"/>
	<rect x="146.4" y="15.6" fill="#FF00A1" width="3.6" height="1.2"/>
	<rect x="146.6" y="17" fill="#FF00A1" width="3.2" height="1"/>
	<rect x="146.8" y="18.3" fill="#FF00A1" width="2.8" height="0.9"/>
	<rect x="147" y="19.7" fill="#FF00A1" width="2.4" height="0.8"/>
	<rect x="147.2" y="21.1" fill="#FF00A1" width="2.1" height="0.7"/>
	<rect x="147.3" y="22.5" fill="#FF00A1" width="1.7" height="0.5"/>
	<rect x="147.5" y="23.9" fill="#FF00A1" width="1.3" height="0.4"/>
	<rect x="146.4" y="14.3" fill="#FF00A1" width="3.6" height="1.2"/>
	<rect x="146.6" y="13" fill="#FF00A1" width="3.2" height="1"/>
	<rect x="146.8" y="11.8" fill="#FF00A1" width="2.8" height="0.9"/>
	<rect x="147" y="10.5" fill="#FF00A1" width="2.4" height="0.8"/>
	<rect x="147.2" y="9.2" fill="#FF00A1" width="2.1" height="0.7"/>
	<rect x="147.3" y="8" fill="#FF00A1" width="1.7" height="0.5"/>
	<rect x="147.5" y="6.7" fill="#FF00A1" width="1.3" height="0.4"/>
	<rect x="142.2" y="15.6" fill="#FF00A1" width="3.6" height="1.2"/>
	<rect x="142.5" y="17" fill="#FF00A1" width="3" height="1"/>
	<rect x="142.8" y="18.5" fill="#FF00A1" width="2.4" height="0.8"/>
	<rect x="143.3" y="20.1" fill="#FF00A1" width="1.3" height="0.4"/>
	<rect x="142.2" y="14.3" fill="#FF00A1" width="3.6" height="1.2"/>
	<rect x="142.5" y="13" fill="#FF00A1" width="3" height="1"/>
	<rect x="142.8" y="11.8" fill="#FF00A1" width="2.4" height="0.8"/>
	<rect x="143.3" y="10.5" fill="#FF00A1" width="1.3" height="0.4"/>
	<rect x="154.8" y="15.6" fill="#FF00A1" width="3.6" height="1.2"/>
	<rect x="155.1" y="17" fill="#FF00A1" width="3" height="1"/>
	<rect x="155.4" y="18.5" fill="#FF00A1" width="2.4" height="0.8"/>
	<rect x="156" y="20.1" fill="#FF00A1" width="1.3" height="0.4"/>
	<rect x="154.8" y="14.3" fill="#FF00A1" width="3.6" height="1.2"/>
	<rect x="155.1" y="13" fill="#FF00A1" width="3" height="1"/>
	<rect x="155.4" y="11.8" fill="#FF00A1" width="2.4" height="0.8"/>
	<rect x="156" y="10.5" fill="#FF00A1" width="1.3" height="0.4"/>
	<rect x="36.8" y="15.6" fill="#FF00A1" width="3.6" height="1.2"/>
	<rect x="37.1" y="17" fill="#FF00A1" width="3" height="1"/>
	<rect x="37.4" y="18.5" fill="#FF00A1" width="2.4" height="0.8"/>
	<rect x="37.9" y="20.1" fill="#FF00A1" width="1.3" height="0.4"/>
	<rect x="36.8" y="14.3" fill="#FF00A1" width="3.6" height="1.2"/>
	<rect x="37.1" y="13" fill="#FF00A1" width="3" height="1"/>
	<rect x="37.4" y="11.8" fill="#FF00A1" width="2.4" height="0.8"/>
	<rect x="37.9" y="10.5" fill="#FF00A1" width="1.3" height="0.4"/>
	<rect x="7.3" y="15.6" fill="#FF00A1" width="3.6" height="1.2"/>
	<rect x="7.6" y="17" fill="#FF00A1" width="3" height="1"/>
	<rect x="7.9" y="18.5" fill="#FF00A1" width="2.4" height="0.8"/>
	<rect x="8.4" y="20.1" fill="#FF00A1" width="1.3" height="0.4"/>
	<rect x="7.3" y="14.3" fill="#FF00A1" width="3.6" height="1.2"/>
	<rect x="7.6" y="13" fill="#FF00A1" width="3" height="1"/>
	<rect x="7.9" y="11.8" fill="#FF00A1" width="2.4" height="0.8"/>
	<rect x="8.4" y="10.5" fill="#FF00A1" width="1.3" height="0.4"/>
</g>
</svg>
